<svg width="33" height="32" viewBox="0 0 33 32" fill="none" xmlns="http://www.w3.org/2000/svg">
<path fill-rule="evenodd" clip-rule="evenodd" d="M4 5.5C4 4.39543 4.89543 3.5 6 3.5H27C28.1046 3.5 29 4.39543 29 5.5V26.5C29 27.6046 28.1046 28.5 27 28.5H6C4.89543 28.5 4 27.6046 4 26.5V5.5ZM27 5.5H6V26.5H27V5.5Z" fill="#445F6F"/>
<path fill-rule="evenodd" clip-rule="evenodd" d="M15.5 13C16.0523 13 16.5 13.4477 16.5 14V22C16.5 22.5523 16.0523 23 15.5 23C14.9477 23 14.5 22.5523 14.5 22V14C14.5 13.4477 14.9477 13 15.5 13Z" fill="#445F6F"/>
<path fill-rule="evenodd" clip-rule="evenodd" d="M11.5 13C12.0523 13 12.5 13.4477 12.5 14V22C12.5 22.5523 12.0523 23 11.5 23C10.9477 23 10.5 22.5523 10.5 22V14C10.5 13.4477 10.9477 13 11.5 13Z" fill="#445F6F"/>
<path fill-rule="evenodd" clip-rule="evenodd" d="M19 15C18.337 15 17.7011 15.2634 17.2322 15.7322C16.7634 16.2011 16.5 16.837 16.5 17.5C16.5 18.0523 16.0523 18.5 15.5 18.5C14.9477 18.5 14.5 18.0523 14.5 17.5C14.5 16.3065 14.9741 15.1619 15.818 14.318C16.6619 13.4741 17.8065 13 19 13C20.1935 13 21.3381 13.4741 22.182 14.318C23.0259 15.1619 23.5 16.3065 23.5 17.5V22C23.5 22.5523 23.0523 23 22.5 23C21.9477 23 21.5 22.5523 21.5 22V17.5C21.5 16.837 21.2366 16.2011 20.7678 15.7322C20.2989 15.2634 19.663 15 19 15Z" fill="#445F6F"/>
<path d="M11.5 11.5C12.3284 11.5 13 10.8284 13 10C13 9.17157 12.3284 8.5 11.5 8.5C10.6716 8.5 10 9.17157 10 10C10 10.8284 10.6716 11.5 11.5 11.5Z" fill="#445F6F"/>
</svg>
