<svg width="33" height="32" viewBox="0 0 33 32" fill="none" xmlns="http://www.w3.org/2000/svg">
<path fill-rule="evenodd" clip-rule="evenodd" d="M16.5 5C10.4249 5 5.5 9.92487 5.5 16C5.5 22.0751 10.4249 27 16.5 27C22.5751 27 27.5 22.0751 27.5 16C27.5 9.92487 22.5751 5 16.5 5ZM3.5 16C3.5 8.8203 9.3203 3 16.5 3C23.6797 3 29.5 8.8203 29.5 16C29.5 23.1797 23.6797 29 16.5 29C9.3203 29 3.5 23.1797 3.5 16Z" fill="#445F6F"/>
<path fill-rule="evenodd" clip-rule="evenodd" d="M16.4911 11C18.8733 10.9977 21.2219 11.5623 23.3427 12.6472C23.8344 12.8987 24.0291 13.5012 23.7776 13.9929C23.5261 14.4846 22.9236 14.6793 22.4319 14.4278C20.5936 13.4874 18.5579 12.998 16.493 13C14.4282 13.002 12.3934 13.4954 10.557 14.4394C10.0658 14.6919 9.46292 14.4983 9.21043 14.0072C8.95795 13.516 9.15147 12.9131 9.64266 12.6606C11.7614 11.5715 14.1089 11.0023 16.4911 11Z" fill="#445F6F"/>
<path fill-rule="evenodd" clip-rule="evenodd" d="M16.4903 15C18.2282 14.9976 19.9419 15.4075 21.4907 16.196C21.9828 16.4466 22.1787 17.0487 21.9281 17.5409C21.6775 18.0331 21.0754 18.2289 20.5832 17.9783C19.3164 17.3333 17.9146 16.9981 16.4931 17C15.0715 17.002 13.6706 17.3411 12.4056 17.9896C11.9141 18.2415 11.3115 18.0473 11.0595 17.5559C10.8076 17.0644 11.0018 16.4617 11.4933 16.2098C13.0398 15.417 14.7524 15.0024 16.4903 15Z" fill="#445F6F"/>
<path fill-rule="evenodd" clip-rule="evenodd" d="M16.4966 19C17.588 18.997 18.6646 19.2524 19.6382 19.7454C20.131 19.9948 20.3282 20.5965 20.0787 21.0892C19.8293 21.582 19.2276 21.7792 18.7349 21.5297C18.0428 21.1793 17.2776 20.9978 16.5019 21L16.501 21C15.7179 21.0016 14.9457 21.1839 14.2446 21.5328C13.7501 21.7788 13.1498 21.5775 12.9038 21.083C12.6577 20.5886 12.8591 19.9883 13.3535 19.7422C14.3301 19.2563 15.4058 19.0023 16.4966 19ZM16.4966 19C16.4968 19 16.4969 19 16.4971 19L16.499 20L16.4962 19C16.4963 19 16.4965 19 16.4966 19Z" fill="#445F6F"/>
</svg>
