<svg width="33" height="32" viewBox="0 0 33 32" fill="none" xmlns="http://www.w3.org/2000/svg">
<path fill-rule="evenodd" clip-rule="evenodd" d="M14.0281 11.1183C14.3533 10.9443 14.7478 10.9634 15.0547 11.168L21.0547 15.168C21.3329 15.3534 21.5 15.6656 21.5 16C21.5 16.3344 21.3329 16.6466 21.0547 16.8321L15.0547 20.8321C14.7478 21.0366 14.3533 21.0557 14.0281 20.8817C13.703 20.7077 13.5 20.3688 13.5 20V12C13.5 11.6312 13.703 11.2923 14.0281 11.1183ZM15.5 13.8685V18.1315L18.6972 16L15.5 13.8685Z" fill="#445F6F"/>
<path fill-rule="evenodd" clip-rule="evenodd" d="M16.4985 5.05082L16.4816 5.05078L16.4188 5.05081C16.3643 5.05093 16.285 5.05133 16.1831 5.05241C15.9794 5.05457 15.6856 5.05947 15.3206 5.07043C14.5912 5.09232 13.5746 5.13847 12.4237 5.23563C10.1473 5.42782 7.24928 5.82669 5.01808 6.6792L5.00338 6.68495C4.56511 6.86039 4.1742 7.13637 3.86218 7.49064C3.55016 7.84491 3.32577 8.26755 3.20711 8.72447L3.20614 8.72824C2.89473 9.9468 2.5 12.2065 2.5 16.0008C2.5 19.7952 2.89473 22.0549 3.20614 23.2734L3.20711 23.2772C3.32577 23.7341 3.55016 24.1568 3.86218 24.511C4.1742 24.8653 4.56511 25.1413 5.00338 25.3167L5.01808 25.3225C7.24928 26.175 10.1473 26.5739 12.4237 26.766C13.5746 26.8632 14.5912 26.9094 15.3206 26.9312C15.6856 26.9422 15.9794 26.9471 16.1831 26.9493C16.285 26.9504 16.3643 26.9507 16.4188 26.9509L16.4816 26.9509L16.4985 26.9509H16.5015L16.5184 26.9509L16.5812 26.9509C16.6357 26.9507 16.715 26.9504 16.8169 26.9493C17.0206 26.9471 17.3144 26.9422 17.6794 26.9312C18.4088 26.9094 19.4254 26.8632 20.5763 26.766C22.8527 26.5739 25.7507 26.175 27.9819 25.3225L27.9966 25.3167C28.4349 25.1413 28.8258 24.8653 29.1378 24.511C29.4498 24.1568 29.6742 23.7341 29.7929 23.2772L29.7939 23.2734C30.1053 22.0549 30.5 19.7952 30.5 16.0008C30.5 12.2065 30.1053 9.9468 29.7939 8.72824L29.7929 8.72447C29.6742 8.26755 29.4498 7.84491 29.1378 7.49064C28.8258 7.13637 28.4349 6.86039 27.9966 6.68495L27.9819 6.6792C25.7507 5.82669 22.8527 5.42782 20.5763 5.23563C19.4254 5.13847 18.4088 5.09232 17.6794 5.07043C17.3144 5.05947 17.0206 5.05457 16.8169 5.05241C16.715 5.05133 16.6357 5.05093 16.5812 5.05081L16.5184 5.05078L16.5015 5.05082H16.4985ZM16.4947 24.9509L16.5054 24.9508L16.5086 24.9509L16.5217 24.9509L16.5767 24.9509C16.6259 24.9508 16.6996 24.9504 16.7957 24.9494C16.9877 24.9473 17.2686 24.9427 17.6194 24.9321C18.3216 24.9111 19.3011 24.8666 20.4081 24.7731C22.6441 24.5843 25.3041 24.2028 27.2596 23.4574C27.4044 23.3984 27.5336 23.3066 27.6369 23.1892C27.7414 23.0705 27.8167 22.929 27.8567 22.7761C28.1203 21.7438 28.5 19.6539 28.5 16.0008C28.5 12.3478 28.1203 10.2578 27.8567 9.22562C27.8167 9.07265 27.7414 8.93117 27.6369 8.81251C27.5336 8.69512 27.4044 8.60331 27.2596 8.54424C25.3041 7.79889 22.6441 7.41733 20.4081 7.22854C19.3011 7.13509 18.3216 7.09061 17.6194 7.06953C17.2686 7.059 16.9877 7.05433 16.7957 7.0523C16.6996 7.05128 16.6259 7.05092 16.5767 7.05081L16.5217 7.05078L16.5086 7.05081L16.5058 7.05082L16.4946 7.05088L16.4914 7.05081L16.4783 7.05078L16.4233 7.05081C16.3741 7.05092 16.3004 7.05128 16.2043 7.0523C16.0123 7.05433 15.7314 7.059 15.3806 7.06953C14.6784 7.09061 13.6989 7.13509 12.5919 7.22854C10.3559 7.41733 7.6959 7.79889 5.74039 8.54424C5.59561 8.60331 5.46645 8.69513 5.36306 8.81251C5.25855 8.93117 5.1833 9.07265 5.14331 9.22562C4.87974 10.2578 4.5 12.3478 4.5 16.0008C4.5 19.6539 4.87973 21.7438 5.1433 22.7761C5.18329 22.929 5.25855 23.0705 5.36306 23.1892C5.46645 23.3066 5.59561 23.3984 5.74038 23.4574C7.6959 24.2028 10.3559 24.5843 12.5919 24.7731C13.6989 24.8666 14.6784 24.9111 15.3806 24.9321C15.7314 24.9427 16.0123 24.9473 16.2043 24.9494C16.3004 24.9504 16.3741 24.9508 16.4233 24.9509L16.4783 24.9509L16.4914 24.9509L16.4947 24.9509Z" fill="#445F6F"/>
</svg>
