<svg width="24" height="25" viewBox="0 0 24 25" fill="none" xmlns="http://www.w3.org/2000/svg">
<path fill-rule="evenodd" clip-rule="evenodd" d="M4 12.5703C4 12.018 4.44772 11.5703 5 11.5703H19C19.5523 11.5703 20 12.018 20 12.5703C20 13.1226 19.5523 13.5703 19 13.5703H5C4.44772 13.5703 4 13.1226 4 12.5703Z" fill="white"/>
<path fill-rule="evenodd" clip-rule="evenodd" d="M11.2929 4.86321C11.6834 4.47268 12.3166 4.47268 12.7071 4.86321L19.7071 11.8632C20.0976 12.2537 20.0976 12.8869 19.7071 13.2774L12.7071 20.2774C12.3166 20.6679 11.6834 20.6679 11.2929 20.2774C10.9024 19.8869 10.9024 19.2537 11.2929 18.8632L17.5858 12.5703L11.2929 6.27742C10.9024 5.8869 10.9024 5.25373 11.2929 4.86321Z" fill="white"/>
</svg>
