<svg width="820" height="800" viewBox="0 0 820 800" fill="none" xmlns="http://www.w3.org/2000/svg">
<path d="M408.87 773.029C617.358 773.029 786.37 604.017 786.37 395.529C786.37 187.042 617.358 18.0293 408.87 18.0293C200.383 18.0293 31.3701 187.042 31.3701 395.529C31.3701 604.017 200.383 773.029 408.87 773.029Z" fill="#FFCBAA"/>
<path d="M80.51 315.25L78.54 314.91C78.64 314.33 89.02 256.46 129.15 212.08L130.63 213.42C90.89 257.37 80.61 314.68 80.51 315.25Z" fill="white"/>
<path d="M135.21 175.4L133.56 174.28C133.88 173.81 166 127.22 217.53 104.49L218.34 106.32C167.35 128.81 135.53 174.94 135.21 175.4Z" fill="white"/>
<path d="M764.33 388.681H762.33C762.33 316.911 729.76 251.861 729.43 251.211L731.21 250.311C731.54 250.961 764.33 316.421 764.33 388.681Z" fill="white"/>
<path d="M725.39 351.261C723.85 322.671 714.54 298.611 714.45 298.371L716.31 297.641C716.4 297.881 725.82 322.231 727.39 351.151L725.39 351.261Z" fill="white"/>
<path d="M17.7701 301.65L15.8101 301.23C15.9301 300.65 28.5601 243.08 72.8201 184.9L74.4101 186.11C30.4201 243.94 17.8901 301.08 17.7701 301.65Z" fill="black"/>
<path d="M80.2903 140.76L78.7603 139.48C78.8803 139.34 90.6103 125.36 105.57 111.24L106.94 112.69C92.0602 126.73 80.4003 140.62 80.2903 140.76Z" fill="black"/>
<path d="M129.75 112.619L128.23 111.319C128.4 111.119 145.54 91.3191 178.25 68.9991C208.42 48.4091 258.4 21.3891 325.21 9.53906L325.56 11.5091C259.1 23.2991 209.38 50.1791 179.38 70.6491C146.88 92.8191 129.91 112.419 129.75 112.619Z" fill="black"/>
<path d="M785.41 266.869C768.58 198.269 715.18 139.049 714.64 138.459L716.12 137.109C716.66 137.699 770.4 197.309 787.35 266.389L785.41 266.869Z" fill="black"/>
<path d="M800.24 366.74C798.25 341.79 793.49 319.95 789.85 306.02L791.79 305.51C795.45 319.52 800.24 341.48 802.24 366.58L800.24 366.74Z" fill="black"/>
<path d="M811.09 461.039L809.14 460.589C810.86 453.149 812.36 445.079 813.6 436.609L815.58 436.899C814.33 445.419 812.81 453.539 811.09 461.039Z" fill="black"/>
<path d="M819.28 399.469L817.28 399.359C818.85 370.559 817.46 342.789 813.81 330.259L815.73 329.699C819.44 342.429 820.86 370.469 819.28 399.469Z" fill="black"/>
<path d="M787.81 490.58L785.91 489.97C789.42 479.05 792.4 463.85 794.77 444.82L796.75 445.07C794.37 464.22 791.36 479.53 787.81 490.58Z" fill="black"/>
<path d="M798.55 428.359L796.56 428.179C797.29 420.259 797.61 414.999 797.61 414.939L799.61 415.059C799.6 415.109 799.28 420.419 798.55 428.359Z" fill="black"/>
<path d="M596.05 51.4998C543.64 18.1398 455.86 6.67985 454.98 6.56985L455.23 4.58984C455.45 4.61984 477.68 7.47984 506.13 14.4498C532.41 20.8898 569.52 32.2498 597.13 49.8198L596.05 51.4998Z" fill="black"/>
<path d="M552.33 15.59C538.27 9.39 505.6 2.02 505.27 1.95L505.71 0C506.04 0.07 538.9 7.48 553.14 13.77L552.33 15.59Z" fill="black"/>
<path d="M126.87 684.109C122.63 680.759 118.44 677.249 114.42 673.689L115.75 672.189C119.75 675.729 123.91 679.219 128.12 682.539L126.87 684.109Z" fill="black"/>
<path d="M93.0802 652.709C35.7702 590.209 24.7902 522.009 24.6802 521.329L26.6602 521.029C26.7602 521.709 37.6702 589.329 94.5502 651.359L93.0802 652.709Z" fill="black"/>
<path d="M108.79 647.54C88.2699 630.62 69.0899 592.01 68.8999 591.62L70.6899 590.74C70.8799 591.12 89.8799 629.35 110.06 646L108.79 647.54Z" fill="black"/>
<path d="M307.55 775.94C278.38 770.36 249.56 760.44 221.89 746.45L222.79 744.66C250.3 758.56 278.94 768.42 307.93 773.97L307.55 775.94Z" fill="black"/>
<path d="M186.55 725.841C172.21 716.241 164.18 709.121 164.1 709.051L165.43 707.561C165.51 707.631 173.45 714.671 187.66 724.181L186.55 725.841Z" fill="black"/>
<path d="M426.98 796.949L426.88 794.949C434.28 794.589 441.52 794.029 448.39 793.289L448.61 795.279C441.7 796.029 434.42 796.589 426.98 796.949Z" fill="black"/>
<path d="M400.69 797.41C354.91 796.91 316.55 790.05 316.16 789.98L316.52 788.01C316.9 788.08 355.11 794.92 400.71 795.41L400.69 797.41Z" fill="black"/>
<path d="M181.89 666.21C118.81 621.98 95.5698 551.82 95.3398 551.12L97.2399 550.5C97.4699 551.2 120.52 620.74 183.04 664.57L181.89 666.21Z" fill="white"/>
<path d="M319.81 742.74C270.3 734.04 220.73 700.9 220.24 700.56L221.36 698.9C221.85 699.23 271.08 732.14 320.16 740.76L319.81 742.74Z" fill="white"/>
<path d="M238.36 682.63C225.18 678.5 209.27 663.75 208.6 663.13L209.96 661.67C210.12 661.82 226.21 676.73 238.95 680.73L238.36 682.63Z" fill="white"/>
<path d="M475.24 72.1497C465.19 78.2697 421.48 103.85 389.93 127.91C384.91 131.74 381.17 136.99 379.2 142.99C375.11 155.48 371.44 169.35 370.4 173.37C370.16 174.3 370.28 175.29 370.76 176.12C373.71 181.32 389.88 199.22 477.98 230.38L498.66 185.65C498.66 185.65 485.6 102.42 481.59 74.6197C481.18 71.8297 477.97 70.4897 475.24 72.1497Z" fill="white"/>
<path d="M371.19 176.849C375.16 186.409 420.78 215.819 477.96 230.389L479.66 226.719C457.47 207.269 419.11 187.749 390.63 180.399C380.19 177.709 374.5 176.459 371.19 176.849Z" fill="#FEC3B5"/>
<path d="M480.69 91.4198C475.45 87.0498 469.22 84.1499 462.19 82.7999L462.57 80.8398C469.94 82.2598 476.46 85.2999 481.97 89.8799L480.69 91.4198Z" fill="black"/>
<path d="M379.3 182.2C391.91 192.13 424.87 210.19 465.58 223.4L466.92 220.59C450.1 206.3 411.79 188.55 380.12 180.53C379.13 180.28 378.49 181.57 379.3 182.2Z" fill="black"/>
<path d="M671.61 60.8293L670.13 51.8493C668.9 44.3793 661.51 40.7193 654.37 43.2593C645.01 46.5793 632.87 50.5193 626.29 55.6393C623.68 57.6693 622.26 60.8693 622.53 64.1593C624.94 93.3893 627.7 116.169 629.01 126.229C629.47 129.799 628.29 133.389 625.79 135.979L596.59 166.349L626.2 181.489L681.63 129.839L671.61 60.8293Z" fill="#0B1B7D"/>
<path d="M477.97 230.389L499.15 184.579C502.82 176.649 510.56 171.399 519.28 170.909L563.17 168.479C573.97 167.879 584.48 164.759 593.86 159.369C601.54 154.959 610.99 154.999 618.63 159.489C623.65 162.439 629.99 161.889 634.43 158.119L650.28 144.659C652.1 143.109 653.08 140.799 652.93 138.419C652.09 125.679 649.42 83.9586 649.08 63.6186C649.03 60.7886 650.62 58.1786 653.16 56.9386C663.71 51.7886 680.23 49.2786 692.89 51.4386C696.02 51.9686 698.47 54.5386 698.67 57.7086C699.52 71.5886 690.04 86.4586 690.04 86.4586L698.39 149.229C700.23 163.069 694.32 176.799 683.01 184.979L630.28 223.099C626.28 225.989 622.12 228.669 617.82 231.099C607.61 236.889 596.69 241.329 585.34 244.299L544.93 254.869L477.97 230.389Z" fill="#FF4C2C"/>
<path d="M496.14 189.23L520.69 185.51L539.77 205.78L502.79 240.97L483.23 218.87L496.14 189.23Z" fill="#0B1B7D"/>
<path d="M556.199 177.756C561.003 159.375 549.997 140.579 531.616 135.775C513.235 130.97 494.439 141.976 489.635 160.357C484.83 178.738 495.836 197.534 514.217 202.338C532.598 207.143 551.394 196.137 556.199 177.756Z" fill="#FF4C2C"/>
<path d="M434.84 156.438L441.35 146.389C442.45 144.689 441.78 142.409 439.93 141.579L437.21 140.359C435.57 139.619 435.36 137.378 436.84 136.348L465.91 116.199C467.38 115.179 467.05 112.918 465.35 112.348L452.04 107.958C450.46 107.438 448.74 107.669 447.35 108.589L418.73 127.538C416.97 128.698 415.55 130.299 414.59 132.169L410.57 140.009C408.54 143.969 410.28 148.819 414.36 150.579L430.75 157.669C432.24 158.319 433.97 157.788 434.84 156.438ZM469.21 151.998L467.73 151.079C466.41 150.259 465.91 148.589 466.55 147.179L468.51 142.878C469.66 140.358 468.68 137.379 466.26 136.029L459.69 132.369C457.11 130.939 453.86 131.868 452.45 134.458L432.6 170.639C431.28 173.049 432.01 176.069 434.29 177.609L441.32 182.339C443.91 184.079 447.44 183.219 448.95 180.489L454.64 170.119C455.49 168.579 457.45 168.058 458.95 168.968L459.73 169.449C461.44 170.499 463.68 169.859 464.58 168.069L470.45 156.468C471.27 154.878 470.72 152.938 469.21 151.998Z" fill="#2549D9"/>
<path d="M581.72 186.299C572.1 177.709 557.43 178.219 548.42 187.439L521.64 214.859C519.55 216.999 516.47 217.849 513.58 217.089L473.77 206.639C471.02 205.919 468.53 204.439 466.58 202.369L455.15 190.249C454.2 189.239 452.49 189.419 451.88 190.659C451.25 191.929 450.86 194.009 451.51 197.379C452.95 204.879 448.6 204.859 444.18 201.319C441.9 199.499 438.37 196.659 435.49 194.329C433.3 192.559 430.07 194.139 430.06 196.949C430.04 200.369 430.53 204.289 432.5 206.479C428.48 218.539 435.23 232.859 445.92 238.639C458.26 245.309 524.77 265.859 524.77 265.859C531.23 267.769 538.22 265.979 542.97 261.209L582.74 221.269C592.5 211.489 592.03 195.509 581.72 186.299Z" fill="#FF4C2C"/>
<path d="M502.12 146.259C497.86 149.349 494.54 153.799 492.57 159.099C488.13 171.049 492.32 183.889 501.68 191.559C506.72 195.689 514.41 196.669 522.05 191.949C527.02 188.879 530.78 183.939 532.96 178.079C536.78 167.809 534.2 157.159 527.38 149.529C521.78 143.279 509.22 141.099 502.12 146.259Z" fill="black"/>
<path d="M253.09 533.61C249.27 519.05 245.02 500.29 242.78 493.92C242.69 493.67 242.38 492.98 242.15 492.83C240.14 491.49 228.34 485.84 214.68 488.12C210.45 488.83 195.93 487.48 190.12 491.89C188.32 493.25 187.64 495.55 187.48 497.8C186.66 509.93 184.64 547.41 184.98 560.06C185.04 562.33 186.6 564.37 188.83 564.82C213.44 569.83 242.06 567.52 254.81 557.89C256.22 556.82 257.01 555.13 256.85 553.36C256.53 549.97 255.65 543.36 253.09 533.61Z" fill="white"/>
<path d="M112.47 436.48L71.8102 423.77C69.7002 423.11 68.3802 421.01 68.6902 418.82L74.9703 374.89C75.4103 371.79 73.2603 368.92 70.1603 368.47L44.7603 364.59C43.5703 364.42 41.0103 365.31 41.0103 368.73C41.0103 370.4 41.4703 371.33 42.3203 372.35L46.9103 377.88C47.7703 378.91 48.1403 380.27 47.9203 381.59L42.4903 415.19L61.0803 454.78L106.25 459.61L112.47 436.48Z" fill="#0B1B7D"/>
<path d="M32.1402 379.799L67.4802 435.389C68.4302 436.889 69.9502 437.949 71.6802 438.339L79.6002 440.099C82.2302 440.679 84.9802 440.219 87.2702 438.819L90.3302 436.949C96.4002 433.229 103.79 432.359 110.56 434.569L159.04 450.379L144.87 494.569L97.0702 482.909C92.9202 481.899 88.8402 480.659 84.8302 479.189C78.8702 477.009 70.1502 473.679 64.8402 471.069C51.1502 464.339 46.6602 459.099 44.4302 454.919C37.3402 441.629 19.8202 411.509 17.6102 407.949C14.7402 403.329 8.4302 402.929 5.0802 402.059C3.0102 401.519 1.4902 400.609 0.650204 398.639L0.220211 397.639C-0.289789 396.449 0.110223 395.069 1.17022 394.329L24.3902 378.109C26.9702 376.309 30.5402 377.079 32.1402 379.799Z" fill="#FF4C2C"/>
<path d="M180.66 480.63L223.44 480.6C226.93 480.58 230.53 481.62 232.37 483.73C233.47 484.99 235.43 487.71 236.47 489.02C237.19 489.94 236.93 491.13 235.89 490.88L230.7 489.02L231.62 492.2C232.25 493.92 230.68 494.7 229.35 494.03L224.18 491.59C224.31 493.03 222.79 494.05 221.5 493.38C219.12 492.14 218.21 491.34 214.92 489.1C214.1 488.55 213.13 488.27 212.14 488.32C203.32 488.76 197.1 489.86 191.72 492.06C187.73 493.69 187.63 497.84 187.56 499.14C187.44 501.33 184.48 507.89 184.48 507.89L156.63 502.16L151.7 483.62L180.66 480.63Z" fill="#0B1B7D"/>
<path d="M164.4 485.569C176.528 485.569 186.36 475.325 186.36 462.689C186.36 450.052 176.528 439.809 164.4 439.809C152.272 439.809 142.44 450.052 142.44 462.689C142.44 475.325 152.272 485.569 164.4 485.569Z" fill="#FF4C2C"/>
<path d="M173.95 516.71C173.95 516.71 160.44 540.57 158.41 554.67C157.76 559.21 161.07 563.38 165.63 563.92C169.67 564.39 175.92 564.62 185.33 563.87C183.97 559.62 187.07 521.84 188.4 506.57C188.58 504.52 186.05 503.42 184.66 504.94L173.95 516.71Z" fill="white"/>
<path d="M220.07 505.339C222.96 511.359 233.87 534.329 236.2 543.549C236.49 544.689 235.59 545.769 234.42 545.699C223.75 544.989 213.45 546.549 209.06 547.349C207.94 547.549 206.94 546.639 207.03 545.509L210.01 508.719C210.06 508.069 210.48 507.499 211.08 507.259L217.85 504.499C218.7 504.149 219.67 504.519 220.07 505.339Z" fill="white"/>
<path d="M233.69 536.119C228.75 523.199 219.36 503.879 219.36 503.879L217.15 504.779L227.63 545.519C230.54 545.489 233.58 545.669 236.62 545.959C236.48 544.019 235.33 540.429 233.69 536.119Z" fill="#2549D9"/>
<path d="M236.63 545.959C236.62 545.789 228.56 539.249 228.56 539.249C227.18 538.199 225.32 538.059 223.81 538.889L208.06 547.519C211.86 546.789 224.24 544.759 236.63 545.959Z" fill="#0B1B7D"/>
<path d="M156.95 469.409C156.58 473.399 157.47 477.149 159.24 480.299C160.43 482.409 162.67 483.769 165.1 483.769C165.11 483.769 165.13 483.769 165.14 483.769C176.08 483.769 184.95 474.529 184.95 463.129C184.95 463.109 184.95 463.079 184.95 463.059C184.93 458.249 181.49 454.159 176.94 453.399C175.55 453.169 174.1 453.109 172.61 453.239C164.39 453.989 157.74 460.859 156.95 469.409Z" fill="black"/>
<path d="M227.8 508.259L223.08 508.809C222.7 508.849 222.51 508.369 222.81 508.139L226.77 505.149C228.32 503.979 227.39 501.519 225.46 501.669C221.17 501.999 215.64 502.459 211.69 502.879C211.04 502.949 210.75 502.069 211.32 501.739C213.09 500.729 214.02 500.239 215.86 499.209C218.49 497.729 215.9 495.649 212.89 495.759C207.26 495.979 201.65 499.369 197.38 499.369C189.66 499.369 168.29 498.329 168.29 498.329C166.6 498.269 165.03 497.409 164.08 496.009L146.72 470.319C141.86 463.899 132.69 462.709 126.36 467.679C120.35 472.389 119.06 480.979 123.43 487.249L148.85 519.819C151.2 522.829 154.77 524.649 158.59 524.779L213.94 523.939C220.54 523.949 225.18 517.969 225.77 514.859C227.47 513.709 228.68 512.449 229.55 511.309C230.56 509.969 229.48 508.059 227.8 508.259Z" fill="#FF4C2C"/>
<path d="M159.69 271.62C159.69 271.62 164.39 289.28 176.24 313.22C193.04 347.15 201.24 360.74 209.88 375.31C220.4 393.05 252.52 411.04 314.49 372.65C378.7 332.88 368.91 306.68 364.65 297.56C362.13 292.16 341.68 253.94 324.71 224.93C318.09 213.61 311.84 203.94 307.68 197.7C304.22 192.51 298.66 189.14 292.46 188.44C275.56 186.53 239.76 186.72 202.95 213.39C152.2 250.17 159.69 271.62 159.69 271.62Z" fill="white"/>
<path d="M367.23 316.98C368.92 308.45 365.24 299.73 358.07 294.79C339.89 282.25 304.28 281.71 259.13 310.23C209.52 341.57 208.37 368.09 215.75 382.78C230.21 397.05 261.39 405.54 314.48 372.65C352.53 349.09 364.59 330.29 367.23 316.98Z" fill="#FEC3B5"/>
<path d="M225.04 381.809C218.87 372.979 218.75 345.319 265.06 315.529C311.74 285.499 352.69 294.039 358.71 310.229C364.73 326.419 331.19 356.069 293.83 375.049C260.03 392.229 231.88 391.599 225.04 381.809Z" fill="black"/>
<path d="M184.94 557.45C180.87 557.44 176.58 557.66 172.29 558C162.63 558.77 161.33 561.81 162.24 562.74C163.09 563.61 164.38 564.08 165.63 564.22C169.67 564.69 178.01 564.96 186.89 563.92C184.94 561.77 184.95 560.73 184.94 557.45Z" fill="black"/>
<path d="M252.87 497.909C249.98 494.339 248.33 494.779 243.05 494.699C245.29 502.439 249.19 518.749 253.09 533.619C256.99 548.479 257.01 556.039 257.01 556.039C261.91 555.389 265.86 554.659 275.45 553.049C283.28 551.729 283.98 545.249 279.93 539.249L252.87 497.909Z" fill="white"/>
<path d="M253.18 559.04C253.74 557.62 252.82 556.2 250.47 555.04C245.8 552.72 236.66 550.9 218.85 551.9C202.43 552.82 194.1 556.88 189.91 560.46C187.67 562.38 187.82 563.86 189.8 565.06C214.48 571.05 240.01 567.71 253.18 559.04Z" fill="#FEC3B5"/>
<path d="M276.47 553.23C278.45 552.72 278.76 550.6 277.73 549.86C277.29 549.55 276.77 549.23 276.15 548.91C271.28 546.41 263.5 546.44 256.06 547.33C257 553.11 257.17 554.5 256.11 556.46C262.17 556.04 275.88 553.38 276.47 553.23Z" fill="black"/>
<path d="M218.83 265.769C215.92 258.449 215.83 250.289 219.26 244.939C220.06 243.689 221.53 241.649 220.79 240.369L214.35 231.029C212.99 228.669 209.44 230.149 207.81 232.339C199.78 243.169 196.78 257.279 202.78 272.339C211.59 294.489 227.95 300.969 244.81 296.849C247.54 296.179 248.87 293.089 247.46 290.659L242.54 282.509C241.46 280.639 239.39 279.609 237.23 279.779C229.95 280.369 222.75 275.609 218.83 265.769ZM266.86 239.639C254.11 219.449 233.85 216.369 220.58 221.409C218.26 222.289 217.21 224.979 218.45 227.129L225.69 236.939C226.55 238.419 228.25 239.139 229.92 238.819C237 237.449 245.7 240.189 251.43 248.849C255.98 255.729 255.97 266.499 248.75 273.419C247.17 274.939 247.33 277.549 248.43 279.449L253.05 287.419C254.88 290.569 258.97 290.869 261.76 288.539C274.84 277.619 275.8 253.799 266.86 239.639Z" fill="#2549D9"/>
<path d="M552.49 238.229C551.8 238.229 551.1 238.049 550.46 237.679C545.56 234.829 536.72 229.259 532.57 224.089C531.4 222.629 531.43 220.499 532.66 219.019L545.65 203.359C547.02 201.699 549.45 201.409 551.18 202.689C555.26 205.719 562.69 211.319 566.64 214.819C568.23 216.229 568.48 218.569 567.22 220.269C562.68 226.409 558.15 233.049 555.86 236.449C555.07 237.599 553.79 238.229 552.49 238.229ZM548.76 203.889C548.17 203.889 547.58 204.139 547.18 204.629L534.19 220.289C533.57 221.039 533.54 222.099 534.13 222.829C538.23 227.939 547.62 233.709 551.47 235.949C552.4 236.489 553.59 236.219 554.19 235.329C556.5 231.909 561.04 225.249 565.6 219.069C566.23 218.209 566.11 217.019 565.3 216.309C561.41 212.859 554.03 207.299 549.97 204.289C549.61 204.019 549.18 203.889 548.76 203.889Z" fill="black"/>
<path d="M517.858 222.962L516.101 223.916L534.246 257.349L536.003 256.395L517.858 222.962Z" fill="black"/>
<path d="M517.972 240.729L516.05 241.281L521.653 260.772L523.576 260.22L517.972 240.729Z" fill="black"/>
<path d="M508.928 226.132L507.194 255.422L509.19 255.54L510.924 226.25L508.928 226.132Z" fill="black"/>
<path d="M456.07 237.49L454.14 236.97L459.28 217.75C459.6 216.54 460.69 215.79 461.94 215.92C463.18 216.05 464.09 217.02 464.16 218.26L464.73 229.77C464.75 230.09 464.97 230.19 465.11 230.22C465.25 230.25 465.49 230.26 465.64 229.97L473.06 215.33L474.84 216.23L467.43 230.87C466.91 231.89 465.82 232.41 464.7 232.17C463.58 231.93 462.8 231.01 462.74 229.87L462.17 218.36C462.15 218 461.89 217.92 461.74 217.91C461.59 217.89 461.32 217.92 461.23 218.26L456.07 237.49Z" fill="black"/>
<path d="M661.661 136.847L661.347 138.822L690.616 143.488L690.931 141.513L661.661 136.847Z" fill="black"/>
<path d="M663.671 145.805L662.944 147.668L690.423 158.4L691.151 156.537L663.671 145.805Z" fill="black"/>
<path d="M664.059 153.529L662.543 154.834L681.975 177.415L683.491 176.11L664.059 153.529Z" fill="black"/>
<path d="M141.82 500.989C141.61 500.989 141.4 500.979 141.19 500.949C139.94 500.769 138.83 500.059 138.14 498.999L132.9 490.969C131.59 488.969 132.14 486.249 134.13 484.919L141.12 480.229C143.12 478.889 145.84 479.419 147.19 481.399L152.04 488.499C153.31 490.359 152.97 492.859 151.26 494.319L144.67 499.939C143.87 500.629 142.86 500.989 141.82 500.989ZM143.57 481.499C143.11 481.499 142.65 481.629 142.24 481.899L135.25 486.589C134.17 487.319 133.87 488.789 134.58 489.889L139.82 497.919C140.2 498.499 140.8 498.879 141.48 498.979C142.17 499.079 142.85 498.879 143.37 498.429L149.96 492.809C150.89 492.009 151.08 490.649 150.38 489.639L145.53 482.539C145.09 481.859 144.33 481.499 143.57 481.499Z" fill="black"/>
<path d="M160.777 501.75L149.829 513.225L151.276 514.605L162.224 503.131L160.777 501.75Z" fill="black"/>
<path d="M157.442 512.266L154.523 518.164L156.316 519.051L159.234 513.153L157.442 512.266Z" fill="black"/>
<path d="M165.443 501.536L161.361 521.012L163.319 521.422L167.4 501.946L165.443 501.536Z" fill="black"/>
<path d="M188.21 517.259C188.16 517.259 188.12 517.259 188.07 517.259C186.74 517.199 185.61 516.349 185.19 515.089L183.41 509.709L185.31 509.079L187.09 514.459C187.33 515.169 187.96 515.259 188.15 515.259C188.34 515.259 188.98 515.239 189.28 514.549L191.01 510.499C191.43 509.519 192.3 508.819 193.35 508.629C194.4 508.439 195.46 508.769 196.2 509.529L201.43 514.889C201.89 515.359 202.45 515.309 202.83 515.099C203.21 514.889 203.56 514.439 203.41 513.799L200.98 503.399L202.93 502.949L205.36 513.349C205.69 514.749 205.06 516.159 203.8 516.849C202.53 517.539 201.01 517.309 200 516.279L194.77 510.919C194.49 510.629 194.1 510.509 193.72 510.589C193.33 510.659 193.01 510.919 192.86 511.279L191.13 515.329C190.62 516.519 189.49 517.259 188.21 517.259Z" fill="black"/>
<path d="M59.2984 437.086L44.9775 442L45.6267 443.892L59.9476 438.977L59.2984 437.086Z" fill="black"/>
<path d="M55.337 443.46L47.6377 449.873L48.9177 451.41L56.617 444.997L55.337 443.46Z" fill="black"/>
<path d="M61.0438 443.848L55.0586 459.246L56.9228 459.971L62.908 444.572L61.0438 443.848Z" fill="black"/>
<path d="M7.40002 398.979C7.18002 398.979 6.95004 398.959 6.73004 398.909L5 398.529L5.42999 396.579L7.16003 396.959C7.48003 397.029 7.81001 396.959 8.07001 396.779C8.34001 396.589 8.51005 396.309 8.55005 395.979L8.73004 394.579C8.85004 393.689 9.34002 392.889 10.08 392.379C10.82 391.869 11.75 391.709 12.62 391.919L16.06 392.769C16.43 392.859 16.81 392.769 17.09 392.519C17.38 392.269 17.5201 391.909 17.4901 391.529L17.32 389.609C17.23 388.589 17.62 387.609 18.39 386.939C19.16 386.269 20.18 386.009 21.18 386.249L23.43 386.779C23.8 386.869 24.17 386.769 24.46 386.519C24.74 386.269 24.89 385.909 24.85 385.529C24.74 384.429 25.2 383.379 26.08 382.709C26.96 382.039 28.1 381.879 29.13 382.279L31.71 383.269L30.9901 385.139L28.41 384.149C28.03 383.999 27.62 384.059 27.29 384.309C26.96 384.559 26.8 384.939 26.84 385.349C26.94 386.379 26.55 387.349 25.78 388.029C25.01 388.709 23.98 388.969 22.98 388.729L20.73 388.199C20.36 388.119 19.99 388.209 19.7 388.449C19.42 388.699 19.27 389.049 19.31 389.429L19.48 391.349C19.57 392.369 19.17 393.369 18.39 394.029C17.61 394.689 16.56 394.949 15.57 394.699L12.13 393.849C11.81 393.769 11.48 393.829 11.2 394.019C10.92 394.209 10.75 394.489 10.7 394.829L10.52 396.229C10.4 397.099 9.93001 397.889 9.20001 398.399C8.68001 398.779 8.05002 398.979 7.40002 398.979Z" fill="black"/>
<path d="M660.23 72.8784C660.2 72.8784 660.18 72.8784 660.15 72.8784C659.13 72.8484 658.25 72.2484 657.85 71.3184L656.23 67.5584C656.09 67.2384 655.81 67.1984 655.69 67.1984C655.69 67.1984 655.69 67.1984 655.68 67.1984C655.56 67.1984 655.27 67.2384 655.14 67.5684L653.33 72.0884L651.47 71.3484L653.28 66.8284C653.67 65.8484 654.6 65.2184 655.65 65.1984C655.66 65.1984 655.67 65.1984 655.68 65.1984C656.72 65.1984 657.65 65.8084 658.06 66.7584L659.68 70.5184C659.81 70.8284 660.09 70.8684 660.21 70.8784C660.32 70.8784 660.6 70.8584 660.75 70.5484L661.92 68.2084C662.31 67.4284 663.06 66.8984 663.92 66.7984C664.79 66.6884 665.64 67.0184 666.2 67.6884L668.13 69.9384C668.34 70.1784 668.6 70.1484 668.7 70.1284C668.8 70.1084 669.05 70.0284 669.14 69.7184L670.31 65.8084C670.57 64.9484 671.24 64.2884 672.12 64.0484C672.99 63.8084 673.91 64.0384 674.56 64.6584L678.34 68.1984C678.56 68.4084 678.82 68.3684 678.92 68.3284C679.02 68.2984 679.25 68.1984 679.32 67.8984L680.06 64.6984C680.27 63.8084 680.9 63.1084 681.77 62.8184C682.64 62.5284 683.57 62.7184 684.26 63.3084L686.97 65.6184C687.21 65.8184 687.46 65.7584 687.56 65.7184C687.66 65.6784 687.89 65.5684 687.94 65.2584L688.45 62.0884C688.6 61.1484 689.26 60.3684 690.16 60.0584C691.07 59.7484 692.06 59.9584 692.76 60.6084C693.02 60.8484 693.29 60.7584 693.4 60.7184C693.51 60.6684 693.75 60.5284 693.75 60.1784V57.8984H695.75V60.1784C695.75 61.2284 695.16 62.1284 694.2 62.5484C693.24 62.9684 692.17 62.7884 691.4 62.0784C691.17 61.8584 690.91 61.9184 690.81 61.9584C690.71 61.9884 690.47 62.1084 690.42 62.4184L689.91 65.5884C689.76 66.5184 689.14 67.2784 688.25 67.6084C687.36 67.9384 686.4 67.7684 685.68 67.1484L682.97 64.8384C682.74 64.6484 682.5 64.6984 682.4 64.7284C682.31 64.7584 682.08 64.8684 682.01 65.1584L681.27 68.3584C681.06 69.2684 680.4 69.9784 679.5 70.2584C678.6 70.5284 677.66 70.3084 676.97 69.6684L673.19 66.1284C672.97 65.9284 672.73 65.9684 672.63 65.9884C672.53 66.0184 672.3 66.1084 672.22 66.3884L671.05 70.2984C670.78 71.2084 670.03 71.8884 669.11 72.0884C668.18 72.2884 667.22 71.9584 666.61 71.2384L664.68 68.9884C664.49 68.7684 664.26 68.7784 664.16 68.7884C664.07 68.7984 663.83 68.8584 663.7 69.1084L662.53 71.4484C662.1 72.3284 661.22 72.8784 660.23 72.8784Z" fill="black"/>
<path d="M657.302 57.6767L656.294 59.4043L665.839 64.9713L666.847 63.2437L657.302 57.6767Z" fill="black"/>
<path d="M666.29 53.9977L665.319 55.7461L677.723 62.6368L678.695 60.8884L666.29 53.9977Z" fill="black"/>
<path d="M677.631 52.7692L676.774 54.5762L686.983 59.4194L687.841 57.6124L677.631 52.7692Z" fill="black"/>
<path d="M510.29 164.639C505.16 170.129 499.39 176.139 497.02 169.879C495.55 165.989 496.24 159.139 499.94 154.449C502.85 150.749 508.07 148.649 512.54 148.579C514.86 148.549 516.87 149.429 518.17 151.059C521.45 155.209 516.04 158.479 510.29 164.639Z" fill="#7697AB"/>
<path d="M175.12 466.109C175.19 462.519 175.33 458.539 178.08 459.999C179.79 460.909 183.08 468.119 179.31 472.529C178.6 473.359 177.55 473.619 176.6 473.449C174.19 473.029 175.04 470.129 175.12 466.109Z" fill="#7697AB"/>
<path d="M247.07 559.4C247.5 558.47 246.73 557.56 244.81 556.85C240.98 555.44 233.53 554.43 219.08 555.43C205.76 556.35 199.07 559.16 195.72 561.57C193.93 562.86 194.07 563.83 195.71 564.56C215.85 567.98 236.52 565.3 247.07 559.4Z" fill="black"/>
<path d="M449.18 204.639C447.59 204.639 445.64 203.779 443.57 202.119C441.29 200.299 437.76 197.449 434.87 195.129L436.13 193.569C439.02 195.899 442.54 198.739 444.82 200.559C446.95 202.269 449.02 203.029 449.97 202.449C450.83 201.929 451.03 200.159 450.54 197.579C449.95 194.499 450.1 192.029 451 190.219L452.79 191.109C452.31 192.079 451.87 193.919 452.5 197.199C453.19 200.799 452.69 203.139 451 204.159C450.47 204.479 449.85 204.639 449.18 204.639Z" fill="black"/>
<path d="M522.36 215.559L520.93 214.159L547.71 186.739C557.11 177.109 572.35 176.589 582.39 185.549L581.06 187.039C571.82 178.789 557.8 179.269 549.15 188.129L522.36 215.559Z" fill="black"/>
<path d="M582.028 220.576L554.856 247.879L556.274 249.29L583.446 221.987L582.028 220.576Z" fill="black"/>
<path d="M152 479.92L145.9 470.89C143.75 468.05 140.56 466.2 136.97 465.73C133.38 465.27 129.83 466.24 126.98 468.47L125.75 466.9C129.03 464.33 133.1 463.21 137.23 463.75C141.36 464.29 145.01 466.41 147.53 469.73L153.66 478.8L152 479.92Z" fill="black"/>
<path d="M185.389 528.312L184.205 551.602L186.202 551.703L187.387 528.414L185.389 528.312Z" fill="black"/>
<path d="M245.578 499.757L243.638 500.246L253.414 539.034L255.354 538.545L245.578 499.757Z" fill="black"/>
<path d="M584.339 549.99L516.01 613.056C504.929 623.287 499.725 638.406 502.174 653.29L517.559 744.774C518.196 748.649 516.124 752.46 512.528 754.031L498.743 760.049C489.071 764.267 484.337 775.265 487.917 785.189L490.728 792.968C492.283 797.28 496.662 799.888 501.196 799.203L576.71 787.77C581.714 787.008 585.269 782.498 584.836 777.455L574.722 647.612L647.428 587.439L584.339 549.99Z" fill="#0B1B7D"/>
<path d="M500.367 523.347L495.884 505.72L542.714 475.384L571.308 549.164L500.367 523.347Z" fill="#0B1B7D"/>
<path d="M470.673 494.449C470.673 494.449 466.31 478.03 461.173 471.12C454.344 461.925 441.648 442.34 436.39 447.519C433.185 450.669 438.448 460.171 440.73 464.239C441.634 465.845 442.094 467.68 441.913 469.517C441.657 472.134 440.098 474.204 433.803 467.758C423.547 457.252 407.484 434.366 403.666 443.467C401.735 448.081 418.511 467.27 415.894 467.782C413.277 468.295 390.981 437.107 385.117 446.536C383.18 449.65 394.568 464.017 401.155 471.893C401.524 472.33 400.919 472.917 400.486 472.537C395.723 468.345 388.7 462.301 384.213 459.025C379.383 455.493 377.691 460.407 380.134 463.768C385.39 471.001 397.685 485.341 397.685 485.341L470.673 494.449Z" fill="#0B1B7D"/>
<path d="M616.269 451.521L644.187 463.865L682.836 577.887C686.975 589.29 680.463 603.013 669.606 608.439L629.362 631.368C624.001 634.043 624.068 637.742 629.045 641.072L698.706 703.136C706.825 708.573 708.523 719.803 702.37 727.401L657.721 782.48C653.396 787.812 645.313 787.959 640.804 782.783L623.783 766.067C622.596 764.709 617.943 759.175 619.53 754.421C621.849 747.472 625.923 737.144 625.923 737.144C627.482 733.916 624.765 729.627 621.982 727.376L541.439 660.809C528.695 650.501 529.452 634.783 540.951 623.099C555.482 608.33 578.531 582.106 578.531 582.106L534.389 496.55C531.499 489.313 534.102 481.032 540.625 476.754L559.354 464.46L616.269 451.521Z" fill="#FF4C2C"/>
<path d="M594.449 436.456C586.63 417.781 565.152 408.982 546.477 416.801C527.803 424.62 519.003 446.098 526.823 464.773C534.642 483.447 556.12 492.247 574.794 484.428C593.469 476.608 602.269 455.13 594.449 436.456Z" fill="#FF4C2C"/>
<path d="M291.031 645.915L324.792 485.146C326.534 476.838 334.246 471.792 342.661 470.697C359.678 468.489 389.214 465.184 422.532 471.835C450.508 477.422 496.081 485.452 515.718 506.014C517.967 508.369 518.96 511.648 518.511 514.869C511.085 567.835 491.627 669.587 489.028 680.381C482.881 705.933 418.299 705.264 374.218 694.855C355.811 690.515 287.102 666.771 291.031 645.915Z" fill="white"/>
<path d="M636.009 445.512C620.318 443.156 605.071 455.057 601.434 470.332L589.873 526.314C589.131 529.232 586.179 531.008 583.255 530.302L538.46 519.59C531.242 517.857 524.761 513.893 519.934 508.264L511.215 498.105C510.622 497.42 509.929 496.828 509.149 496.364L496.474 488.206C494.731 487.083 492.483 488.422 492.588 490.493C492.735 493.302 494.147 496.665 496.22 499.517C500.224 505.028 505.845 510.039 503.778 511.541C501.023 513.543 493.816 510.506 488.723 506.439C482.868 501.757 478.68 497.674 473.966 497.141C471.834 496.901 470.114 499.33 471.18 501.535C473.624 506.622 480.715 514.395 484.28 519.141C485.302 520.504 484.049 521.373 482.453 519.974C477.52 515.633 462.825 502.09 462.825 502.09C460.806 500.368 457.751 502.219 458.359 504.809C460.116 512.238 470.01 523.985 473.793 528.278C474.13 528.655 473.699 529.22 473.252 528.997C470.54 527.684 465.434 524.931 460.066 520.601C458.871 519.637 457.042 520.567 457.221 522.089C457.784 526.701 464.416 533.872 467.247 536.74C467.516 537.008 467.203 537.446 466.861 537.295C465.058 536.479 463.495 535.604 461.741 534.479C459.472 533.022 458.616 535.423 459.408 536.816C462.084 541.513 466.352 547.907 473.985 554.529C476.741 556.916 485.421 563.776 505.673 568.86L610.094 590.874C629.938 596.453 640.67 583.38 644.096 572.48C652.684 545.186 662.352 486.296 662.352 486.296C667.403 465.783 650.021 447.614 636.009 445.512Z" fill="#FF4C2C"/>
<path d="M391.957 653.803C330.513 641.969 304.741 644.413 295.222 649.826C293.112 651.022 292.531 653.771 293.971 655.724C307.16 673.656 358.661 691.189 374.221 694.871C409.732 703.266 458.567 705.326 479.414 692.44C481.009 691.448 481.279 689.242 480.016 687.865C471.138 678.169 448.602 664.714 391.957 653.803Z" fill="#FEC3B5"/>
<path d="M428.97 505.769L405.511 504.153C401.832 503.9 398.218 505.169 395.516 507.68C384.733 517.684 356.863 544.285 350.644 557.499C348.339 562.395 346.719 577.636 346.719 577.636C345.977 582.944 349.552 587.893 354.832 588.857L389.012 596.029C391.384 596.526 393.723 595.079 394.337 592.738L400.471 569.312C401.135 566.777 399.518 564.204 396.94 563.699L391.515 562.651C389.465 562.394 388.543 559.937 389.927 558.395L431.52 512.001C433.576 509.674 432.082 505.981 428.97 505.769ZM421.782 543.636C418.191 543.677 415.137 545.675 414.247 549.143L395.943 620.225C394.839 624.5 398.687 630.157 402.989 631.167C406.328 631.952 413.023 633.487 416.355 634.35C422.516 635.946 427.979 632.166 428.87 627.844L433.043 607.601C433.425 605.765 435.211 604.572 437.051 604.931L441.711 605.839C444.976 606.435 448.104 604.309 448.753 601.058L453.238 578.535C454.084 574.268 451.142 570.174 446.82 569.631L444.698 569.362C442.719 569.116 441.367 567.225 441.772 565.278L443.895 554.988C444.685 551.15 442.039 545.757 437.057 545.114C437.064 545.109 426.434 543.592 421.782 543.636Z" fill="#2549D9"/>
<path d="M302.696 655.331C303.012 647.48 361.43 654.66 381.976 658.119C417.136 664.032 475.428 682.567 469.712 689.563C466.151 693.919 427.837 698.457 375.477 686.853C335.634 678.017 302.502 660.178 302.696 655.331Z" fill="black"/>
<path d="M641.619 531.353C641.447 531.478 641.27 531.597 641.076 531.706C639.543 532.61 637.749 532.85 636.036 532.39L607.8 524.751C604.444 523.842 602.381 520.467 603.09 517.068L608.721 490.312C609.092 488.548 610.133 487.054 611.654 486.106C613.183 485.154 614.977 484.871 616.72 485.299L646.028 492.602C649.535 493.474 651.672 497.037 650.807 500.54L644.106 527.62C643.743 529.147 642.866 530.447 641.619 531.353ZM604.766 517.418C604.239 519.938 605.765 522.429 608.249 523.109L636.485 530.748C637.754 531.089 639.08 530.915 640.216 530.247C641.352 529.579 642.149 528.505 642.467 527.232L649.167 500.152C649.809 497.559 648.221 494.924 645.629 494.27L616.322 486.967C615.032 486.641 613.694 486.856 612.569 487.568C611.444 488.28 610.666 489.382 610.4 490.681L604.766 517.418Z" fill="black"/>
<path d="M537.043 557.97L535.343 557.89L536.025 542.562C536.064 541.66 535.471 541.175 534.897 541.024C534.324 540.872 533.565 541.002 533.151 541.808L527.679 552.659C526.961 554.076 525.46 554.734 523.935 554.316C522.41 553.898 521.472 552.548 521.587 550.97L522.692 536.135C522.758 535.213 522.155 534.715 521.576 534.556C520.991 534.403 520.222 534.519 519.816 535.351L505.619 563.195L504.101 562.425L518.292 534.585C518.986 533.165 520.495 532.489 522.02 532.908C523.557 533.328 524.502 534.672 524.392 536.258L523.287 551.092C523.216 552.008 523.813 552.511 524.391 552.669C524.969 552.828 525.738 552.712 526.154 551.893L531.62 541.048C532.322 539.653 533.805 538.985 535.31 539.376C536.815 539.767 537.783 541.084 537.714 542.64L537.043 557.97Z" fill="black"/>
<path d="M584.926 544.999L594.575 579.42L596.215 578.96L586.566 544.539L584.926 544.999Z" fill="black"/>
<path d="M604.981 539.426L604.014 540.828L639.557 565.352L640.525 563.95L604.981 539.426Z" fill="black"/>
<path d="M621.079 562.586L619.862 563.777L634.027 578.238L635.243 577.046L621.079 562.586Z" fill="black"/>
<path d="M601.039 567.606L607.994 582.385L609.535 581.66L602.58 566.881L601.039 567.606Z" fill="black"/>
<path d="M615.541 650.78L615.461 650.828L572.797 674.948L571.96 673.462L614.577 649.366C615.517 648.661 615.558 647.631 615.29 646.9C615.017 646.162 614.289 645.406 613.088 645.521L552.212 657.064C550.189 657.25 548.512 656.058 548.043 654.167C547.574 652.276 548.507 650.43 550.306 649.691L592.07 631.562C593.284 631.059 593.525 629.958 593.365 629.158C593.208 628.377 592.59 627.469 591.34 627.429L550.405 634.429L550.122 632.751L591.281 625.725C593.456 625.734 594.734 627.29 595.039 628.826C595.345 630.362 594.754 632.286 592.743 633.126L550.979 651.255C549.708 651.779 549.501 652.929 549.705 653.76C549.904 654.584 550.624 655.502 551.978 655.381L612.854 643.838C614.71 643.668 616.257 644.639 616.89 646.306C617.508 647.983 616.981 649.734 615.541 650.78Z" fill="black"/>
<path d="M645.808 779.167L644.15 779.55L642.654 773.059C642.292 771.49 642.652 769.87 643.646 768.601C644.639 767.332 646.127 766.598 647.74 766.573L651.052 766.524C652.207 766.505 653.256 765.964 653.925 765.015C654.598 764.073 654.77 762.906 654.414 761.807L653.937 760.354C653.388 758.7 653.7 756.884 654.748 755.501C655.796 754.119 657.468 753.335 659.199 753.414L662.711 753.567C663.916 753.618 665.022 753.098 665.742 752.133C666.467 751.175 666.659 749.961 666.272 748.821L665.507 746.566C664.947 744.911 665.213 743.148 666.253 741.74C667.288 740.325 668.887 739.542 670.638 739.575L674.6 739.654C675.797 739.678 676.888 739.138 677.591 738.164C678.294 737.19 678.46 735.985 678.06 734.855L676.65 730.9C676.034 729.169 676.345 727.28 677.483 725.832C678.618 724.396 680.394 723.653 682.222 723.851L685.631 724.226C686.902 724.366 688.131 723.841 688.898 722.811C689.669 721.787 689.836 720.466 689.353 719.28C688.627 717.513 688.883 715.548 690.055 714.032C691.221 712.522 693.048 711.763 694.947 712.014L700.351 712.729L700.126 714.419L694.722 713.704C693.432 713.536 692.193 714.047 691.402 715.075C690.612 716.102 690.432 717.433 690.93 718.639C691.653 720.388 691.4 722.329 690.265 723.838C689.13 725.347 687.33 726.129 685.449 725.917L682.04 725.541C680.8 725.4 679.599 725.905 678.828 726.886C678.057 727.868 677.841 729.15 678.26 730.32L679.67 734.274C680.252 735.915 679.994 737.733 678.978 739.146C677.955 740.563 676.308 741.381 674.569 741.35L670.607 741.271C669.422 741.248 668.337 741.784 667.631 742.739C666.925 743.694 666.742 744.89 667.125 746.012L667.89 748.266C668.451 749.922 668.156 751.747 667.112 753.148C666.062 754.543 664.394 755.333 662.644 755.258L659.133 755.104C657.934 755.049 656.835 755.563 656.11 756.522C655.385 757.48 655.183 758.679 655.558 759.818L656.035 761.271C656.571 762.892 656.305 764.612 655.317 766.004C654.328 767.396 652.786 768.2 651.076 768.222L647.764 768.271C646.67 768.287 645.665 768.786 644.986 769.648C644.314 770.505 644.065 771.612 644.311 772.675L645.808 779.167Z" fill="black"/>
<path d="M575.986 777.749L574.608 778.751L569.807 772.144C569.146 771.235 568.087 770.763 566.973 770.867C565.86 770.971 564.906 771.643 564.429 772.653L562.682 776.375C561.946 777.941 560.477 778.977 558.758 779.132C557.037 779.298 555.404 778.558 554.388 777.16L552.736 774.886C552.111 774.025 551.136 773.554 550.07 773.593C549.003 773.631 548.068 774.184 547.521 775.097L544.917 779.379C544.075 780.77 542.602 781.64 540.983 781.701C539.357 781.767 537.817 781.023 536.865 779.714L536.32 778.964C535.694 778.102 534.732 777.633 533.665 777.672C532.598 777.71 531.665 778.251 531.113 779.158L528.597 783.228C527.745 784.605 526.275 785.463 524.662 785.519C523.043 785.58 521.515 784.838 520.564 783.529C519.933 782.661 518.959 782.19 517.89 782.24C516.816 782.284 515.886 782.844 515.34 783.757L513.413 786.957C512.668 788.193 511.428 789.021 510.009 789.241C508.59 789.462 507.155 789.052 506.075 788.1L504.575 786.79C503.862 786.171 502.929 785.902 502.009 786.055C501.077 786.206 500.276 786.756 499.806 787.572L496.437 793.336L494.97 792.476L498.339 786.711C499.073 785.462 500.312 784.604 501.745 784.373C503.177 784.143 504.624 784.554 505.717 785.508L507.216 786.818C507.917 787.435 508.845 787.698 509.764 787.556C510.682 787.415 511.487 786.872 511.973 786.077L513.9 782.877C514.737 781.479 516.21 780.609 517.843 780.538C519.468 780.472 521.009 781.216 521.965 782.532C522.591 783.393 523.553 783.862 524.62 783.824C525.687 783.785 526.608 783.242 527.172 782.338L529.687 778.267C530.539 776.89 532.01 776.032 533.623 775.976C535.242 775.915 536.77 776.657 537.721 777.966L538.267 778.717C538.893 779.578 539.867 780.049 540.934 780.011C542 779.972 542.935 779.419 543.482 778.506L546.086 774.224C546.933 772.84 548.406 771.97 550.02 771.902C551.646 771.836 553.18 772.585 554.131 773.894L555.783 776.167C556.444 777.077 557.503 777.549 558.617 777.445C559.73 777.341 560.684 776.669 561.161 775.659L562.909 771.936C563.644 770.37 565.113 769.335 566.832 769.18C568.553 769.013 570.186 769.754 571.202 771.152L575.993 777.744L575.986 777.749Z" fill="black"/>
<path d="M577.417 453.987C578.561 468.946 565.55 486.675 549.228 481.568C531.088 475.886 518.548 444.883 536.828 429.914C540.997 426.495 546.373 424.768 551.866 425.113C565.814 425.998 576.134 437.214 577.417 453.987Z" fill="black"/>
<path d="M545.714 456.118C548.634 465.06 551.764 475.017 545.412 473.359C541.46 472.325 535.721 467.107 532.97 460.179C530.804 454.721 530.888 447.913 532.478 443.22C533.302 440.79 534.817 439.268 536.718 439.002C541.565 438.312 542.437 446.089 545.714 456.118Z" fill="#7697AB"/>
<path d="M481.861 520.637C476.981 516.341 462.36 502.871 462.211 502.737L463.366 501.488C463.515 501.621 478.114 515.076 482.984 519.358L481.861 520.637Z" fill="black"/>
<path d="M497.041 512.166C494.125 511.137 490.893 509.296 488.176 507.123C487.224 506.363 486.312 505.615 485.439 504.891C481.036 501.28 477.556 498.419 473.855 498.004L474.044 496.309C478.249 496.779 481.902 499.777 486.52 503.569C487.388 504.285 488.295 505.026 489.242 505.78C491.824 507.841 494.871 509.585 497.614 510.549L497.041 512.166Z" fill="black"/>
<path d="M503.808 507.73L502.4 508.69C501.648 507.583 500.519 506.246 499.329 504.827C498.109 503.365 496.724 501.72 495.502 500.039C493.275 496.973 491.86 493.433 491.706 490.556L493.409 490.465C493.545 493.029 494.838 496.227 496.88 499.038C498.062 500.663 499.368 502.23 500.63 503.734C501.851 505.183 503.006 506.555 503.808 507.73Z" fill="black"/>
<path d="M588.257 530.089C586.797 531.15 584.912 531.583 583.043 531.141L561.832 526.071L562.228 524.414L583.439 529.485C585.9 530.075 588.413 528.565 589.039 526.11L600.595 470.164C601.302 467.197 602.434 464.322 603.967 461.608L605.45 462.446C603.994 465.02 602.922 467.746 602.255 470.536L590.698 526.494C590.314 527.994 589.421 529.243 588.257 530.089Z" fill="black"/>
<path d="M634.078 588.361C628.188 592.641 620.134 594.61 609.839 591.712L586.022 586.693L586.371 585.029L610.247 590.058C628.848 595.288 639.653 583.72 643.261 572.245C646.147 563.064 649.468 549.324 653.128 531.401L654.799 531.744C651.125 549.72 647.787 563.524 644.887 572.758C643.043 578.593 639.465 584.446 634.078 588.361Z" fill="black"/>
<path d="M466.48 538.09C464.739 537.303 463.129 536.42 461.253 535.215L462.181 533.783C464.001 534.955 465.498 535.783 467.183 536.537L466.48 538.09Z" fill="black"/>
<path d="M472.843 529.782C470.21 528.506 464.972 525.702 459.489 521.286L460.558 519.962C465.905 524.277 471.014 527.006 473.579 528.247L472.843 529.782Z" fill="black"/>
<path d="M582.624 480.909C571.485 489.004 556.842 490.35 544.406 484.419L545.137 482.877C557.008 488.535 570.994 487.256 581.623 479.531L582.624 480.909Z" fill="black"/>
</svg>
