<?xml version="1.0" encoding="utf-8"?>
<!-- Generator: Adobe Illustrator 22.0.1, SVG Export Plug-In . SVG Version: 6.00 Build 0)  -->
<svg version="1.1" id="圖層_1" xmlns="http://www.w3.org/2000/svg" xmlns:xlink="http://www.w3.org/1999/xlink" x="0px" y="0px"
	 viewBox="0 0 656 732" style="enable-background:new 0 0 656 732;" xml:space="preserve">
<style type="text/css">
	.st0{fill:#FFFFFF;}
	.st1{fill:#FF4C2C;}
	.st2{fill:#FFE8D4;}
	.st3{fill:#FFA780;}
	.st4{fill:#FFE8D4;stroke:#FF4C2C;stroke-width:1.0942;stroke-linecap:round;stroke-linejoin:round;}
	.st5{fill:none;stroke:#FF4C2C;stroke-width:1.0942;stroke-linecap:round;stroke-linejoin:round;}
	.st6{fill:#FFFFFF;stroke:#FF4C2C;stroke-width:1.0942;}
</style>
<path class="st0" d="M322.8,304.3c-0.8-2.5-8.6-25.1-23.5-67.8c-3.7-10.7-14.6-17.2-25.8-15.3c-0.8,0.1-1.1,0.2-1.1,0.2
	c-12.8,3.9-20.6,17-18,30.1l13.5,67.2"/>
<path class="st1" d="M272.6,221.7l1.1-0.2c10.9-1.8,21.6,4.5,25.2,15c14.9,42.7,22.8,65.4,23.5,67.8c0.1,0.3,0.4,0.5,0.7,0.4
	s0.5-0.4,0.4-0.7c-0.8-2.5-8.6-25.1-23.5-67.8c-3.8-11-15-17.6-26.4-15.7l-1.1,0.2h-0.1c-13.1,4-21.1,17.3-18.4,30.8l13.5,67.2
	c0.1,0.3,0.3,0.5,0.6,0.4s0.5-0.3,0.4-0.6L255,251.3C252.5,238.3,260.1,225.6,272.6,221.7z"/>
<path class="st0" d="M329,295.5l-10.9-44.7c-1-4.3-5.4-6.9-9.7-5.9c-0.3,0.1-0.7,0.2-1,0.3c-5.1,1.9-8.3,6.9-8.1,12.4l2.4,48.4
	L329,295.5z"/>
<path class="st1" d="M329.5,295.6c0.3-0.1,0.4-0.4,0.3-0.6l-10.9-44.7c-1.1-4.6-5.8-7.4-10.3-6.3c-0.4,0.1-0.7,0.2-1,0.3
	c-5.3,2-8.7,7.2-8.4,12.9l2.5,48.4c0,0.4,0.4,0.6,0.7,0.5L329.5,295.6z M328.7,294.7l-26,10l-2.4-47.6c-0.3-5.2,2.8-10,7.7-11.8
	c0.3-0.1,0.6-0.2,0.9-0.3c4-1,8.1,1.5,9,5.5L328.7,294.7z"/>
<path class="st2" d="M234,451.9l45.5-36.9c5.2-4.2,7.5-10.9,6.1-17.4l-17.7-79.4l60.3-23.1l26,99.5c4.6,17.5,1.3,36.2-8.9,51.2
	l-43.5,63.7L234,451.9z"/>
<path class="st3" d="M351.9,385.6c-9.5,11.2-15.4,22-17.6,32.5c-2.2,10.5-2,24.9,0.5,43.2c2.4-3.7,4.5-6.8,6.2-9.4
	c7-10.5,12-19.5,13.7-28.3C357.2,411.4,356.2,398.8,351.9,385.6z"/>
<path class="st1" d="M284.8,406.3L284.8,406.3L284.8,406.3c0.9-2.8,1-5.8,0.3-8.7l-17.7-79.3c-0.1-0.3,0.1-0.5,0.3-0.6l60.3-23.1
	c0.3-0.1,0.6,0.1,0.7,0.4l11.3,43.2c0.1,0.1,0.2,0.2,0.2,0.3c0,0.1,0,0.3-0.1,0.4l14.5,55.5c4.6,17.7,1.3,36.6-9,51.7l-43.2,63.2
	c-0.1,0.2-0.4,0.3-0.6,0.2c-10.7-3.6-20.7-9.6-30.1-17.9c-9.3-8.3-21.5-22-36.5-41.2c-0.2-0.2-0.1-0.6,0.1-0.8l43.9-35.1
	C281.9,412.4,283.8,409.5,284.8,406.3z M250.5,439l-14,11.2c14.8,18.9,26.9,32.4,36.1,40.6c9.1,8.1,18.9,14,29.3,17.6l11-16.1
	L250.5,439z M251.3,438.3l62.1,53.1l31.4-45.9c10.2-14.9,13.4-33.4,8.8-50.8l-14.4-55.3l-62,17.6l0,0l9,40.4
	c0.7,2.9,0.6,5.9-0.2,8.7l45.5,11.9c0.3,0.1,0.5,0.4,0.4,0.7s-0.4,0.5-0.7,0.4l-45.5-11.9c-1.1,3.2-3.1,6.1-5.8,8.3L251.3,438.3z
	 M277,355.9l62-17.6l-11.1-42.5l-59.3,22.7L277,355.9z"/>
<path class="st3" d="M144.4,498.4c0,0-12.7,14.4-38.1,43.1l23.1,19.6l30.4-43.3C149.5,504.9,144.4,498.4,144.4,498.4z"/>
<path class="st0" d="M503.7,489.9L463,413.3l4.2-4.3l9.1-39.4l3.4-2.5c1.2-0.8,2.3-1.2,3.1-1.2c0.8,0.1,2.1,0.6,3.8,1.7l36.6,95.3
	c-0.1,2.1-0.3,3.6-0.6,4.5s-1.1,2-2.3,3.2L503.7,489.9z M439.9,595.6l55.6-48.7l6.5,7.7l46.4-5.3l2.9,2.4c0.5,2.4,0.6,4.2,0.5,5.3
	c-0.2,1.1-0.8,2.5-1.9,4.2l-80.2,54.6c-1.8,0.9-3.3,1.2-4.7,1s-3-1-4.8-2.4L439.9,595.6z"/>
<path class="st1" d="M143.8,498.2l-38.1,43.1c-0.2,0.2-0.2,0.6,0.1,0.8l23,19.6c0.2,0.2,0.6,0.2,0.8-0.1l30.4-43.3
	c0.1-0.2,0.1-0.5,0-0.7l-15.3-19.5C144.4,497.9,144,497.9,143.8,498.2z M158.8,518L129,560.5l-22.2-18.9l37.3-42.2L158.8,518z"/>
<path class="st2" d="M322.9,526.8l0.4,1.1L242,455.5l-55.3,53.3c16.7,39.8,32.6,64.5,47.8,73.9c15.1,9.4,34.6,6.8,58.4-7.9
	l37.1-14.2L322.9,526.8z"/>
<path class="st1" d="M323.5,526.6l0.4,1c0.1,0.2,0,0.4-0.1,0.5l6.7,32.1c0.1,0.3-0.1,0.5-0.3,0.6L293.1,575
	c-23.9,14.8-43.6,17.4-58.9,7.9c-15.3-9.5-31.2-34.2-48-74.1c-0.1-0.2,0-0.4,0.1-0.6l55.3-53.3c0.2-0.2,0.5-0.2,0.7,0l80.1,71.3
	C322.9,526.1,323.4,526.1,323.5,526.6z M323.7,527.5L323.7,527.5l-0.1-0.2C323.6,527.3,323.7,527.4,323.7,527.5z M242.1,456.2
	l-54.7,52.7c16.6,39.5,32.4,64,47.4,73.3c14.9,9.3,34.2,6.7,57.8-7.9h0.1l36.7-14.1l-6.7-32.1L242.1,456.2z"/>
<path class="st3" d="M302.2,509.4l5.9,5.2c-7.3,12.3-13.4,21.2-18.2,26.9s-10.4,11.3-16.6,16.9l-6.8-5.6c5.5-5.4,10.7-11,15.4-16.9
	C286.6,530.1,293.4,521.2,302.2,509.4z"/>
<path class="st3" d="M375.4,640.3l127.8-149.4l-39.8-77.4L333.6,553.6"/>
<path class="st1" d="M301.6,508.7c-8.9,12.7-15.9,22.1-21.1,28.4c-5.2,6.2-10.3,11.5-15.4,15.6c-0.2,0.2-0.3,0.5-0.1,0.8
	c0.2,0.2,0.5,0.3,0.8,0.1c5.1-4.2,10.3-9.5,15.5-15.8s12.3-15.8,21.2-28.5c0.2-0.2,0.1-0.6-0.1-0.8
	C302.1,508.4,301.8,508.5,301.6,508.7z"/>
<path class="st1" d="M307.8,514.2c-7.9,12.7-15.1,22.9-21.7,30.5c-6.6,7.6-11.3,12.2-14.1,13.5c-0.3,0.1-0.4,0.5-0.2,0.7
	c0.1,0.3,0.5,0.4,0.7,0.3c3-1.5,7.8-6.1,14.5-13.8c6.6-7.7,13.9-17.9,21.8-30.7c0.2-0.3,0.1-0.6-0.2-0.8
	C308.3,513.8,308,513.9,307.8,514.2z"/>
<path class="st1" d="M502.7,490.5L502.7,490.5l-39.5-76.4L333.7,554c-0.2,0.2-0.6,0.2-0.8,0s-0.2-0.6,0-0.8l133.3-144l9.1-39.1
	c0.3-1.4,1.3-2.5,2.6-3c0.5-0.2,1-0.3,1.4-0.3c0-0.1,0-0.1,0.1-0.2c0.1-0.3,0.3-0.6,0.6-0.7c0.3-0.2,0.6-0.3,0.9-0.5
	c2.6-1,5.6,0.3,6.6,2.9l35.2,91.4c1.5,3.9,1,8.6-2.4,10.9v0.1c0.1,0.2,0,0.4-0.1,0.5L375.6,640.7c-0.2,0.2-0.5,0.3-0.8,0.1
	c-0.2-0.2-0.3-0.5-0.1-0.8L502.7,490.5z M503.4,489.6l15.9-18.6l-37.1-100.9c-0.6-1.6-2.4-2.4-4-1.8c-1,0.4-1.7,1.2-2,2.2l-9.2,39.2
	c0,0.1-0.1,0.2-0.1,0.2l-3.2,3.5c0.1,0,0.2,0.1,0.2,0.2L503.4,489.6z M480.7,367.1c1.2,0.4,2.2,1.3,2.7,2.6l36.8,100.1
	c2.8-2.2,3-6.1,1.7-9.5l-35.2-91.4c-0.8-2.1-3.1-3.1-5.2-2.3c-0.2,0.1-0.5,0.2-0.7,0.4C480.7,367,480.7,367.1,480.7,367.1z"/>
<path class="st2" d="M208.3,589.6l16,26.3l65.1,53.6c17.1,14.1,42,13.7,58.6-0.9l11.7-10.2c11.2-9.9,19.2-22.9,22.8-37.4l15.8-64
	l41.6,38.7l55.6-48.7l-86.8-90.1c-9.5-9.9-24-13.1-36.8-8.2c-13.5,5.2-24.4,15.5-30.4,28.7l-37.6,84.1"/>
<path class="st3" d="M340,480.8c14.1,4.2,27.8,5.9,41,5s25.9-6.7,38.2-17.4c-7.2-9.4-13.6-15.4-19-18.1c-6.5-3.2-16.7-4.4-22.1-3.6
	c-7,1-18.3,7.3-26.1,15.5C348.3,466.1,344.3,472.3,340,480.8z"/>
<path class="st1" d="M550.6,550.7l0.2-0.1l0,0c2.7,4,1.7,9.5-2.2,12.2l-77.2,53.1c-3.5,2.4-8.1,2.2-11.3-0.6c-0.2,0-0.4,0-0.5-0.1
	l-60.9-57.4l-15.5,63.1c-3.6,14.6-11.6,27.8-22.9,37.7l-11.9,10.3c-16.9,14.8-42,15.2-59.4,0.9l-65.1-53.6l-0.1-0.1l-16-26.3
	c-0.2-0.3-0.1-0.6,0.2-0.8s0.6-0.1,0.8,0.2l16,26.2l65,53.6c16.9,13.9,41.5,13.6,57.9-0.9l11.7-10.2c11.2-9.8,19-22.7,22.6-37.1
	l15.8-64c0.1-0.4,0.6-0.6,0.9-0.3l41,38.6l54.9-48.1l-73.3-76.2c-18.5,19.8-45.9,24.2-82.2,13.3l-34.7,77.6
	c-0.1,0.3-0.4,0.4-0.7,0.3c-0.3-0.1-0.4-0.4-0.3-0.7l37.7-84.1c6-13.3,17-23.8,30.7-29c13-5,27.7-1.7,37.4,8.3l86.5,90
	c0.1,0,0.2,0.1,0.3,0.2c0.1,0.1,0.1,0.2,0.1,0.2l6.4,6.7l43.9-5.2c1.6-0.2,3.1,0.5,4,1.8C550.4,550.3,550.5,550.5,550.6,550.7z
	 M550.9,553.3c-0.2,1-0.8,2-1.8,2.6L461,614.8c2.8,2.2,6.8,2.3,9.7,0.3l77.2-53.1C550.8,559.9,551.9,556.4,550.9,553.3z
	 M440.5,595.8l19.5,18.3l88.6-59.2c1.4-1,1.8-2.9,0.9-4.3c-0.7-1-1.8-1.5-2.9-1.4l-44.2,5.3c-0.2,0-0.3,0-0.5-0.2l-6.5-6.7
	L440.5,595.8z M420.6,469.9l-12.3-12.8c-9.3-9.7-23.6-12.9-36.2-8.1c-13.4,5.1-24.2,15.4-30.1,28.4l-2.5,5.5
	C375.5,493.8,402.5,489.4,420.6,469.9z"/>
<path class="st2" d="M198.6,464.4l-96.2,130.2c-21.9,29.6-18.2,70.9,8.5,96.2l16.5,15.6c29.2,27.7,75.4,26.5,103.1-2.7
	c1.5-1.6,2.9-3.2,4.2-4.9l45.1-56.8c8.4-10.6,13.7-23.3,15.3-36.7l0.2-1.6c1.7-13.9-3.4-27.7-13.7-37.2L256.2,543
	c-15.2,24-22.4,39.3-21.9,45.9c0.5,5.9-12.6,23.5-39.3,52.8c-5.8,6.4-15.5,7.2-22.3,1.9c-5.5-4.2-6.5-12.1-2.2-17.6
	c0.5-0.6,1-1.2,1.6-1.7l53.2-46.8"/>
<path class="st3" d="M107.9,688.2c3.5,4.1,16.7,16.2,21.3,19.9c4.9,3.9,9.9,7.5,15.8,10.7c5.9,3.2,13.1,5.7,22.9,6.8
	c3.3,0.4,6.8,0.7,10.6,1c-9-17.1-16.2-28.7-21.5-34.7c-4.3-4.9-8.7-9.8-13.6-13.1c-12.3-8.3-29.5-14.8-51.7-19.6
	C93,667.6,98.4,677.2,107.9,688.2z"/>
<path class="st0" d="M234.1,581.6l4.1,8.6c14.1,12.4,22.8,19.8,25.9,22.3c3.3,2.6,10.4,9.5,21.4,20.5c4.4-8.2,7.4-16.1,8.9-23.7
	s1.5-14.6,0.1-21.1c-2.2-8.5-8-16.8-17.4-25c-4.7-4.1-11.9-11-21.7-21c-11.8,13.5-19.7,24-23.5,31.3
	C227.9,580.8,228.7,583.5,234.1,581.6z"/>
<path class="st1" d="M280.8,566.8c10.1,9.4,15.2,23.1,13.5,36.8l-0.2,1.6c-1.6,13.3-6.8,25.9-15.2,36.4l-45.2,57
	c-1.3,1.6-2.6,3.2-4,4.7c-27.4,29.1-73.3,30.4-102.3,3l-15.8-14.9c-26.4-24.9-30.3-65.6-9-95.1L197,465.5c0.2-0.2,0.1-0.6-0.1-0.8
	c-0.2-0.2-0.6-0.1-0.8,0.1l-94.4,130.8c-21.6,29.9-17.7,71.2,9.2,96.5l15.8,14.9c29.5,27.8,76,26.5,103.9-3c1.4-1.5,2.8-3.1,4.1-4.7
	l45.2-57c8.5-10.7,13.8-23.4,15.4-36.9l0.2-1.6c1.7-14.1-3.5-28.1-13.9-37.7l-25.4-23.5c-0.2-0.2-0.6-0.2-0.8,0
	c-14,14.1-22.2,23.8-24.7,29.1c-1.1,2.4-1.3,5-0.6,7.9c0.4,1.8,0.9,3.2,2,5.8c1,2.2,1.2,2.9,1.3,3.6c0.5,5.7-12.6,23.3-39.2,52.4
	c-5.6,6.1-15,6.9-21.6,1.8c-5.1-4-6.1-11.4-2.1-16.5c0.5-0.6,1-1.2,1.7-1.7l55.8-47.7c0.2-0.2,0.3-0.5,0.1-0.8
	c-0.2-0.2-0.5-0.3-0.8-0.1l-55.9,47.5c-0.7,0.6-1.3,1.2-1.8,1.9c-4.4,5.6-3.3,13.7,2.3,18.1c7,5.4,17.1,4.6,23-2
	c26.9-29.5,40-47.1,39.5-53.2c-0.1-0.9-0.3-1.6-1.4-4c-1.1-2.5-1.6-3.9-2-5.6c-0.6-2.6-0.4-5,0.6-7.2c2.3-5.1,10.4-14.6,24.1-28.4
	L280.8,566.8z"/>
<path class="st4" d="M242.1,455.4c-22-21.9-35.9-36.7-41.7-44.5c-18.6-25.2-33.5-47.7-62.6-36.5s-43.6,43.8-32.5,72.9
	c3.2,8.3,20.5,32.1,52,71.5c21.1-8.2,37.7-15.8,50-22.8C219.7,489,231.3,475.5,242.1,455.4z"/>
<path class="st2" d="M242,455.3c-22-21.9-35.9-36.7-41.7-44.5c-18.6-25.2-33.5-47.7-62.6-36.5s-43.6,43.8-32.5,72.9
	c3.2,8.3,20.5,32.1,52,71.5c21.1-8.2,37.7-15.8,50-22.8C219.6,489,231.1,475.4,242,455.3z"/>
<path class="st5" d="M242,455.3c-22-21.9-35.9-36.7-41.7-44.5c-18.6-25.2-33.5-47.7-62.6-36.5s-43.6,43.8-32.5,72.9
	c3.2,8.3,20.5,32.1,52,71.5c21.1-8.2,37.7-15.8,50-22.8C219.6,489,231.1,475.4,242,455.3z"/>
<path class="st1" d="M242.4,454.9c-22-21.8-35.9-36.7-41.6-44.4c-0.7-1-4.1-5.5-5-6.7c-10.9-14.8-17.3-22-25.2-27.1
	c-9.9-6.5-20.4-7.6-33-2.8c-29.4,11.3-44.1,44.2-32.8,73.6c3.2,8.4,20.6,32.2,52.1,71.6c0.2,0.2,0.4,0.3,0.6,0.2
	c21.1-8.2,37.8-15.8,50.1-22.8c12.4-7.1,24-20.7,34.9-40.9C242.6,455.4,242.5,455.1,242.4,454.9z M207,495.5
	c-12.2,7-28.7,14.5-49.5,22.6c-31.3-39.1-48.6-62.8-51.7-71c-11.1-28.8,3.3-61.1,32.2-72.2c12.3-4.7,22.5-3.6,32.1,2.7
	c7.7,5,14,12.2,24.9,26.9c0.9,1.2,4.2,5.7,5,6.7c5.7,7.8,19.5,22.5,41.4,44.2C230.5,475.2,219.1,488.6,207,495.5z"/>
<path class="st1" d="M142.6,460.8c0,0,32.7,0.3,70.1-31.5c0.6-0.5,1.3-1.3,1.9-2.3c-4-3.6-6.5-6.2-7.6-7.6
	c-4.6-6-6.4-10.2-10.3-13.6c-2.5-2.2-4.8-6.7-8-10.6c-1.7-2.1-4.6-5.3-8.7-9.5c-3.8-3.5-6.4-5.7-7.7-6.8c-2-1.7-2.8-3.7-4.3-2.9
	c-8.1,4.5-15.2,13.6-21.3,27.2C132.6,434.7,142.6,460.8,142.6,460.8z"/>
<path class="st0" d="M144.1,409.9c1.3-3.6,2-5.9,3.3-8.7c1.3-2.8,3.1-6.3,6.5-11.5c5,5.6,10.3,11.8,17.2,20.4
	c10.4,12.8,3.7,18-9.2,11.7C153.3,417.6,147.7,413.7,144.1,409.9z M170.7,398.7c1.7-0.5,5.5,6.5,6.5,7.5c0.6,0.6,0.5,1.5-0.1,2.1
	c-0.5,0.5-1.4,0.5-2,0.1c-3.3-2.8-5.1-4.5-5.4-5.2C169.2,401.3,169,399.2,170.7,398.7z"/>
<path class="st1" d="M227.5,575.1c22.9-8.8,34.4-34.5,25.6-57.5c-8.8-22.9-34.5-34.4-57.5-25.6c-22.9,8.8-34.4,34.5-25.6,57.5
	S204.5,583.9,227.5,575.1z"/>
<path class="st1" d="M141.8,457.1c-9.7-14.6-10.2-31.7-1.6-51.6c8.7-19.9,16-30.7,21.9-32.4c0.3-0.1,0,0.1-0.1-0.1
	c-0.1-0.3-0.2-0.3-0.5-0.2c-0.2,0-0.1-0.6-0.2-0.5c-6.2,2.3-13.5,13.2-22,32.9c-8.8,20.2-8.2,37.7,1.7,52.6c0.2,0.3,0.5,0.3,0.8,0.2
	C141.9,457.7,141.9,457.4,141.8,457.1z"/>
<path class="st0" d="M197.1,576.3l0.3-45.1l34.2-25.9c1.3-1,3.1-0.7,4.1,0.6c0.6,0.8,0.8,1.8,0.4,2.7l-11.8,34.6l9.3,29.6
	L197.1,576.3z"/>
<path class="st2" d="M197.3,531.3c-3,7.7-4.9,12.7-5.7,15.1c-3.8,12.3-2.2,15.8,2.2,16.7c8.5,1.8,19,8,20.6-2
	C215.5,554.4,209.8,544.4,197.3,531.3z"/>
<path class="st1" d="M196.8,531c0.1-0.4,0.6-0.5,0.9-0.2c12.6,13.3,18.4,23.3,17.3,30.2c-0.6,3.9-2.7,5.8-5.9,6
	c-2.4,0.1-4.4-0.3-9.9-2.1c-1.3-0.4-2.1-0.6-2.9-0.9c-0.9-0.3-1.7-0.5-2.5-0.6c-5.3-1.1-6.2-5.8-2.6-17.4
	C191.9,543.8,193.8,538.7,196.8,531z M214,560.9c1-6.3-4.4-15.9-16.4-28.7c-2.8,7.3-4.6,12-5.3,14.2c-3.4,11.1-2.7,15,1.8,16
	c0.8,0.2,1.6,0.4,2.5,0.6c0.8,0.2,1.6,0.5,2.9,0.9c5.4,1.7,7.4,2.1,9.5,2C211.8,565.8,213.4,564.3,214,560.9z M224.9,541.4
	c0.1-0.3,0.4-0.5,0.7-0.4s0.5,0.4,0.4,0.7c-0.9,3.6-2.1,5.8-3.9,6.4c-0.3,0.1-0.6,0-0.7-0.3c-0.1-0.3,0-0.6,0.3-0.7
	C223,546.6,224.1,544.7,224.9,541.4z"/>
<path class="st0" d="M143.2,467.6c2.8-1.1,4.2-4.2,3.1-7.1c-1.1-2.8-4.2-4.2-7.1-3.1c-2.8,1.1-4.2,4.2-3.1,7.1
	C137.2,467.3,140.3,468.7,143.2,467.6z"/>
<path class="st1" d="M143.1,468.2c3.1-1.2,4.7-4.7,3.5-7.8s-4.7-4.7-7.8-3.5s-4.7,4.7-3.5,7.8C136.5,467.9,140,469.4,143.1,468.2z
	 M142.7,467.2c-2.5,1-5.4-0.3-6.4-2.8s0.3-5.4,2.8-6.4s5.4,0.3,6.4,2.8C146.5,463.4,145.3,466.2,142.7,467.2z"/>
<path class="st1" d="M142.1,465.5c1.8-0.7,2.7-2.5,2.1-4.1c-0.6-1.6-2.6-2.3-4.3-1.7c-1.8,0.7-2.7,2.5-2.1,4.1
	C138.3,465.5,140.3,466.2,142.1,465.5z M141.7,464.5c-1.2,0.5-2.5,0-2.9-1s0.3-2.2,1.5-2.7s2.5,0,2.9,1S142.9,464,141.7,464.5z"/>
<path class="st0" d="M232.6,570.4l5.4,19.8l-22.4,28.1L197.3,639l-17-10.7c9.2-4.1,14-7.7,14.3-10.6c1-8.6,1.9-22.3,2.5-41.2
	L232.6,570.4z"/>
<path class="st1" d="M232.4,569.6c0.3,0,0.5,0.1,0.6,0.4l5.4,19.8c0,0.2,0,0.3-0.1,0.5l-22.4,28.2l-18.3,20.7
	c-0.2,0.2-0.5,0.2-0.7,0.1l-17-10.7c-0.4-0.2-0.3-0.8,0.1-1c9-4.1,13.7-7.5,14-10.1c1-8.6,1.9-22.3,2.5-41.2c0-0.3,0.2-0.5,0.5-0.5
	L232.4,569.6z M197.5,576.8c-0.7,18.7-1.5,32.3-2.5,40.8c-0.4,3.1-4.9,6.5-13.7,10.6l15.7,9.9l18-20.3l22.2-27.9l-5.2-19.1
	L197.5,576.8z M237.4,589.6l-0.1,0.5l-0.1-0.3L237.4,589.6z"/>
<path class="st0" d="M54.9,478.8c-3.4,1.3-7.2-0.4-8.5-3.8c-1.3-3.4,0.4-7.2,3.8-8.5s7.2,0.4,8.5,3.8
	C60,473.7,58.3,477.5,54.9,478.8z M120.7,471.2l4,5.5c-0.3,0.3-0.7,0.6-1,0.9c-9.1,8.5-9.6,22.7-1.1,31.8l6.3,6.7l-4.8,5.8
	l-8.2-10.4c-8.8-11.2-7.9-27.2,2.1-37.4L120.7,471.2z"/>
<path class="st1" d="M77.7,496c0-0.1-0.1-0.2-0.2-0.3l-20.3-18.4c-0.2-0.2-0.6-0.2-0.8,0c-0.2,0.2-0.2,0.6,0,0.8l20.2,18.3l2.1,9.5
	c0.1,0.2,0.3,0.4,0.5,0.4l10.8,0.3l26.1,22.5c0.2,0.2,0.6,0.2,0.8-0.1s0.2-0.6-0.1-0.8l-26.3-22.6c-0.1-0.1-0.2-0.1-0.3-0.1
	l-10.6-0.3L77.7,496z"/>
<path class="st1" d="M54.8,479.5c-3.7,1.4-7.8-0.4-9.2-4.1c-1.4-3.7,0.4-7.8,4.1-9.2s7.8,0.4,9.2,4.1
	C60.3,473.9,58.5,478,54.8,479.5z M54.4,478.4c3.1-1.2,4.7-4.7,3.5-7.8s-4.7-4.7-7.8-3.5c-3.1,1.2-4.7,4.7-3.5,7.8
	C47.9,478.1,51.3,479.6,54.4,478.4z M120.1,470.9c0.2-0.2,0.6-0.2,0.8,0.1l4,5.5c0.2,0.2,0.1,0.6-0.1,0.7c-0.3,0.3-0.6,0.6-1,0.8
	c-8.9,8.3-9.4,22.2-1.1,31.1l6.3,6.7c0.2,0.2,0.2,0.5,0,0.7l-4.8,5.8c-0.2,0.3-0.6,0.3-0.9,0l-8.2-10.4c-9-11.4-8.1-27.8,2.1-38.2
	L120.1,470.9z M118.1,474.5c-9.8,10-10.7,25.7-2,36.7l7.7,9.9l4.1-4.9l-5.9-6.4c-8.7-9.3-8.2-23.9,1.1-32.6c0.2-0.2,0.4-0.4,0.6-0.6
	l-3.3-4.6L118.1,474.5z"/>
<path class="st1" d="M144.5,674.4c13.6,8.7,26.7,26,39.4,51.7l-1,0.5c-12.8-26-26-43.2-39.6-51.7c-11.1-6.9-22.1-11.9-32.7-15.3
	c-7.8-2.5-14.7-3.8-20.6-4.4l0.1-1.1c5.9,0.6,12.9,2,20.8,4.5c10.6,3.4,21.6,8.3,32.7,15.2l27.2-31.7c0.2-0.2,0.5-0.3,0.8-0.1
	c0.2,0.2,0.3,0.5,0.1,0.8L144.5,674.4z M189.5,646.1c-0.2-0.2-0.3-0.5-0.1-0.8s0.5-0.3,0.8-0.1l51.7,44c0.2,0.2,0.3,0.5,0.1,0.8
	c-0.2,0.2-0.5,0.3-0.8,0.1L189.5,646.1z M169.4,626.9c0.2,0.2,0.2,0.6,0,0.8s-0.6,0.2-0.8,0L115,578c-0.2-0.2-0.2-0.6,0-0.8
	s0.6-0.2,0.8,0L169.4,626.9z"/>
<path class="st5" d="M157.8,519l26.8,24.9"/>
<path class="st5" d="M238.1,590l47.3,42.7"/>
<path class="st1" d="M570.9,183.8c0.2-0.2,0.6-0.1,0.8,0.1s0.1,0.6-0.1,0.8l-38.7,28.8c-9.4,7-11.4,20.4-4.3,29.9
	c1.6,2.2,3.7,4.1,6,5.5l9.5,5.8c9.2,5.6,12.1,17.6,6.6,26.8c-2.5,4.1-6.5,7.2-11.1,8.6l-22.5,6.7c-11.4,3.4-20.5,12.1-24.5,23.3
	l-5.9,16.5c-0.1,0.3-0.4,0.4-0.7,0.3s-0.4-0.4-0.3-0.7l5.9-16.5c4.1-11.6,13.5-20.5,25.2-24l22.5-6.7c4.4-1.3,8.1-4.2,10.5-8.1
	c5.3-8.7,2.5-20-6.2-25.3l-9.5-5.8c-2.5-1.5-4.6-3.5-6.4-5.8c-7.4-9.9-5.4-24,4.6-31.4L570.9,183.8z M552.5,360.6l-3.4-8.9
	c-0.1-0.4,0-0.8,0.4-0.9s0.8,0,0.9,0.4l3.4,8.9l8.9-3.4c0.4-0.1,0.8,0,0.9,0.4c0.1,0.4,0,0.8-0.4,0.9l-8.9,3.4l3.4,8.9
	c0.1,0.4,0,0.8-0.4,0.9s-0.8,0-0.9-0.4l-3.4-8.9l-8.9,3.4c-0.4,0.1-0.8,0-0.9-0.4c-0.1-0.4,0-0.8,0.4-0.9L552.5,360.6z M150.2,264.9
	l-3.4-8.9c-0.1-0.4,0-0.8,0.4-0.9s0.8,0,0.9,0.4l3.4,8.9l8.9-3.4c0.4-0.1,0.8,0,0.9,0.4c0.1,0.4,0,0.8-0.4,0.9l-8.9,3.4l3.4,8.9
	c0.1,0.4,0,0.8-0.4,0.9s-0.8,0-0.9-0.4l-3.4-8.9l-8.9,3.4c-0.4,0.1-0.8,0-0.9-0.4s0-0.8,0.4-0.9L150.2,264.9z M454.1,193.6l-3.4-8.9
	c-0.1-0.4,0-0.8,0.4-0.9s0.8,0,0.9,0.4l3.4,8.9l8.9-3.4c0.4-0.1,0.8,0,0.9,0.4c0.1,0.4,0,0.8-0.4,0.9l-8.9,3.4l3.4,8.9
	c0.1,0.4,0,0.8-0.4,0.9s-0.8,0-0.9-0.4l-3.4-8.9l-8.9,3.4c-0.4,0.1-0.8,0-0.9-0.4c-0.1-0.4,0-0.8,0.4-0.9L454.1,193.6z M26.1,562.6
	l-2.6-6.8c-0.1-0.4,0-0.8,0.4-0.9s0.8,0,0.9,0.4l2.6,6.8l6.8-2.6c0.4-0.1,0.8,0,0.9,0.4s0,0.8-0.4,0.9l-6.8,2.6l2.6,6.8
	c0.1,0.4,0,0.8-0.4,0.9c-0.4,0.1-0.8,0-0.9-0.4l-2.6-6.8l-6.8,2.6c-0.4,0.1-0.8,0-0.9-0.4s0-0.8,0.4-0.9L26.1,562.6z M406,303.5
	l-2.5-6.5c-0.1-0.4,0-0.8,0.4-0.9s0.8,0,0.9,0.4l2.5,6.5l6.5-2.5c0.4-0.1,0.8,0,0.9,0.4c0.1,0.4,0,0.8-0.4,0.9l-6.5,2.5l2.5,6.5
	c0.1,0.4,0,0.8-0.4,0.9s-0.8,0-0.9-0.4l-2.5-6.5l-6.5,2.5c-0.4,0.1-0.8,0-0.9-0.4s0-0.8,0.4-0.9L406,303.5z M225.3,349.8l-2.5-6.5
	c-0.1-0.4,0-0.8,0.4-0.9s0.8,0,0.9,0.4l2.5,6.5l6.5-2.5c0.4-0.1,0.8,0,0.9,0.4c0.1,0.4,0,0.8-0.4,0.9l-6.5,2.5l2.5,6.5
	c0.1,0.4,0,0.8-0.4,0.9s-0.8,0-0.9-0.4l-2.5-6.5l-6.5,2.5c-0.4,0.1-0.8,0-0.9-0.4c-0.1-0.4,0-0.8,0.4-0.9L225.3,349.8z"/>
<path class="st2" d="M215.3,523.9c-4.2-1.1-7.2-0.7-8.8,1.3c-2.5,3-5.2,8.1-1.2,11.7c4,3.6,7.1,6.4,9.4,5.6c2.3-0.9,6.5-2,6.9-7.7
	C221.8,531,219.7,527.3,215.3,523.9z"/>
<path class="st0" d="M215.9,526c0.7,2.5,0.5,4.4-0.6,5.6c-1,1.1-2.7,2.1-5.2,3.2c-1.1,0.5-2.4,0-2.9-1.1c-0.2-0.4-0.2-0.8-0.2-1.2
	c0.5-3,1.1-4.9,2-5.9s2.4-1.7,4.3-2.1C214.5,524.3,215.6,524.9,215.9,526z"/>
<path class="st1" d="M215.4,527.2c-0.1,0.7-0.7,1.3-1.5,1.6c-1.1,0.4-2.3,0-2.7-0.9s0.2-2,1.3-2.5c-1.5,0.4-2.5,1-3.3,1.8
	c-0.8,0.9-1.4,2.8-1.9,5.6c0,0.3,0,0.6,0.1,0.9c0.4,0.8,1.3,1.2,2.2,0.9c2.5-1.1,4.1-2.1,5-3.1S215.8,529.1,215.4,527.2z
	 M213.5,525.2c0.2,0,0.4,0,0.6,0.1C213.9,525.2,213.7,525.2,213.5,525.2z M216.2,526.1c0.7,2.7,0.5,4.7-0.7,6.1
	c-1,1.1-2.8,2.3-5.4,3.4c-1.4,0.6-3,0-3.6-1.4c-0.2-0.5-0.3-1-0.2-1.5c0.5-3.1,1.2-5.1,2.2-6.2c1-1.1,2.5-1.9,4.6-2.3
	C214.4,523.9,215.8,524.7,216.2,526.1z"/>
<path class="st2" d="M232.4,504.7c-1.7,0.2-3.3,1.1-4.7,2.8c-0.3,0.3-0.2,0.8,0.1,1c0.1,0.1,0.1,0.1,0.2,0.1
	c0.9,0.3,1.9,0.4,2.8,0.1c1.3-0.4,2.8-0.9,4.4-1.7C235.3,505.2,234.4,504.5,232.4,504.7z"/>
<path class="st1" d="M232.6,504c-1.9,0.2-3.6,1.2-5.1,2.9c-0.5,0.5-0.4,1.3,0.1,1.8c0.1,0.1,0.2,0.2,0.4,0.2c1,0.4,2.1,0.4,3.2,0.1
	c1.3-0.4,2.8-1,4.5-1.7c0.2-0.1,0.3-0.3,0.3-0.5C236.2,504.7,234.9,503.7,232.6,504z M231,508c-0.9,0.3-1.7,0.2-2.5-0.1
	c0,0,0,0-0.1,0c-0.1-0.1-0.1-0.2,0-0.3c1.3-1.5,2.8-2.4,4.4-2.6c1.5-0.2,2.2,0.2,2.2,1.4C233.5,507.1,232.2,507.6,231,508z"/>
<path class="st0" d="M580.1,145.3l-6.2,4.3l23.9,10.4l-0.6-7.6"/>
<path class="st0" d="M451.9,592.2c2.8-1.1,4.2-4.2,3.1-7.1c-1.1-2.8-4.2-4.2-7.1-3.1c-2.8,1.1-4.2,4.2-3.1,7.1
	C445.9,591.8,449.1,593.3,451.9,592.2z"/>
<path class="st1" d="M451.8,592.8c3.1-1.2,4.7-4.7,3.5-7.8s-4.7-4.7-7.8-3.5s-4.7,4.7-3.5,7.8C445.3,592.4,448.7,594,451.8,592.8z
	 M451.5,591.8c-2.5,1-5.4-0.3-6.4-2.8s0.3-5.4,2.8-6.4s5.4,0.3,6.4,2.8C455.3,587.9,454,590.8,451.5,591.8z"/>
<path class="st0" d="M497.8,481.6c2.8-1.1,4.2-4.2,3.1-7.1c-1.1-2.8-4.2-4.2-7.1-3.1c-2.8,1.1-4.2,4.2-3.1,7.1
	C491.8,481.3,494.9,482.7,497.8,481.6z"/>
<path class="st1" d="M498,482.1c3.1-1.2,4.7-4.7,3.5-7.8s-4.7-4.7-7.8-3.5s-4.7,4.7-3.5,7.8C491.4,481.7,494.9,483.3,498,482.1z
	 M497.6,481.1c-2.5,1-5.4-0.3-6.4-2.8s0.3-5.4,2.8-6.4s5.4,0.3,6.4,2.8S500.1,480.1,497.6,481.1z"/>
<path class="st1" d="M450.8,590c1.8-0.7,2.7-2.5,2.1-4.1c-0.6-1.6-2.6-2.3-4.3-1.7c-1.8,0.7-2.7,2.5-2.1,4.1
	C447.1,590,449,590.7,450.8,590z M450.4,589c-1.2,0.5-2.5,0-2.9-1s0.3-2.2,1.5-2.7s2.5,0,2.9,1S451.6,588.6,450.4,589z"/>
<path class="st1" d="M496.9,479.4c1.8-0.7,2.7-2.5,2.1-4.1c-0.6-1.6-2.6-2.3-4.3-1.7c-1.8,0.7-2.7,2.5-2.1,4.1
	C493.2,479.3,495.1,480.1,496.9,479.4z M496.5,478.4c-1.2,0.5-2.5,0-2.9-1s0.3-2.2,1.5-2.7s2.5,0,2.9,1S497.8,477.9,496.5,478.4z"/>
<path class="st1" d="M145.9,461.2c7.2,2.8,19.7,0.5,37.6-6.9c17.8-7.4,29.6-15,35.2-23c0.2-0.2,0.1-0.6-0.1-0.8
	c-0.2-0.2-0.6-0.1-0.8,0.1c-5.5,7.8-17.1,15.3-34.8,22.6c-17.6,7.3-29.9,9.5-36.8,6.9c-0.3-0.1-0.6,0-0.7,0.3
	C145.4,460.7,145.6,461.1,145.9,461.2z"/>
<path class="st2" d="M646.1,5.2c-14.7,12.3-28,29.2-39.8,50.8c-12.3,22.2-23.7,50.7-34.5,85.5l32.3,13.7
	C621.7,123,634.2,95,641.7,71c7.2-23.2,10.3-44.5,9.2-63.8c-0.1-1.1-0.8-2.1-1.8-2.5C648.1,4.3,646.9,4.5,646.1,5.2z"/>
<path class="st3" d="M624.3,28.4l24.4,9.8c3-21.5,3.1-32.7,0.3-33.7C646.3,3.4,638.1,11.3,624.3,28.4z"/>
<path class="st1" d="M594,158.6l-5.7,17.1l-2.8-10.3l-7.7,5.3l0.5-8.8l-9.9,3.8l8.6-14.5l-4.4-1.9l7-4.9l0.6,0.9l-5.4,3.8l22.2,9.6
	l-0.5-6.7l1.1-0.1l0.6,8.5L594,158.6z"/>
<path class="st1" d="M605.7,55.5c-12.3,22.3-23.8,50.8-34.5,85.6c-0.1,0.3,0,0.6,0.3,0.7l32.3,13.7c0.3,0.1,0.6,0,0.7-0.2
	c17.6-32.2,30.2-60.3,37.6-84.3c7.3-23.3,10.3-44.6,9.3-64c-0.1-1.3-0.9-2.5-2.1-3s-2.6-0.3-3.6,0.5
	C630.9,16.9,617.6,33.9,605.7,55.5z M572.3,141c10.7-34.5,22.1-62.8,34.3-84.9c11.8-21.5,25.1-38.4,39.7-50.7
	c0.7-0.6,1.6-0.7,2.5-0.4c0.8,0.3,1.4,1.1,1.4,2c1.1,19.3-2,40.5-9.2,63.6c-7.4,23.8-19.8,51.6-37.3,83.6L572.3,141z"/>
<path class="st0" d="M593,91.9l-1,6.6l-20,42.7l-23.2,10.5l-2.8-1.2L593,91.9z M625.6,105.6l-10.9,74.2l-2.7-1.2l-8.1-24.1
	l17.6-43.7L625.6,105.6z"/>
<path class="st1" d="M592.3,92c0.3-0.4,1.1-0.1,1,0.4l-1,6.6v0.2l-19.9,42.7c-0.1,0.1-0.2,0.2-0.3,0.3l-23.2,10.3
	c-0.1,0.1-0.3,0.1-0.4,0l-2.8-1.2c-0.3-0.1-0.4-0.6-0.2-0.8L592.3,92z M546.8,150.7l1.9,0.8l22.7-10.3l19.8-42.4l0.7-4.5
	L546.8,150.7z M591.3,98.6v0.2V98.6L591.3,98.6z M625,105.7c0.3-0.4,1-0.1,1,0.4l-10.9,74.2c-0.1,0.4-0.4,0.6-0.8,0.4l-2.7-1.2
	c-0.1-0.1-0.2-0.2-0.3-0.3l-8.1-24.1c0-0.1,0-0.3,0-0.4l17.6-43.7l0.1-0.1L625,105.7z M621.7,111.5l-17.5,43.4l8,23.7l1.9,0.8
	l10.5-71.5L621.7,111.5z"/>
<path class="st0" d="M629.2,71.8c5.6-2.2,8.5-8.5,6.3-14.1s-8.5-8.5-14.1-6.3s-8.5,8.5-6.3,14.1C617.2,71.1,623.6,73.9,629.2,71.8z"
	/>
<path class="st1" d="M629.4,72c5.9-2.3,8.9-8.9,6.6-14.8c-2.3-5.9-8.9-8.9-14.8-6.6c-5.9,2.3-8.9,8.9-6.6,14.8
	C616.9,71.3,623.5,74.3,629.4,72z M629.1,71c-5.4,2.1-11.4-0.6-13.4-6c-2.1-5.4,0.6-11.4,6-13.4c5.4-2.1,11.4,0.6,13.4,6
	S634.4,68.9,629.1,71z"/>
<path class="st1" d="M627.3,66.8c-2.9,1.1-6.2-0.3-7.3-3.3c-1.1-2.9,0.3-6.2,3.3-7.3c2.9-1.1,6.2,0.3,7.3,3.3S630.2,65.7,627.3,66.8
	z M626.9,65.8c2.3-0.9,3.5-3.5,2.6-5.9c-0.9-2.3-3.5-3.5-5.9-2.6s-3.5,3.5-2.6,5.9C621.9,65.5,624.6,66.7,626.9,65.8z M623.9,28.5
	l0.4-1l24.7,10l-0.4,1L623.9,28.5z"/>
<path class="st1" d="M350.2,381.9c-10.7,14.3-17.1,26.4-19.4,36.5c-2.2,10.1-1.8,25.5,1.2,46.2l1.1-0.2c-3-20.6-3.4-35.9-1.3-45.8
	c2.2-9.9,8.6-21.9,19.2-36.1L350.2,381.9z"/>
<path class="st0" d="M197.2,573.1c6.2-0.2,11.9-0.6,16.9-1.4c4.9-0.8,10.6-2,17.1-3.6c1.4-0.3,2.8,0.5,3.1,1.8c0,0.1,0,0.2,0.1,0.3
	v0.3c0.2,1.5-0.8,2.9-2.2,3.2c-6,1.4-11.7,2.5-17.1,3.4c-5.4,0.9-11.2,1.1-17.3,0.6c-1.3-0.1-2.4-1.1-2.6-2.5
	c-0.1-1.1,0.7-2.1,1.8-2.3C197.1,573.1,197.2,573.1,197.2,573.1z"/>
<path class="st1" d="M219.8,571.7c-1.9,0.4-3.6,0.7-5.3,0.9c-2.1,0.3-4.2,0.5-6.6,0.7l0.5,3.5c2.3-0.2,4.5-0.4,6.7-0.8
	c1.7-0.3,3.4-0.6,5.2-0.9L219.8,571.7z M220.9,571.5l0.5,3.3c3.5-0.7,7-1.4,10.8-2.3c0.9-0.2,1.5-1.1,1.4-2v-0.3c0-0.1,0-0.1,0-0.2
	c-0.2-0.8-1-1.3-1.8-1.1C227.8,570,224.2,570.9,220.9,571.5z M206.9,573.4c-3,0.1-6.2,0.1-9.6,0c-0.1,0-0.2,0-0.2,0
	c-0.7,0.1-1.3,0.8-1.2,1.5l0.1,0.5c0.1,0.9,0.8,1.6,1.7,1.6c3.4,0.1,6.6,0.1,9.7-0.1L206.9,573.4z M197.3,572.3
	c6.4,0.3,12.1,0.1,17-0.7s10.6-2,17.1-3.6c1.4-0.3,2.8,0.5,3.1,1.8c0,0.1,0,0.2,0.1,0.3v0.3c0.2,1.5-0.8,2.9-2.2,3.2
	c-6,1.4-11.7,2.5-17.1,3.4c-5.4,0.9-11.3,1.2-17.7,1c-1.4-0.1-2.6-1.1-2.8-2.6l-0.1-0.5c-0.2-1.3,0.8-2.6,2.1-2.7
	C197,572.3,197.2,572.3,197.3,572.3z"/>
<path class="st2" d="M115.2,540.5l4-3.9l8.6,8l-3.6,4.9L115.2,540.5z M132.7,538.1c-1.3,0.5-2.6,0.8-3.8,0.3
	c-1.2-0.5-2.3-1.9-2.8-3.2c-0.4-1.1-0.6-2.8-0.3-3.8c0.4-1.5,1.7-2.2,3.2-2.8c1.4-0.5,2.6-0.9,3.8-0.3c1.1,0.5,2.3,2,2.8,3.2
	c0.6,1.6,0.7,3.4-0.1,4.7C134.9,537.1,133.7,537.7,132.7,538.1z"/>
<path class="st1" d="M114.8,540.3l4.8-4.6l9.3,8.7l-4.3,5.8L114.8,540.3z M124.5,548.6l2.9-4l-7.8-7.4l-3.2,3.1L124.5,548.6z
	 M133.2,538.4c-1.6,0.6-3,0.8-4.2,0.3c-1.3-0.5-2.5-1.9-3.1-3.5c-0.5-1.3-0.6-3-0.3-4.1c0.4-1.5,1.6-2.4,3.6-3.2
	c1.9-0.7,3-0.9,4.2-0.3c1.2,0.6,2.5,2.1,3.1,3.5c0.7,1.9,0.7,3.8-0.2,5.2C135.7,537.3,134.7,537.9,133.2,538.4z M132.8,537.4
	c1.3-0.5,2.1-1,2.5-1.6c0.7-1.1,0.7-2.7,0.1-4.2c-0.4-1.2-1.6-2.5-2.5-2.9s-1.7-0.3-3.4,0.3c-1.7,0.7-2.6,1.3-2.9,2.4
	c-0.3,0.9-0.1,2.4,0.3,3.4c0.5,1.3,1.5,2.5,2.5,2.9C130.3,538.1,131.4,538,132.8,537.4z"/>
<path class="st0" d="M327.2,294.7l-59.3,22.7c-1.1,0.4-1.7,1.7-1.3,2.8c0.4,1.1,1.7,1.7,2.8,1.3l59.3-22.7c1.1-0.4,1.7-1.7,1.3-2.8
	C329.6,294.8,328.3,294.2,327.2,294.7z"/>
<path class="st1" d="M268,317.4l59.3-22.7c1.1-0.4,2.4,0.1,2.8,1.3c0.4,1.1-0.1,2.4-1.3,2.8l-59.3,22.7c-1.1,0.4-2.4-0.1-2.8-1.3
	C266.3,319.1,266.8,317.8,268,317.4z M268.4,318.4c-0.6,0.2-0.8,0.9-0.6,1.4c0.2,0.6,0.8,0.8,1.4,0.6l59.3-22.7
	c0.6-0.2,0.8-0.8,0.6-1.4s-0.8-0.8-1.4-0.6L268.4,318.4z"/>
<path class="st6" d="M286.2,631.3L239,588.8c-0.7-0.6-1.7-0.6-2.3,0.1c-0.6,0.7-0.6,1.7,0.1,2.3l47.2,42.5c0.7,0.6,1.7,0.6,2.3-0.1
	C287,632.9,286.9,631.9,286.2,631.3z"/>
<path class="st0" d="M217.7,501.8c-1.3,2.4-13.1-1.1-15.3-1.2c-1.2,0-2.2-1.1-2.1-2.3c0-1.1,0.9-2,2-2.1c6.6-0.6,10.5-0.6,11.5-0.1
	C216.5,497.3,219,499.4,217.7,501.8z"/>
<path class="st0" d="M281.3,530.6l15.4-20.7c0.2-0.3,0.7-0.4,1-0.2l0,0l13,10.5c0.3,0.2,0.4,0.7,0.1,1l-15,20.6
	c-0.2,0.3-0.7,0.4-1,0.2l0,0l-13.4-10.3C281.1,531.4,281,531,281.3,530.6z"/>
<path class="st1" d="M280.4,531.2l16.2-21.6c0.2-0.3,0.7-0.4,1-0.1l14,10.5c0.3,0.2,0.4,0.7,0.1,1l-16.2,21.6
	c-0.2,0.3-0.7,0.4-1,0.1l-14-10.5C280.2,532,280.2,531.5,280.4,531.2z M281.5,531.6l13.4,10.1l15.8-21l-13.4-10.1L281.5,531.6z"/>
<path class="st1" d="M285.6,529.5l10.5-14c0.2-0.3,0.7-0.4,1-0.1l9.3,7c0.3,0.2,0.4,0.7,0.1,1l-10.5,14c-0.2,0.3-0.7,0.4-1,0.1
	l-9.3-7C285.4,530.2,285.4,529.8,285.6,529.5z M295.5,536.4l10.1-13.4l-8.7-6.6l-10.1,13.4L295.5,536.4z"/>
</svg>
