<?xml version="1.0" encoding="utf-8"?>
<!-- Generator: Adobe Illustrator 22.0.1, SVG Export Plug-In . SVG Version: 6.00 Build 0)  -->
<svg version="1.1" id="圖層_1" xmlns="http://www.w3.org/2000/svg" xmlns:xlink="http://www.w3.org/1999/xlink" x="0px" y="0px"
	 viewBox="0 0 1343 1007" style="enable-background:new 0 0 1343 1007;" xml:space="preserve">
<style type="text/css">
	.st0{fill:#FFFFFF;}
	.st1{fill:#FF4C2C;}
	.st2{fill:#FFE8D4;}
	.st3{fill:#FFA780;}
	.st4{fill:#FFE8D4;stroke:#FF4C2C;stroke-width:1.0942;stroke-linecap:round;stroke-linejoin:round;}
	.st5{fill:none;stroke:#FF4C2C;stroke-width:1.0942;stroke-linecap:round;stroke-linejoin:round;}
	.st6{fill:#FFFFFF;stroke:#FF4C2C;stroke-width:1.0942;}
</style>
<path class="st0" d="M700.4,399.8c-0.8-2.5-8.6-25.1-23.5-67.8c-3.7-10.7-14.6-17.2-25.8-15.3c-0.8,0.1-1.1,0.2-1.1,0.2
	c-12.8,3.9-20.6,17-18,30.1l13.5,67.2"/>
<path class="st1" d="M650.2,317.2l1.1-0.2c10.9-1.8,21.6,4.5,25.2,15c14.9,42.7,22.8,65.4,23.5,67.8c0.1,0.3,0.4,0.5,0.7,0.4
	c0.3-0.1,0.5-0.4,0.4-0.7c-0.8-2.5-8.6-25.1-23.5-67.8c-3.8-11-15-17.6-26.4-15.7l-1.1,0.2l-0.1,0c-13.1,4-21.1,17.3-18.4,30.8
	l13.5,67.2c0.1,0.3,0.3,0.5,0.6,0.4c0.3-0.1,0.5-0.3,0.4-0.6l-13.5-67.2C630.1,333.8,637.7,321.1,650.2,317.2z"/>
<path class="st0" d="M706.6,391l-10.9-44.7c-1-4.3-5.4-6.9-9.7-5.9c-0.3,0.1-0.7,0.2-1,0.3c-5.1,1.9-8.3,6.9-8.1,12.4l2.4,48.4
	L706.6,391z"/>
<path class="st1" d="M707.1,391.1c0.3-0.1,0.4-0.4,0.3-0.6l-10.9-44.7c-1.1-4.6-5.8-7.4-10.3-6.3c-0.4,0.1-0.7,0.2-1,0.3
	c-5.3,2-8.7,7.2-8.4,12.9l2.5,48.4c0,0.4,0.4,0.6,0.7,0.5L707.1,391.1z M706.3,390.2l-26,10l-2.4-47.6c-0.3-5.2,2.8-10,7.7-11.8
	c0.3-0.1,0.6-0.2,0.9-0.3c4-1,8.1,1.5,9,5.5L706.3,390.2z"/>
<path class="st2" d="M611.6,547.4l45.5-36.9c5.2-4.2,7.5-10.9,6.1-17.4l-17.7-79.4l60.3-23.1l26,99.5c4.6,17.5,1.3,36.2-8.9,51.2
	L679.4,605L611.6,547.4z"/>
<path class="st3" d="M729.5,481.1c-9.5,11.2-15.4,22-17.6,32.5c-2.2,10.5-2,24.9,0.5,43.2c2.4-3.7,4.5-6.8,6.2-9.4
	c7-10.5,12-19.5,13.7-28.3C734.8,506.9,733.8,494.3,729.5,481.1z"/>
<path class="st1" d="M662.4,501.8C662.4,501.8,662.4,501.8,662.4,501.8C662.4,501.8,662.4,501.8,662.4,501.8c0.9-2.8,1-5.8,0.3-8.7
	l-17.7-79.3c-0.1-0.3,0.1-0.5,0.3-0.6l60.3-23.1c0.3-0.1,0.6,0.1,0.7,0.4l11.3,43.2c0.1,0.1,0.2,0.2,0.2,0.3c0,0.1,0,0.3-0.1,0.4
	l14.5,55.5c4.6,17.7,1.3,36.6-9,51.7l-43.2,63.2c-0.1,0.2-0.4,0.3-0.6,0.2c-10.7-3.6-20.7-9.6-30.1-17.9c-9.3-8.3-21.5-22-36.5-41.2
	c-0.2-0.2-0.1-0.6,0.1-0.8l43.9-35.1C659.5,507.9,661.4,505,662.4,501.8z M628.1,534.5l-14,11.2c14.8,18.9,26.9,32.4,36.1,40.6
	c9.1,8.1,18.9,14,29.3,17.6l11-16.1L628.1,534.5z M628.9,533.8l62.1,53.1l31.4-45.9c10.2-14.9,13.4-33.4,8.8-50.8l-14.4-55.3
	l-62,17.6c0,0,0,0,0,0l9,40.4c0.7,2.9,0.6,5.9-0.2,8.7l45.5,11.9c0.3,0.1,0.5,0.4,0.4,0.7c-0.1,0.3-0.4,0.5-0.7,0.4l-45.5-11.9
	c-1.1,3.2-3.1,6.1-5.8,8.3L628.9,533.8z M654.6,451.4l62-17.6l-11.1-42.5l-59.3,22.7L654.6,451.4z"/>
<path class="st3" d="M522,593.9c0,0-12.7,14.4-38.1,43.1l23.1,19.6l30.4-43.3C527.1,600.4,522,593.9,522,593.9z"/>
<path class="st0" d="M881.3,585.4l-40.7-76.6l4.2-4.3l9.1-39.4l3.4-2.5c1.2-0.8,2.3-1.2,3.1-1.2c0.8,0.1,2.1,0.6,3.8,1.7l36.6,95.3
	c-0.1,2.1-0.3,3.6-0.6,4.5c-0.3,0.9-1.1,2-2.3,3.2L881.3,585.4z M817.5,691.1l55.6-48.7l6.5,7.7l46.4-5.3l2.9,2.4
	c0.5,2.4,0.6,4.2,0.5,5.3c-0.2,1.1-0.8,2.5-1.9,4.2l-80.2,54.6c-1.8,0.9-3.3,1.2-4.7,1c-1.4-0.2-3-1-4.8-2.4L817.5,691.1z"/>
<path class="st1" d="M521.4,593.7l-38.1,43.1c-0.2,0.2-0.2,0.6,0.1,0.8l23,19.6c0.2,0.2,0.6,0.2,0.8-0.1l30.4-43.3
	c0.1-0.2,0.1-0.5,0-0.7l-15.3-19.5C522,593.4,521.6,593.4,521.4,593.7z M536.4,613.5L506.6,656l-22.2-18.9l37.3-42.2L536.4,613.5z"
	/>
<path class="st2" d="M700.5,622.3l0.4,1.1L619.6,551l-55.3,53.3c16.7,39.8,32.6,64.5,47.8,73.9c15.1,9.4,34.6,6.8,58.4-7.9
	l37.1-14.2L700.5,622.3z"/>
<path class="st1" d="M701.1,622.1l0.4,1c0.1,0.2,0,0.4-0.1,0.5l6.7,32.1c0.1,0.3-0.1,0.5-0.3,0.6l-37.1,14.2
	c-23.9,14.8-43.6,17.4-58.9,7.9c-15.3-9.5-31.2-34.2-48-74.1c-0.1-0.2,0-0.4,0.1-0.6l55.3-53.3c0.2-0.2,0.5-0.2,0.7,0l80.1,71.3
	C700.5,621.6,701,621.6,701.1,622.1z M701.3,623l0-0.1l-0.1-0.1C701.2,622.8,701.3,622.9,701.3,623z M619.7,551.7L565,604.4
	c16.6,39.5,32.4,64,47.4,73.3c14.9,9.3,34.2,6.7,57.8-7.9l0.1,0l36.7-14.1l-6.7-32.1L619.7,551.7z"/>
<path class="st3" d="M679.8,604.9l5.9,5.2c-7.3,12.3-13.4,21.2-18.2,26.9c-4.8,5.7-10.4,11.3-16.6,16.9l-6.8-5.6
	c5.5-5.4,10.7-11,15.4-16.9C664.2,625.6,671,616.7,679.8,604.9z"/>
<path class="st3" d="M753,735.8l127.8-149.4L841,509L711.2,649.1"/>
<path class="st1" d="M679.2,604.2c-8.9,12.7-15.9,22.1-21.1,28.4c-5.2,6.2-10.3,11.5-15.4,15.6c-0.2,0.2-0.3,0.5-0.1,0.8
	c0.2,0.2,0.5,0.3,0.8,0.1c5.1-4.2,10.3-9.5,15.5-15.8c5.2-6.3,12.3-15.8,21.2-28.5c0.2-0.2,0.1-0.6-0.1-0.8
	C679.7,603.9,679.4,604,679.2,604.2z"/>
<path class="st1" d="M685.4,609.7c-7.9,12.7-15.1,22.9-21.7,30.5c-6.6,7.6-11.3,12.2-14.1,13.5c-0.3,0.1-0.4,0.5-0.2,0.7
	c0.1,0.3,0.5,0.4,0.7,0.3c3-1.5,7.8-6.1,14.5-13.8c6.6-7.7,13.9-17.9,21.8-30.7c0.2-0.3,0.1-0.6-0.2-0.8
	C685.9,609.3,685.6,609.4,685.4,609.7z"/>
<path class="st1" d="M880.3,586c0,0-0.1-0.1-0.1-0.1l-39.4-76.3L711.3,649.5c-0.2,0.2-0.6,0.2-0.8,0c-0.2-0.2-0.2-0.6,0-0.8
	l133.3-144l9.1-39.1c0.3-1.4,1.3-2.5,2.6-3c0.5-0.2,1-0.3,1.4-0.3c0-0.1,0-0.1,0.1-0.2c0.1-0.3,0.3-0.6,0.6-0.7
	c0.3-0.2,0.6-0.3,0.9-0.5c2.6-1,5.6,0.3,6.6,2.9l35.2,91.4c1.5,3.9,1,8.6-2.4,10.9l0,0.1c0.1,0.2,0,0.4-0.1,0.5L753.2,736.2
	c-0.2,0.2-0.5,0.3-0.8,0.1c-0.2-0.2-0.3-0.5-0.1-0.8L880.3,586z M881,585.1l15.9-18.6l-37.1-100.9c-0.6-1.6-2.4-2.4-4-1.8
	c-1,0.4-1.7,1.2-2,2.2l-9.2,39.2c0,0.1-0.1,0.2-0.1,0.2l-3.2,3.5c0.1,0,0.2,0.1,0.2,0.2L881,585.1z M858.3,462.6
	c1.2,0.4,2.2,1.3,2.7,2.6l36.8,100.1c2.8-2.2,3-6.1,1.7-9.5l-35.2-91.4c-0.8-2.1-3.1-3.1-5.2-2.3c-0.2,0.1-0.5,0.2-0.7,0.4
	C858.3,462.5,858.3,462.6,858.3,462.6z"/>
<path class="st2" d="M585.9,685.1l16,26.3l65.1,53.6c17.1,14.1,42,13.7,58.6-0.9l11.7-10.2c11.2-9.9,19.2-22.9,22.8-37.4l15.8-64
	l41.6,38.7l55.6-48.7l-86.8-90.1c-9.5-9.9-24-13.1-36.8-8.2c-13.5,5.2-24.4,15.5-30.4,28.7L681.5,657"/>
<path class="st3" d="M717.6,576.3c14.1,4.2,27.8,5.9,41,5c13.2-0.9,25.9-6.7,38.2-17.4c-7.2-9.4-13.6-15.4-19-18.1
	c-6.5-3.2-16.7-4.4-22.1-3.6c-7,1-18.3,7.3-26.1,15.5C725.9,561.6,721.9,567.8,717.6,576.3z"/>
<path class="st1" d="M928.2,646.2l0.2-0.1l0,0c2.7,4,1.7,9.5-2.2,12.2L849,711.4c-3.5,2.4-8.1,2.2-11.3-0.6c-0.2,0-0.4,0-0.5-0.1
	l-60.9-57.4l-15.5,63.1c-3.6,14.6-11.6,27.8-22.9,37.7L726,764.4c-16.9,14.8-42,15.2-59.4,0.9l-65.1-53.6c0,0-0.1-0.1-0.1-0.1
	l-16-26.3c-0.2-0.3-0.1-0.6,0.2-0.8c0.3-0.2,0.6-0.1,0.8,0.2l16,26.2l65,53.6c16.9,13.9,41.5,13.6,57.9-0.9l11.7-10.2
	c11.2-9.8,19-22.7,22.6-37.1l15.8-64c0.1-0.4,0.6-0.6,0.9-0.3l41,38.6l54.9-48.1l-73.3-76.2c-18.5,19.8-45.9,24.2-82.2,13.3
	L682,657.2c-0.1,0.3-0.4,0.4-0.7,0.3c-0.3-0.1-0.4-0.4-0.3-0.7l37.7-84.1c6-13.3,17-23.8,30.7-29c13-5,27.7-1.7,37.4,8.3l86.5,90
	c0.1,0,0.2,0.1,0.3,0.2c0.1,0.1,0.1,0.2,0.1,0.2l6.4,6.7l43.9-5.2c1.6-0.2,3.1,0.5,4,1.8C928,645.8,928.1,646,928.2,646.2z
	 M928.5,648.8c-0.2,1-0.8,2-1.8,2.6l-88.1,58.9c2.8,2.2,6.8,2.3,9.7,0.3l77.2-53.1C928.4,655.4,929.5,651.9,928.5,648.8z
	 M818.1,691.3l19.5,18.3l88.6-59.2c1.4-1,1.8-2.9,0.9-4.3c-0.7-1-1.8-1.5-2.9-1.4l-44.2,5.3c-0.2,0-0.3,0-0.5-0.2l-6.5-6.7
	L818.1,691.3z M798.2,565.4l-12.3-12.8c-9.3-9.7-23.6-12.9-36.2-8.1c-13.4,5.1-24.2,15.4-30.1,28.4l-2.5,5.5
	C753.1,589.3,780.1,584.9,798.2,565.4z"/>
<path class="st2" d="M576.2,559.9L480,690.1c-21.9,29.6-18.2,70.9,8.5,96.2l16.5,15.6c29.2,27.7,75.4,26.5,103.1-2.7
	c1.5-1.6,2.9-3.2,4.2-4.9l45.1-56.8c8.4-10.6,13.7-23.3,15.3-36.7l0.2-1.6c1.7-13.9-3.4-27.7-13.7-37.2l-25.4-23.5
	c-15.2,24-22.4,39.3-21.9,45.9c0.5,5.9-12.6,23.5-39.3,52.8c-5.8,6.4-15.5,7.2-22.3,1.9c-5.5-4.2-6.5-12.1-2.2-17.6
	c0.5-0.6,1-1.2,1.6-1.7l53.2-46.8"/>
<path class="st3" d="M485.5,783.7c3.5,4.1,16.7,16.2,21.3,19.9c4.9,3.9,9.9,7.5,15.8,10.7c5.9,3.2,13.1,5.7,22.9,6.8
	c3.3,0.4,6.8,0.7,10.6,1c-9-17.1-16.2-28.7-21.5-34.7c-4.3-4.9-8.7-9.8-13.6-13.1c-12.3-8.3-29.5-14.8-51.7-19.6
	C470.6,763.1,476,772.7,485.5,783.7z"/>
<path class="st0" d="M611.7,677.1l4.1,8.6c14.1,12.4,22.8,19.8,25.9,22.3c3.3,2.6,10.4,9.5,21.4,20.5c4.4-8.2,7.4-16.1,8.9-23.7
	s1.5-14.6,0.1-21.1c-2.2-8.5-8-16.8-17.4-25c-4.7-4.1-11.9-11-21.7-21c-11.8,13.5-19.7,24-23.5,31.3
	C605.5,676.3,606.3,679,611.7,677.1z"/>
<path class="st1" d="M658.4,662.3c10.1,9.4,15.2,23.1,13.5,36.8l-0.2,1.6c-1.6,13.3-6.8,25.9-15.2,36.4l-45.2,57
	c-1.3,1.6-2.6,3.2-4,4.7c-27.4,29.1-73.3,30.4-102.3,3l-15.8-14.9c-26.4-24.9-30.3-65.6-9-95.1L574.6,561c0.2-0.2,0.1-0.6-0.1-0.8
	c-0.2-0.2-0.6-0.1-0.8,0.1l-94.4,130.8c-21.6,29.9-17.7,71.2,9.2,96.5l15.8,14.9c29.5,27.8,76,26.5,103.9-3c1.4-1.5,2.8-3.1,4.1-4.7
	l45.2-57c8.5-10.7,13.8-23.4,15.4-36.9l0.2-1.6c1.7-14.1-3.5-28.1-13.9-37.7l-25.4-23.5c-0.2-0.2-0.6-0.2-0.8,0
	c-14,14.1-22.2,23.8-24.7,29.1c-1.1,2.4-1.3,5-0.6,7.9c0.4,1.8,0.9,3.2,2,5.8c1,2.2,1.2,2.9,1.3,3.6c0.5,5.7-12.6,23.3-39.2,52.4
	c-5.6,6.1-15,6.9-21.6,1.8c-5.1-4-6.1-11.4-2.1-16.5c0.5-0.6,1-1.2,1.7-1.7l55.8-47.7c0.2-0.2,0.3-0.5,0.1-0.8
	c-0.2-0.2-0.5-0.3-0.8-0.1L549,719.4c-0.7,0.6-1.3,1.2-1.8,1.9c-4.4,5.6-3.3,13.7,2.3,18.1c7,5.4,17.1,4.6,23-2
	c26.9-29.5,40-47.1,39.5-53.2c-0.1-0.9-0.3-1.6-1.4-4c-1.1-2.5-1.6-3.9-2-5.6c-0.6-2.6-0.4-5,0.6-7.2c2.3-5.1,10.4-14.6,24.1-28.4
	L658.4,662.3z"/>
<path class="st4" d="M619.7,550.9c-22-21.9-35.9-36.7-41.7-44.5c-18.6-25.2-33.5-47.7-62.6-36.5s-43.6,43.8-32.5,72.9
	c3.2,8.3,20.5,32.1,52,71.5c21.1-8.2,37.7-15.8,50-22.8C597.3,584.5,608.9,571,619.7,550.9z"/>
<path class="st2" d="M619.6,550.8c-22-21.9-35.9-36.7-41.7-44.5c-18.6-25.2-33.5-47.7-62.6-36.5s-43.6,43.8-32.5,72.9
	c3.2,8.3,20.5,32.1,52,71.5c21.1-8.2,37.7-15.8,50-22.8C597.2,584.5,608.7,570.9,619.6,550.8z"/>
<path class="st5" d="M619.6,550.8c-22-21.9-35.9-36.7-41.7-44.5c-18.6-25.2-33.5-47.7-62.6-36.5s-43.6,43.8-32.5,72.9
	c3.2,8.3,20.5,32.1,52,71.5c21.1-8.2,37.7-15.8,50-22.8C597.2,584.5,608.7,570.9,619.6,550.8z"/>
<path class="st1" d="M620,550.4c-22-21.8-35.9-36.7-41.6-44.4c-0.7-1-4.1-5.5-5-6.7c-10.9-14.8-17.3-22-25.2-27.1
	c-9.9-6.5-20.4-7.6-33-2.8c-29.4,11.3-44.1,44.2-32.8,73.6c3.2,8.4,20.6,32.2,52.1,71.6c0.2,0.2,0.4,0.3,0.6,0.2
	c21.1-8.2,37.8-15.8,50.1-22.8c12.4-7.1,24-20.7,34.9-40.9C620.2,550.9,620.1,550.6,620,550.4z M584.6,591
	c-12.2,7-28.7,14.5-49.5,22.6c-31.3-39.1-48.6-62.8-51.7-71c-11.1-28.8,3.3-61.1,32.2-72.2c12.3-4.7,22.5-3.6,32.1,2.7
	c7.7,5,14,12.2,24.9,26.9c0.9,1.2,4.2,5.7,5,6.7c5.7,7.8,19.5,22.5,41.4,44.2C608.1,570.7,596.7,584.1,584.6,591z"/>
<path class="st1" d="M520.2,556.3c0,0,32.7,0.3,70.1-31.5c0.6-0.5,1.3-1.3,1.9-2.3c-4-3.6-6.5-6.2-7.6-7.6
	c-4.6-6-6.4-10.2-10.3-13.6c-2.5-2.2-4.8-6.7-8-10.6c-1.7-2.1-4.6-5.3-8.7-9.5c-3.8-3.5-6.4-5.7-7.7-6.8c-2-1.7-2.8-3.7-4.3-2.9
	c-8.1,4.5-15.2,13.6-21.3,27.2C510.2,530.2,520.2,556.3,520.2,556.3z"/>
<path class="st0" d="M521.7,505.4c1.3-3.6,2-5.9,3.3-8.7c1.3-2.8,3.1-6.3,6.5-11.5c5,5.6,10.3,11.8,17.2,20.4
	c10.4,12.8,3.7,18-9.2,11.7C530.9,513.1,525.3,509.2,521.7,505.4z M548.3,494.2c1.7-0.5,5.5,6.5,6.5,7.5c0.6,0.6,0.5,1.5-0.1,2.1
	c-0.5,0.5-1.4,0.5-2,0.1c-3.3-2.8-5.1-4.5-5.4-5.2C546.8,496.8,546.6,494.7,548.3,494.2z"/>
<path class="st1" d="M605.1,670.6c22.9-8.8,34.4-34.5,25.6-57.5c-8.8-22.9-34.5-34.4-57.5-25.6c-22.9,8.8-34.4,34.5-25.6,57.5
	C556.4,668,582.1,679.4,605.1,670.6z"/>
<path class="st1" d="M519.4,552.6c-9.7-14.6-10.2-31.7-1.6-51.6c8.7-19.9,16-30.7,21.9-32.4c0.3-0.1,0,0.1-0.1-0.1
	c-0.1-0.3-0.2-0.3-0.5-0.2c-0.2,0-0.1-0.6-0.2-0.5c-6.2,2.3-13.5,13.2-22,32.9c-8.8,20.2-8.2,37.7,1.7,52.6c0.2,0.3,0.5,0.3,0.8,0.2
	C519.5,553.2,519.5,552.9,519.4,552.6z"/>
<path class="st0" d="M574.7,671.8l0.3-45.1l34.2-25.9c1.3-1,3.1-0.7,4.1,0.6c0.6,0.8,0.8,1.8,0.4,2.7l-11.8,34.6l9.3,29.6
	L574.7,671.8z"/>
<path class="st2" d="M574.9,626.8c-3,7.7-4.9,12.7-5.7,15.1c-3.8,12.3-2.2,15.8,2.2,16.7c8.5,1.8,19,8,20.6-2
	C593.1,649.9,587.4,639.9,574.9,626.8z"/>
<path class="st1" d="M574.4,626.5c0.1-0.4,0.6-0.5,0.9-0.2c12.6,13.3,18.4,23.3,17.3,30.2c-0.6,3.9-2.7,5.8-5.9,6
	c-2.4,0.1-4.4-0.3-9.9-2.1c-1.3-0.4-2.1-0.6-2.9-0.9c-0.9-0.3-1.7-0.5-2.5-0.6c-5.3-1.1-6.2-5.8-2.6-17.4
	C569.5,639.3,571.4,634.2,574.4,626.5z M591.6,656.4c1-6.3-4.4-15.9-16.4-28.7c-2.8,7.3-4.6,12-5.3,14.2c-3.4,11.1-2.7,15,1.8,16
	c0.8,0.2,1.6,0.4,2.5,0.6c0.8,0.2,1.6,0.5,2.9,0.9c5.4,1.7,7.4,2.1,9.5,2C589.4,661.3,591,659.8,591.6,656.4z M602.5,636.9
	c0.1-0.3,0.4-0.5,0.7-0.4c0.3,0.1,0.5,0.4,0.4,0.7c-0.9,3.6-2.1,5.8-3.9,6.4c-0.3,0.1-0.6,0-0.7-0.3c-0.1-0.3,0-0.6,0.3-0.7
	C600.6,642.1,601.7,640.2,602.5,636.9z"/>
<path class="st0" d="M520.8,563.1c2.8-1.1,4.2-4.2,3.1-7.1c-1.1-2.8-4.2-4.2-7.1-3.1c-2.8,1.1-4.2,4.2-3.1,7.1
	C514.8,562.8,517.9,564.2,520.8,563.1z"/>
<path class="st1" d="M520.7,563.7c3.1-1.2,4.7-4.7,3.5-7.8c-1.2-3.1-4.7-4.7-7.8-3.5c-3.1,1.2-4.7,4.7-3.5,7.8
	C514.1,563.4,517.6,564.9,520.7,563.7z M520.3,562.7c-2.5,1-5.4-0.3-6.4-2.8c-1-2.5,0.3-5.4,2.8-6.4s5.4,0.3,6.4,2.8
	C524.1,558.9,522.9,561.7,520.3,562.7z"/>
<path class="st1" d="M519.7,561c1.8-0.7,2.7-2.5,2.1-4.1c-0.6-1.6-2.6-2.3-4.3-1.7c-1.8,0.7-2.7,2.5-2.1,4.1
	C515.9,561,517.9,561.7,519.7,561z M519.3,560c-1.2,0.5-2.5,0-2.9-1c-0.4-1,0.3-2.2,1.5-2.7c1.2-0.5,2.5,0,2.9,1
	C521.2,558.3,520.5,559.5,519.3,560z"/>
<path class="st0" d="M610.2,665.9l5.4,19.8l-22.4,28.1l-18.3,20.7l-17-10.7c9.2-4.1,14-7.7,14.3-10.6c1-8.6,1.9-22.3,2.5-41.2
	L610.2,665.9z"/>
<path class="st1" d="M610,665.1c0.3,0,0.5,0.1,0.6,0.4l5.4,19.8c0,0.2,0,0.3-0.1,0.5l-22.4,28.2l-18.3,20.7
	c-0.2,0.2-0.5,0.2-0.7,0.1l-17-10.7c-0.4-0.2-0.3-0.8,0.1-1c9-4.1,13.7-7.5,14-10.1c1-8.6,1.9-22.3,2.5-41.2c0-0.3,0.2-0.5,0.5-0.5
	L610,665.1z M575.1,672.3c-0.7,18.7-1.5,32.3-2.5,40.8c-0.4,3.1-4.9,6.5-13.7,10.6l15.7,9.9l18-20.3l22.2-27.9l-5.2-19.1
	L575.1,672.3z M615,685.1l-0.1,0.5l-0.1-0.3L615,685.1z"/>
<path class="st0" d="M432.5,574.3c-3.4,1.3-7.2-0.4-8.5-3.8c-1.3-3.4,0.4-7.2,3.8-8.5c3.4-1.3,7.2,0.4,8.5,3.8
	C437.6,569.2,435.9,573,432.5,574.3z M498.3,566.7l4,5.5c-0.3,0.3-0.7,0.6-1,0.9c-9.1,8.5-9.6,22.7-1.1,31.8l6.3,6.7l-4.8,5.8
	l-8.2-10.4c-8.8-11.2-7.9-27.2,2.1-37.4L498.3,566.7z"/>
<path class="st1" d="M455.3,591.5c0-0.1-0.1-0.2-0.2-0.3l-20.3-18.4c-0.2-0.2-0.6-0.2-0.8,0c-0.2,0.2-0.2,0.6,0,0.8l20.2,18.3
	l2.1,9.5c0.1,0.2,0.3,0.4,0.5,0.4l10.8,0.3l26.1,22.5c0.2,0.2,0.6,0.2,0.8-0.1s0.2-0.6-0.1-0.8l-26.3-22.6c-0.1-0.1-0.2-0.1-0.3-0.1
	l-10.6-0.3L455.3,591.5z"/>
<path class="st1" d="M432.4,575c-3.7,1.4-7.8-0.4-9.2-4.1c-1.4-3.7,0.4-7.8,4.1-9.2s7.8,0.4,9.2,4.1
	C437.9,569.4,436.1,573.5,432.4,575z M432,573.9c3.1-1.2,4.7-4.7,3.5-7.8c-1.2-3.1-4.7-4.7-7.8-3.5c-3.1,1.2-4.7,4.7-3.5,7.8
	C425.5,573.6,428.9,575.1,432,573.9z M497.7,566.4c0.2-0.2,0.6-0.2,0.8,0.1l4,5.5c0.2,0.2,0.1,0.6-0.1,0.7c-0.3,0.3-0.6,0.6-1,0.8
	c-8.9,8.3-9.4,22.2-1.1,31.1l6.3,6.7c0.2,0.2,0.2,0.5,0,0.7l-4.8,5.8c-0.2,0.3-0.6,0.3-0.9,0l-8.2-10.4c-9-11.4-8.1-27.8,2.1-38.2
	L497.7,566.4z M495.7,570c-9.8,10-10.7,25.7-2,36.7l7.7,9.9l4.1-4.9l-5.9-6.4c-8.7-9.3-8.2-23.9,1.1-32.6c0.2-0.2,0.4-0.4,0.6-0.6
	l-3.3-4.6L495.7,570z"/>
<path class="st1" d="M522.1,769.9c13.6,8.7,26.7,26,39.4,51.7l-1,0.5c-12.8-26-26-43.2-39.6-51.7c-11.1-6.9-22.1-11.9-32.7-15.3
	c-7.8-2.5-14.7-3.8-20.6-4.4l0.1-1.1c5.9,0.6,12.9,2,20.8,4.5c10.6,3.4,21.6,8.3,32.7,15.2l27.2-31.7c0.2-0.2,0.5-0.3,0.8-0.1
	c0.2,0.2,0.3,0.5,0.1,0.8L522.1,769.9z M567.1,741.6c-0.2-0.2-0.3-0.5-0.1-0.8s0.5-0.3,0.8-0.1l51.7,44c0.2,0.2,0.3,0.5,0.1,0.8
	c-0.2,0.2-0.5,0.3-0.8,0.1L567.1,741.6z M547,722.4c0.2,0.2,0.2,0.6,0,0.8c-0.2,0.2-0.6,0.2-0.8,0l-53.6-49.7
	c-0.2-0.2-0.2-0.6,0-0.8c0.2-0.2,0.6-0.2,0.8,0L547,722.4z"/>
<path class="st5" d="M535.4,614.5l26.8,24.9"/>
<path class="st5" d="M615.7,685.5l47.3,42.7"/>
<path class="st1" d="M948.5,279.3c0.2-0.2,0.6-0.1,0.8,0.1c0.2,0.2,0.1,0.6-0.1,0.8L910.5,309c-9.4,7-11.4,20.4-4.3,29.9
	c1.6,2.2,3.7,4.1,6,5.5l9.5,5.8c9.2,5.6,12.1,17.6,6.6,26.8c-2.5,4.1-6.5,7.2-11.1,8.6l-22.5,6.7c-11.4,3.4-20.5,12.1-24.5,23.3
	l-5.9,16.5c-0.1,0.3-0.4,0.4-0.7,0.3c-0.3-0.1-0.4-0.4-0.3-0.7l5.9-16.5c4.1-11.6,13.5-20.5,25.2-24l22.5-6.7
	c4.4-1.3,8.1-4.2,10.5-8.1c5.3-8.7,2.5-20-6.2-25.3l-9.5-5.8c-2.5-1.5-4.6-3.5-6.4-5.8c-7.4-9.9-5.4-24,4.6-31.4L948.5,279.3z
	 M930.1,456.1l-3.4-8.9c-0.1-0.4,0-0.8,0.4-0.9c0.4-0.1,0.8,0,0.9,0.4l3.4,8.9l8.9-3.4c0.4-0.1,0.8,0,0.9,0.4c0.1,0.4,0,0.8-0.4,0.9
	l-8.9,3.4l3.4,8.9c0.1,0.4,0,0.8-0.4,0.9c-0.4,0.1-0.8,0-0.9-0.4l-3.4-8.9l-8.9,3.4c-0.4,0.1-0.8,0-0.9-0.4c-0.1-0.4,0-0.8,0.4-0.9
	L930.1,456.1z M527.8,360.4l-3.4-8.9c-0.1-0.4,0-0.8,0.4-0.9c0.4-0.1,0.8,0,0.9,0.4l3.4,8.9l8.9-3.4c0.4-0.1,0.8,0,0.9,0.4
	c0.1,0.4,0,0.8-0.4,0.9l-8.9,3.4l3.4,8.9c0.1,0.4,0,0.8-0.4,0.9c-0.4,0.1-0.8,0-0.9-0.4l-3.4-8.9l-8.9,3.4c-0.4,0.1-0.8,0-0.9-0.4
	s0-0.8,0.4-0.9L527.8,360.4z M831.7,289.1l-3.4-8.9c-0.1-0.4,0-0.8,0.4-0.9c0.4-0.1,0.8,0,0.9,0.4l3.4,8.9l8.9-3.4
	c0.4-0.1,0.8,0,0.9,0.4c0.1,0.4,0,0.8-0.4,0.9l-8.9,3.4l3.4,8.9c0.1,0.4,0,0.8-0.4,0.9c-0.4,0.1-0.8,0-0.9-0.4l-3.4-8.9l-8.9,3.4
	c-0.4,0.1-0.8,0-0.9-0.4c-0.1-0.4,0-0.8,0.4-0.9L831.7,289.1z M403.7,658.1l-2.6-6.8c-0.1-0.4,0-0.8,0.4-0.9s0.8,0,0.9,0.4l2.6,6.8
	l6.8-2.6c0.4-0.1,0.8,0,0.9,0.4c0.1,0.4,0,0.8-0.4,0.9l-6.8,2.6l2.6,6.8c0.1,0.4,0,0.8-0.4,0.9c-0.4,0.1-0.8,0-0.9-0.4l-2.6-6.8
	l-6.8,2.6c-0.4,0.1-0.8,0-0.9-0.4c-0.1-0.4,0-0.8,0.4-0.9L403.7,658.1z M783.6,399l-2.5-6.5c-0.1-0.4,0-0.8,0.4-0.9
	c0.4-0.1,0.8,0,0.9,0.4l2.5,6.5l6.5-2.5c0.4-0.1,0.8,0,0.9,0.4c0.1,0.4,0,0.8-0.4,0.9l-6.5,2.5l2.5,6.5c0.1,0.4,0,0.8-0.4,0.9
	c-0.4,0.1-0.8,0-0.9-0.4l-2.5-6.5l-6.5,2.5c-0.4,0.1-0.8,0-0.9-0.4s0-0.8,0.4-0.9L783.6,399z M602.9,445.3l-2.5-6.5
	c-0.1-0.4,0-0.8,0.4-0.9c0.4-0.1,0.8,0,0.9,0.4l2.5,6.5l6.5-2.5c0.4-0.1,0.8,0,0.9,0.4c0.1,0.4,0,0.8-0.4,0.9l-6.5,2.5l2.5,6.5
	c0.1,0.4,0,0.8-0.4,0.9c-0.4,0.1-0.8,0-0.9-0.4l-2.5-6.5l-6.5,2.5c-0.4,0.1-0.8,0-0.9-0.4c-0.1-0.4,0-0.8,0.4-0.9L602.9,445.3z"/>
<path class="st2" d="M592.9,619.4c-4.2-1.1-7.2-0.7-8.8,1.3c-2.5,3-5.2,8.1-1.2,11.7c4,3.6,7.1,6.4,9.4,5.6c2.3-0.9,6.5-2,6.9-7.7
	C599.4,626.5,597.3,622.8,592.9,619.4z"/>
<path class="st0" d="M593.5,621.5c0.7,2.5,0.5,4.4-0.6,5.6c-1,1.1-2.7,2.1-5.2,3.2c-1.1,0.5-2.4,0-2.9-1.1c-0.2-0.4-0.2-0.8-0.2-1.2
	c0.5-3,1.1-4.9,2-5.9c0.9-1,2.4-1.7,4.3-2.1C592.1,619.8,593.2,620.4,593.5,621.5z"/>
<path class="st1" d="M593,622.7c-0.1,0.7-0.7,1.3-1.5,1.6c-1.1,0.4-2.3,0-2.7-0.9c-0.4-0.9,0.2-2,1.3-2.5c-1.5,0.4-2.5,1-3.3,1.8
	c-0.8,0.9-1.4,2.8-1.9,5.6c0,0.3,0,0.6,0.1,0.9c0.4,0.8,1.3,1.2,2.2,0.9c2.5-1.1,4.1-2.1,5-3.1C593.1,626,593.4,624.6,593,622.7z
	 M591.1,620.7c0.2,0,0.4,0,0.6,0.1C591.5,620.7,591.3,620.7,591.1,620.7z M593.8,621.6c0.7,2.7,0.5,4.7-0.7,6.1
	c-1,1.1-2.8,2.3-5.4,3.4c-1.4,0.6-3,0-3.6-1.4c-0.2-0.5-0.3-1-0.2-1.5c0.5-3.1,1.2-5.1,2.2-6.2c1-1.1,2.5-1.9,4.6-2.3
	C592,619.4,593.4,620.2,593.8,621.6z"/>
<path class="st2" d="M610,600.2c-1.7,0.2-3.3,1.1-4.7,2.8c-0.3,0.3-0.2,0.8,0.1,1c0.1,0.1,0.1,0.1,0.2,0.1c0.9,0.3,1.9,0.4,2.8,0.1
	c1.3-0.4,2.8-0.9,4.4-1.7C612.9,600.7,612,600,610,600.2z"/>
<path class="st1" d="M610.2,599.5c-1.9,0.2-3.6,1.2-5.1,2.9c-0.5,0.5-0.4,1.3,0.1,1.8c0.1,0.1,0.2,0.2,0.4,0.2
	c1,0.4,2.1,0.4,3.2,0.1c1.3-0.4,2.8-1,4.5-1.7c0.2-0.1,0.3-0.3,0.3-0.5C613.8,600.2,612.5,599.2,610.2,599.5z M608.6,603.5
	c-0.9,0.3-1.7,0.2-2.5-0.1c0,0,0,0-0.1,0c-0.1-0.1-0.1-0.2,0-0.3c1.3-1.5,2.8-2.4,4.4-2.6c1.5-0.2,2.2,0.2,2.2,1.4
	C611.1,602.6,609.8,603.1,608.6,603.5z"/>
<path class="st0" d="M957.7,240.8l-6.2,4.3l23.9,10.4l-0.6-7.6"/>
<path class="st0" d="M829.5,687.7c2.8-1.1,4.2-4.2,3.1-7.1c-1.1-2.8-4.2-4.2-7.1-3.1c-2.8,1.1-4.2,4.2-3.1,7.1
	C823.5,687.3,826.7,688.8,829.5,687.7z"/>
<path class="st1" d="M829.4,688.3c3.1-1.2,4.7-4.7,3.5-7.8c-1.2-3.1-4.7-4.7-7.8-3.5c-3.1,1.2-4.7,4.7-3.5,7.8
	C822.9,687.9,826.3,689.5,829.4,688.3z M829.1,687.3c-2.5,1-5.4-0.3-6.4-2.8c-1-2.5,0.3-5.4,2.8-6.4c2.5-1,5.4,0.3,6.4,2.8
	C832.9,683.4,831.6,686.3,829.1,687.3z"/>
<path class="st0" d="M875.4,577.1c2.8-1.1,4.2-4.2,3.1-7.1c-1.1-2.8-4.2-4.2-7.1-3.1c-2.8,1.1-4.2,4.2-3.1,7.1
	C869.4,576.8,872.5,578.2,875.4,577.1z"/>
<path class="st1" d="M875.6,577.6c3.1-1.2,4.7-4.7,3.5-7.8c-1.2-3.1-4.7-4.7-7.8-3.5c-3.1,1.2-4.7,4.7-3.5,7.8
	C869,577.2,872.5,578.8,875.6,577.6z M875.2,576.6c-2.5,1-5.4-0.3-6.4-2.8c-1-2.5,0.3-5.4,2.8-6.4c2.5-1,5.4,0.3,6.4,2.8
	S877.7,575.6,875.2,576.6z"/>
<path class="st1" d="M828.4,685.5c1.8-0.7,2.7-2.5,2.1-4.1c-0.6-1.6-2.6-2.3-4.3-1.7c-1.8,0.7-2.7,2.5-2.1,4.1
	C824.7,685.5,826.6,686.2,828.4,685.5z M828,684.5c-1.2,0.5-2.5,0-2.9-1c-0.4-1,0.3-2.2,1.5-2.7c1.2-0.5,2.5,0,2.9,1
	C829.9,682.8,829.2,684.1,828,684.5z"/>
<path class="st1" d="M874.5,574.9c1.8-0.7,2.7-2.5,2.1-4.1c-0.6-1.6-2.6-2.3-4.3-1.7c-1.8,0.7-2.7,2.5-2.1,4.1
	C870.8,574.8,872.7,575.6,874.5,574.9z M874.1,573.9c-1.2,0.5-2.5,0-2.9-1c-0.4-1,0.3-2.2,1.5-2.7c1.2-0.5,2.5,0,2.9,1
	C876,572.2,875.4,573.4,874.1,573.9z"/>
<path class="st1" d="M523.5,556.7c7.2,2.8,19.7,0.5,37.6-6.9c17.8-7.4,29.6-15,35.2-23c0.2-0.2,0.1-0.6-0.1-0.8
	c-0.2-0.2-0.6-0.1-0.8,0.1c-5.5,7.8-17.1,15.3-34.8,22.6c-17.6,7.3-29.9,9.5-36.8,6.9c-0.3-0.1-0.6,0-0.7,0.3
	C523,556.2,523.2,556.6,523.5,556.7z"/>
<path class="st2" d="M1023.7,100.7c-14.7,12.3-28,29.2-39.8,50.8c-12.3,22.2-23.7,50.7-34.5,85.5l32.3,13.7
	c17.6-32.2,30.1-60.2,37.6-84.2c7.2-23.2,10.3-44.5,9.2-63.8c-0.1-1.1-0.8-2.1-1.8-2.5C1025.7,99.8,1024.5,100,1023.7,100.7z"/>
<path class="st3" d="M1001.9,123.9l24.4,9.8c3-21.5,3.1-32.7,0.3-33.7C1023.9,98.9,1015.7,106.8,1001.9,123.9z"/>
<path class="st1" d="M971.6,254.1l-5.7,17.1l-2.8-10.3l-7.7,5.3l0.5-8.8l-9.9,3.8l8.6-14.5l-4.4-1.9l7-4.9l0.6,0.9l-5.4,3.8
	l22.2,9.6l-0.5-6.7l1.1-0.1l0.6,8.5L971.6,254.1z"/>
<path class="st1" d="M983.3,151c-12.3,22.3-23.8,50.8-34.5,85.6c-0.1,0.3,0,0.6,0.3,0.7l32.3,13.7c0.3,0.1,0.6,0,0.7-0.2
	c17.6-32.2,30.2-60.3,37.6-84.3c7.3-23.3,10.3-44.6,9.3-64c-0.1-1.3-0.9-2.5-2.1-3c-1.2-0.5-2.6-0.3-3.6,0.5
	C1008.5,112.4,995.2,129.4,983.3,151z M949.9,236.5c10.7-34.5,22.1-62.8,34.3-84.9c11.8-21.5,25.1-38.4,39.7-50.7
	c0.7-0.6,1.6-0.7,2.5-0.4c0.8,0.3,1.4,1.1,1.4,2c1.1,19.3-2,40.5-9.2,63.6c-7.4,23.8-19.8,51.6-37.3,83.6L949.9,236.5z"/>
<path class="st0" d="M970.6,187.4l-1,6.6l-20,42.7l-23.2,10.5l-2.8-1.2L970.6,187.4z M1003.2,201.1l-10.9,74.2l-2.7-1.2l-8.1-24.1
	l17.6-43.7L1003.2,201.1z"/>
<path class="st1" d="M969.9,187.5c0.3-0.4,1.1-0.1,1,0.4l-1,6.6l0,0.2l-19.9,42.7c-0.1,0.1-0.2,0.2-0.3,0.3L926.5,248
	c-0.1,0.1-0.3,0.1-0.4,0l-2.8-1.2c-0.3-0.1-0.4-0.6-0.2-0.8L969.9,187.5z M924.4,246.2l1.9,0.8l22.7-10.3l19.8-42.4l0.7-4.5
	L924.4,246.2z M968.9,194.1l0,0.2L968.9,194.1L968.9,194.1z M1002.6,201.2c0.3-0.4,1-0.1,1,0.4l-10.9,74.2c-0.1,0.4-0.4,0.6-0.8,0.4
	l-2.7-1.2c-0.1-0.1-0.2-0.2-0.3-0.3l-8.1-24.1c0-0.1,0-0.3,0-0.4l17.6-43.7l0.1-0.1L1002.6,201.2z M999.3,207l-17.5,43.4l8,23.7
	l1.9,0.8l10.5-71.5L999.3,207z"/>
<path class="st0" d="M1006.8,167.3c5.6-2.2,8.5-8.5,6.3-14.1c-2.2-5.6-8.5-8.5-14.1-6.3c-5.6,2.2-8.5,8.5-6.3,14.1
	C994.8,166.6,1001.2,169.4,1006.8,167.3z"/>
<path class="st1" d="M1007,167.5c5.9-2.3,8.9-8.9,6.6-14.8c-2.3-5.9-8.9-8.9-14.8-6.6c-5.9,2.3-8.9,8.9-6.6,14.8
	C994.5,166.8,1001.1,169.8,1007,167.5z M1006.7,166.5c-5.4,2.1-11.4-0.6-13.4-6c-2.1-5.4,0.6-11.4,6-13.4c5.4-2.1,11.4,0.6,13.4,6
	S1012,164.4,1006.7,166.5z"/>
<path class="st1" d="M1004.9,162.3c-2.9,1.1-6.2-0.3-7.3-3.3c-1.1-2.9,0.3-6.2,3.3-7.3c2.9-1.1,6.2,0.3,7.3,3.3
	S1007.8,161.2,1004.9,162.3z M1004.5,161.3c2.3-0.9,3.5-3.5,2.6-5.9c-0.9-2.3-3.5-3.5-5.9-2.6c-2.4,0.9-3.5,3.5-2.6,5.9
	C999.5,161,1002.2,162.2,1004.5,161.3z M1001.5,124l0.4-1l24.7,10l-0.4,1L1001.5,124z"/>
<path class="st1" d="M727.8,477.4c-10.7,14.3-17.1,26.4-19.4,36.5c-2.2,10.1-1.8,25.5,1.2,46.2l1.1-0.2c-3-20.6-3.4-35.9-1.3-45.8
	c2.2-9.9,8.6-21.9,19.2-36.1L727.8,477.4z"/>
<path class="st0" d="M574.8,668.6c6.2-0.2,11.9-0.6,16.9-1.4c4.9-0.8,10.6-2,17.1-3.6c1.4-0.3,2.8,0.5,3.1,1.8c0,0.1,0,0.2,0.1,0.3
	l0,0.3c0.2,1.5-0.8,2.9-2.2,3.2c-6,1.4-11.7,2.5-17.1,3.4c-5.4,0.9-11.2,1.1-17.3,0.6c-1.3-0.1-2.4-1.1-2.6-2.5
	c-0.1-1.1,0.7-2.1,1.8-2.3C574.7,668.6,574.8,668.6,574.8,668.6z"/>
<path class="st1" d="M597.4,667.2c-1.9,0.4-3.6,0.7-5.3,0.9c-2.1,0.3-4.2,0.5-6.6,0.7l0.5,3.5c2.3-0.2,4.5-0.4,6.7-0.8
	c1.7-0.3,3.4-0.6,5.2-0.9L597.4,667.2z M598.5,667l0.5,3.3c3.5-0.7,7-1.4,10.8-2.3c0.9-0.2,1.5-1.1,1.4-2l0-0.3c0-0.1,0-0.1,0-0.2
	c-0.2-0.8-1-1.3-1.8-1.1C605.4,665.5,601.8,666.4,598.5,667z M584.5,668.9c-3,0.1-6.2,0.1-9.6,0c-0.1,0-0.2,0-0.2,0
	c-0.7,0.1-1.3,0.8-1.2,1.5l0.1,0.5c0.1,0.9,0.8,1.6,1.7,1.6c3.4,0.1,6.6,0.1,9.7-0.1L584.5,668.9z M574.9,667.8
	c6.4,0.3,12.1,0.1,17-0.7c4.9-0.8,10.6-2,17.1-3.6c1.4-0.3,2.8,0.5,3.1,1.8c0,0.1,0,0.2,0.1,0.3l0,0.3c0.2,1.5-0.8,2.9-2.2,3.2
	c-6,1.4-11.7,2.5-17.1,3.4c-5.4,0.9-11.3,1.2-17.7,1c-1.4-0.1-2.6-1.1-2.8-2.6l-0.1-0.5c-0.2-1.3,0.8-2.6,2.1-2.7
	C574.6,667.8,574.8,667.8,574.9,667.8z"/>
<path class="st2" d="M492.8,636l4-3.9l8.6,8l-3.6,4.9L492.8,636z M510.3,633.6c-1.3,0.5-2.6,0.8-3.8,0.3c-1.2-0.5-2.3-1.9-2.8-3.2
	c-0.4-1.1-0.6-2.8-0.3-3.8c0.4-1.5,1.7-2.2,3.2-2.8c1.4-0.5,2.6-0.9,3.8-0.3c1.1,0.5,2.3,2,2.8,3.2c0.6,1.6,0.7,3.4-0.1,4.7
	C512.5,632.6,511.3,633.2,510.3,633.6z"/>
<path class="st1" d="M492.4,635.8l4.8-4.6l9.3,8.7l-4.3,5.8L492.4,635.8z M502.1,644.1l2.9-4l-7.8-7.4l-3.2,3.1L502.1,644.1z
	 M510.8,633.9c-1.6,0.6-3,0.8-4.2,0.3c-1.3-0.5-2.5-1.9-3.1-3.5c-0.5-1.3-0.6-3-0.3-4.1c0.4-1.5,1.6-2.4,3.6-3.2
	c1.9-0.7,3-0.9,4.2-0.3c1.2,0.6,2.5,2.1,3.1,3.5c0.7,1.9,0.7,3.8-0.2,5.2C513.3,632.8,512.3,633.4,510.8,633.9z M510.4,632.9
	c1.3-0.5,2.1-1,2.5-1.6c0.7-1.1,0.7-2.7,0.1-4.2c-0.4-1.2-1.6-2.5-2.5-2.9c-0.9-0.4-1.7-0.3-3.4,0.3c-1.7,0.7-2.6,1.3-2.9,2.4
	c-0.3,0.9-0.1,2.4,0.3,3.4c0.5,1.3,1.5,2.5,2.5,2.9C507.9,633.6,509,633.5,510.4,632.9z"/>
<path class="st0" d="M704.8,390.2l-59.3,22.7c-1.1,0.4-1.7,1.7-1.3,2.8c0.4,1.1,1.7,1.7,2.8,1.3l59.3-22.7c1.1-0.4,1.7-1.7,1.3-2.8
	C707.2,390.3,705.9,389.7,704.8,390.2z"/>
<path class="st1" d="M645.6,412.9l59.3-22.7c1.1-0.4,2.4,0.1,2.8,1.3c0.4,1.1-0.1,2.4-1.3,2.8L647.1,417c-1.1,0.4-2.4-0.1-2.8-1.3
	C643.9,414.6,644.4,413.3,645.6,412.9z M646,413.9c-0.6,0.2-0.8,0.9-0.6,1.4c0.2,0.6,0.8,0.8,1.4,0.6l59.3-22.7
	c0.6-0.2,0.8-0.8,0.6-1.4c-0.2-0.6-0.8-0.8-1.4-0.6L646,413.9z"/>
<path class="st6" d="M663.8,726.8l-47.2-42.5c-0.7-0.6-1.7-0.6-2.3,0.1c-0.6,0.7-0.6,1.7,0.1,2.3l47.2,42.5c0.7,0.6,1.7,0.6,2.3-0.1
	C664.6,728.4,664.5,727.4,663.8,726.8z"/>
<path class="st0" d="M595.3,597.3c-1.3,2.4-13.1-1.1-15.3-1.2c-1.2,0-2.2-1.1-2.1-2.3c0-1.1,0.9-2,2-2.1c6.6-0.6,10.5-0.6,11.5-0.1
	C594.1,592.8,596.6,594.9,595.3,597.3z"/>
<path class="st0" d="M658.9,626.1l15.4-20.7c0.2-0.3,0.7-0.4,1-0.2c0,0,0,0,0,0l13,10.5c0.3,0.2,0.4,0.7,0.1,1l-15,20.6
	c-0.2,0.3-0.7,0.4-1,0.2c0,0,0,0,0,0L659,627.2C658.7,626.9,658.6,626.5,658.9,626.1z"/>
<path class="st1" d="M658,626.7l16.2-21.6c0.2-0.3,0.7-0.4,1-0.1l14,10.5c0.3,0.2,0.4,0.7,0.1,1l-16.2,21.6c-0.2,0.3-0.7,0.4-1,0.1
	l-14-10.5C657.8,627.5,657.8,627,658,626.7z M659.1,627.1l13.4,10.1l15.8-21l-13.4-10.1L659.1,627.1z"/>
<path class="st1" d="M663.2,625l10.5-14c0.2-0.3,0.7-0.4,1-0.1l9.3,7c0.3,0.2,0.4,0.7,0.1,1l-10.5,14c-0.2,0.3-0.7,0.4-1,0.1l-9.3-7
	C663,625.7,663,625.3,663.2,625z M673.1,631.9l10.1-13.4l-8.7-6.6l-10.1,13.4L673.1,631.9z"/>
</svg>
