<svg width="25" height="25" viewBox="0 0 25 25" fill="none" xmlns="http://www.w3.org/2000/svg">
<path fill-rule="evenodd" clip-rule="evenodd" d="M16.4697 13.4697C16.7626 13.1768 17.2374 13.1768 17.5303 13.4697L20.5303 16.4697C20.8232 16.7626 20.8232 17.2374 20.5303 17.5303L17.5303 20.5303C17.2374 20.8232 16.7626 20.8232 16.4697 20.5303C16.1768 20.2374 16.1768 19.7626 16.4697 19.4697L18.9393 17L16.4697 14.5303C16.1768 14.2374 16.1768 13.7626 16.4697 13.4697Z" fill="white"/>
<path fill-rule="evenodd" clip-rule="evenodd" d="M4.25 17C4.25 16.5858 4.58579 16.25 5 16.25H20C20.4142 16.25 20.75 16.5858 20.75 17C20.75 17.4142 20.4142 17.75 20 17.75H5C4.58579 17.75 4.25 17.4142 4.25 17Z" fill="white"/>
<path fill-rule="evenodd" clip-rule="evenodd" d="M8.53033 4.46967C8.82322 4.76256 8.82322 5.23744 8.53033 5.53033L6.06066 8L8.53033 10.4697C8.82322 10.7626 8.82322 11.2374 8.53033 11.5303C8.23744 11.8232 7.76256 11.8232 7.46967 11.5303L4.46967 8.53033C4.17678 8.23744 4.17678 7.76256 4.46967 7.46967L7.46967 4.46967C7.76256 4.17678 8.23744 4.17678 8.53033 4.46967Z" fill="white"/>
<path fill-rule="evenodd" clip-rule="evenodd" d="M4.25 8C4.25 7.58579 4.58579 7.25 5 7.25H20C20.4142 7.25 20.75 7.58579 20.75 8C20.75 8.41421 20.4142 8.75 20 8.75H5C4.58579 8.75 4.25 8.41421 4.25 8Z" fill="white"/>
</svg>
