<svg width="309" height="177" viewBox="0 0 309 177" fill="none" xmlns="http://www.w3.org/2000/svg">
<path d="M53.5763 55.15C53.9763 55.15 54.3763 55.2333 54.7763 55.4C55.1763 55.5333 55.5596 55.7833 55.9263 56.15L62.6263 63.2C59.6929 67.0333 56.0096 69.9333 51.5763 71.9C47.1763 73.8333 41.9596 74.8 35.9263 74.8C30.3929 74.8 25.4263 73.8667 21.0263 72C16.6596 70.1 12.9429 67.5 9.87627 64.2C6.84294 60.8667 4.5096 56.9333 2.87627 52.4C1.24294 47.8333 0.42627 42.8833 0.42627 37.55C0.42627 32.1167 1.3096 27.1333 3.07627 22.6C4.84294 18.0333 7.32627 14.1 10.5263 10.8C13.7263 7.5 17.5596 4.93333 22.0263 3.09999C26.4929 1.26666 31.4096 0.349998 36.7763 0.349998C39.5096 0.349998 42.0763 0.599997 44.4763 1.1C46.9096 1.56666 49.1763 2.23333 51.2763 3.09999C53.3763 3.93333 55.3096 4.95 57.0763 6.14999C58.8429 7.34999 60.4096 8.65 61.7763 10.05L56.0763 17.7C55.7096 18.1667 55.2763 18.6 54.7763 19C54.2763 19.3667 53.5763 19.55 52.6763 19.55C52.0763 19.55 51.5096 19.4167 50.9763 19.15C50.4429 18.8833 49.8763 18.5667 49.2763 18.2C48.6763 17.8 48.0096 17.3833 47.2763 16.95C46.5763 16.4833 45.7263 16.0667 44.7263 15.7C43.7596 15.3 42.6096 14.9667 41.2763 14.7C39.9763 14.4333 38.4429 14.3 36.6763 14.3C33.8763 14.3 31.3096 14.8167 28.9763 15.85C26.6763 16.8833 24.6763 18.4 22.9763 20.4C21.3096 22.3667 20.0096 24.8 19.0763 27.7C18.1763 30.5667 17.7263 33.85 17.7263 37.55C17.7263 41.2833 18.2263 44.6 19.2263 47.5C20.2596 50.4 21.6429 52.85 23.3763 54.85C25.1429 56.8167 27.1929 58.3167 29.5263 59.35C31.8596 60.3833 34.3596 60.9 37.0263 60.9C38.5596 60.9 39.9596 60.8333 41.2263 60.7C42.4929 60.5333 43.6763 60.2833 44.7763 59.95C45.8763 59.5833 46.9096 59.1167 47.8763 58.55C48.8429 57.95 49.8263 57.2 50.8263 56.3C51.2263 55.9667 51.6596 55.7 52.1263 55.5C52.5929 55.2667 53.0763 55.15 53.5763 55.15ZM84.7036 30.15C86.3036 27.35 88.1369 25.15 90.2036 23.55C92.3036 21.95 94.7036 21.15 97.4036 21.15C99.7369 21.15 101.637 21.7 103.104 22.8L102.104 34.2C101.937 34.9333 101.654 35.4333 101.254 35.7C100.887 35.9667 100.37 36.1 99.7036 36.1C99.4369 36.1 99.0869 36.0833 98.6536 36.05C98.2203 36.0167 97.7703 35.9833 97.3036 35.95C96.8369 35.8833 96.3536 35.8333 95.8536 35.8C95.3869 35.7333 94.9536 35.7 94.5536 35.7C92.2869 35.7 90.4703 36.3 89.1036 37.5C87.7703 38.7 86.6369 40.3667 85.7036 42.5V74H70.2036V22.15H79.4036C80.1703 22.15 80.8036 22.2167 81.3036 22.35C81.8369 22.4833 82.2703 22.7 82.6036 23C82.9703 23.2667 83.2369 23.6333 83.4036 24.1C83.6036 24.5667 83.7703 25.1333 83.9036 25.8L84.7036 30.15ZM141.758 41.85C141.758 40.6167 141.592 39.4167 141.258 38.25C140.958 37.0833 140.442 36.05 139.708 35.15C139.008 34.2167 138.075 33.4667 136.908 32.9C135.742 32.3333 134.325 32.05 132.658 32.05C129.725 32.05 127.425 32.9 125.758 34.6C124.092 36.2667 122.992 38.6833 122.458 41.85H141.758ZM122.258 50.85C122.758 55.1833 124.075 58.3333 126.208 60.3C128.342 62.2333 131.092 63.2 134.458 63.2C136.258 63.2 137.808 62.9833 139.108 62.55C140.408 62.1167 141.558 61.6333 142.558 61.1C143.592 60.5667 144.525 60.0833 145.358 59.65C146.225 59.2167 147.125 59 148.058 59C149.292 59 150.225 59.45 150.858 60.35L155.358 65.9C153.758 67.7333 152.025 69.2333 150.158 70.4C148.325 71.5333 146.425 72.4333 144.458 73.1C142.525 73.7333 140.575 74.1667 138.608 74.4C136.675 74.6667 134.825 74.8 133.058 74.8C129.425 74.8 126.008 74.2167 122.808 73.05C119.642 71.85 116.858 70.0833 114.458 67.75C112.092 65.4167 110.208 62.5167 108.808 59.05C107.442 55.5833 106.758 51.55 106.758 46.95C106.758 43.4833 107.342 40.2 108.508 37.1C109.708 34 111.408 31.2833 113.608 28.95C115.842 26.6167 118.525 24.7667 121.658 23.4C124.825 22.0333 128.392 21.35 132.358 21.35C135.792 21.35 138.925 21.8833 141.758 22.95C144.625 24.0167 147.075 25.5667 149.108 27.6C151.175 29.6333 152.775 32.1333 153.908 35.1C155.075 38.0333 155.658 41.3667 155.658 45.1C155.658 46.2667 155.608 47.2167 155.508 47.95C155.408 48.6833 155.225 49.2667 154.958 49.7C154.692 50.1333 154.325 50.4333 153.858 50.6C153.425 50.7667 152.858 50.85 152.158 50.85H122.258ZM192.165 52.9C189.065 53.0333 186.515 53.3 184.515 53.7C182.515 54.1 180.931 54.6 179.765 55.2C178.598 55.8 177.781 56.4833 177.315 57.25C176.881 58.0167 176.665 58.85 176.665 59.75C176.665 61.5167 177.148 62.7667 178.115 63.5C179.081 64.2 180.498 64.55 182.365 64.55C184.365 64.55 186.115 64.2 187.615 63.5C189.115 62.8 190.631 61.6667 192.165 60.1V52.9ZM164.265 29.35C167.398 26.5833 170.865 24.5333 174.665 23.2C178.498 21.8333 182.598 21.15 186.965 21.15C190.098 21.15 192.915 21.6667 195.415 22.7C197.948 23.7 200.081 25.1167 201.815 26.95C203.581 28.75 204.931 30.9 205.865 33.4C206.798 35.9 207.265 38.6333 207.265 41.6V74H200.165C198.698 74 197.581 73.8 196.815 73.4C196.081 73 195.465 72.1667 194.965 70.9L193.865 68.05C192.565 69.15 191.315 70.1167 190.115 70.95C188.915 71.7833 187.665 72.5 186.365 73.1C185.098 73.6667 183.731 74.0833 182.265 74.35C180.831 74.65 179.231 74.8 177.465 74.8C175.098 74.8 172.948 74.5 171.015 73.9C169.081 73.2667 167.431 72.35 166.065 71.15C164.731 69.95 163.698 68.4667 162.965 66.7C162.231 64.9 161.865 62.8333 161.865 60.5C161.865 58.6333 162.331 56.75 163.265 54.85C164.198 52.9167 165.815 51.1667 168.115 49.6C170.415 48 173.515 46.6667 177.415 45.6C181.315 44.5333 186.231 43.9333 192.165 43.8V41.6C192.165 38.5667 191.531 36.3833 190.265 35.05C189.031 33.6833 187.265 33 184.965 33C183.131 33 181.631 33.2 180.465 33.6C179.298 34 178.248 34.45 177.315 34.95C176.415 35.45 175.531 35.9 174.665 36.3C173.798 36.7 172.765 36.9 171.565 36.9C170.498 36.9 169.598 36.6333 168.865 36.1C168.131 35.5667 167.531 34.9333 167.065 34.2L164.265 29.35ZM236.941 74.8C234.474 74.8 232.291 74.45 230.391 73.75C228.524 73.0167 226.941 72 225.641 70.7C224.374 69.3667 223.408 67.7667 222.741 65.9C222.074 64.0333 221.741 61.95 221.741 59.65V32.85H217.341C216.541 32.85 215.858 32.6 215.291 32.1C214.724 31.5667 214.441 30.8 214.441 29.8V23.75L222.691 22.15L225.741 9.5C226.141 7.9 227.274 7.1 229.141 7.1H237.241V22.25H250.091V32.85H237.241V58.6C237.241 59.8 237.524 60.8 238.091 61.6C238.691 62.3667 239.541 62.75 240.641 62.75C241.208 62.75 241.674 62.7 242.041 62.6C242.441 62.4667 242.774 62.3333 243.041 62.2C243.341 62.0333 243.608 61.9 243.841 61.8C244.108 61.6667 244.408 61.6 244.741 61.6C245.208 61.6 245.574 61.7167 245.841 61.95C246.141 62.15 246.441 62.4833 246.741 62.95L251.441 70.3C249.441 71.8 247.191 72.9333 244.691 73.7C242.191 74.4333 239.608 74.8 236.941 74.8ZM282.182 21.35C286.115 21.35 289.698 21.9667 292.932 23.2C296.165 24.4333 298.932 26.2 301.232 28.5C303.565 30.8 305.365 33.6 306.632 36.9C307.932 40.1667 308.582 43.85 308.582 47.95C308.582 52.0833 307.932 55.8167 306.632 59.15C305.365 62.45 303.565 65.2667 301.232 67.6C298.932 69.9 296.165 71.6833 292.932 72.95C289.698 74.1833 286.115 74.8 282.182 74.8C278.215 74.8 274.598 74.1833 271.332 72.95C268.098 71.6833 265.298 69.9 262.932 67.6C260.598 65.2667 258.782 62.45 257.482 59.15C256.215 55.8167 255.582 52.0833 255.582 47.95C255.582 43.85 256.215 40.1667 257.482 36.9C258.782 33.6 260.598 30.8 262.932 28.5C265.298 26.2 268.098 24.4333 271.332 23.2C274.598 21.9667 278.215 21.35 282.182 21.35ZM282.182 63.3C285.748 63.3 288.365 62.05 290.032 59.55C291.732 57.0167 292.582 53.1833 292.582 48.05C292.582 42.9167 291.732 39.1 290.032 36.6C288.365 34.1 285.748 32.85 282.182 32.85C278.515 32.85 275.832 34.1 274.132 36.6C272.432 39.1 271.582 42.9167 271.582 48.05C271.582 53.1833 272.432 57.0167 274.132 59.55C275.832 62.05 278.515 63.3 282.182 63.3ZM100.058 162.5V176H56.1579V103.15H73.0579V162.5H100.058ZM139.487 143.85C139.487 142.617 139.32 141.417 138.987 140.25C138.687 139.083 138.17 138.05 137.437 137.15C136.737 136.217 135.803 135.467 134.637 134.9C133.47 134.333 132.053 134.05 130.387 134.05C127.453 134.05 125.153 134.9 123.487 136.6C121.82 138.267 120.72 140.683 120.187 143.85H139.487ZM119.987 152.85C120.487 157.183 121.803 160.333 123.937 162.3C126.07 164.233 128.82 165.2 132.187 165.2C133.987 165.2 135.537 164.983 136.837 164.55C138.137 164.117 139.287 163.633 140.287 163.1C141.32 162.567 142.253 162.083 143.087 161.65C143.953 161.217 144.853 161 145.787 161C147.02 161 147.953 161.45 148.587 162.35L153.087 167.9C151.487 169.733 149.753 171.233 147.887 172.4C146.053 173.533 144.153 174.433 142.187 175.1C140.253 175.733 138.303 176.167 136.337 176.4C134.403 176.667 132.553 176.8 130.787 176.8C127.153 176.8 123.737 176.217 120.537 175.05C117.37 173.85 114.587 172.083 112.187 169.75C109.82 167.417 107.937 164.517 106.537 161.05C105.17 157.583 104.487 153.55 104.487 148.95C104.487 145.483 105.07 142.2 106.237 139.1C107.437 136 109.137 133.283 111.337 130.95C113.57 128.617 116.253 126.767 119.387 125.4C122.553 124.033 126.12 123.35 130.087 123.35C133.52 123.35 136.653 123.883 139.487 124.95C142.353 126.017 144.803 127.567 146.837 129.6C148.903 131.633 150.503 134.133 151.637 137.1C152.803 140.033 153.387 143.367 153.387 147.1C153.387 148.267 153.337 149.217 153.237 149.95C153.137 150.683 152.953 151.267 152.687 151.7C152.42 152.133 152.053 152.433 151.587 152.6C151.153 152.767 150.587 152.85 149.887 152.85H119.987ZM177.443 129.75C178.443 128.817 179.476 127.95 180.543 127.15C181.61 126.35 182.743 125.683 183.943 125.15C185.176 124.583 186.493 124.15 187.893 123.85C189.326 123.517 190.876 123.35 192.543 123.35C195.376 123.35 197.876 123.85 200.043 124.85C202.243 125.817 204.093 127.183 205.593 128.95C207.093 130.683 208.226 132.767 208.993 135.2C209.76 137.6 210.143 140.217 210.143 143.05V176H194.643V143.05C194.643 140.517 194.06 138.55 192.893 137.15C191.726 135.717 190.01 135 187.743 135C186.043 135 184.443 135.367 182.943 136.1C181.476 136.8 180.043 137.767 178.643 139V176H163.143V124.15H172.743C174.676 124.15 175.943 125.017 176.543 126.75L177.443 129.75ZM255.124 135.5C254.724 136.133 254.291 136.583 253.824 136.85C253.391 137.117 252.824 137.25 252.124 137.25C251.391 137.25 250.658 137.1 249.924 136.8C249.191 136.467 248.391 136.117 247.524 135.75C246.691 135.383 245.741 135.05 244.674 134.75C243.608 134.417 242.391 134.25 241.024 134.25C239.058 134.25 237.541 134.633 236.474 135.4C235.441 136.133 234.924 137.167 234.924 138.5C234.924 139.467 235.258 140.267 235.924 140.9C236.624 141.533 237.541 142.1 238.674 142.6C239.808 143.067 241.091 143.517 242.524 143.95C243.958 144.383 245.424 144.867 246.924 145.4C248.424 145.933 249.891 146.567 251.324 147.3C252.758 148 254.041 148.883 255.174 149.95C256.308 150.983 257.208 152.25 257.874 153.75C258.574 155.25 258.924 157.05 258.924 159.15C258.924 161.717 258.458 164.083 257.524 166.25C256.591 168.417 255.191 170.283 253.324 171.85C251.491 173.417 249.208 174.633 246.474 175.5C243.774 176.367 240.658 176.8 237.124 176.8C235.358 176.8 233.591 176.633 231.824 176.3C230.058 175.967 228.341 175.517 226.674 174.95C225.041 174.383 223.524 173.717 222.124 172.95C220.724 172.15 219.524 171.3 218.524 170.4L222.124 164.7C222.524 164.033 223.024 163.517 223.624 163.15C224.258 162.75 225.058 162.55 226.024 162.55C226.924 162.55 227.724 162.75 228.424 163.15C229.158 163.55 229.941 163.983 230.774 164.45C231.608 164.917 232.574 165.35 233.674 165.75C234.808 166.15 236.224 166.35 237.924 166.35C239.124 166.35 240.141 166.233 240.974 166C241.808 165.733 242.474 165.383 242.974 164.95C243.474 164.517 243.841 164.033 244.074 163.5C244.308 162.967 244.424 162.417 244.424 161.85C244.424 160.817 244.074 159.967 243.374 159.3C242.674 158.633 241.758 158.067 240.624 157.6C239.491 157.1 238.191 156.65 236.724 156.25C235.291 155.817 233.824 155.333 232.324 154.8C230.824 154.267 229.341 153.633 227.874 152.9C226.441 152.133 225.158 151.183 224.024 150.05C222.891 148.883 221.974 147.467 221.274 145.8C220.574 144.133 220.224 142.117 220.224 139.75C220.224 137.55 220.641 135.467 221.474 133.5C222.341 131.5 223.624 129.75 225.324 128.25C227.024 126.75 229.158 125.567 231.724 124.7C234.291 123.8 237.291 123.35 240.724 123.35C242.591 123.35 244.391 123.517 246.124 123.85C247.891 124.183 249.541 124.65 251.074 125.25C252.608 125.85 254.008 126.567 255.274 127.4C256.541 128.2 257.658 129.083 258.624 130.05L255.124 135.5Z" fill="#FF4C2C"/>
</svg>
