<svg width="24" height="25" viewBox="0 0 24 25" fill="none" xmlns="http://www.w3.org/2000/svg">
<path fill-rule="evenodd" clip-rule="evenodd" d="M5 7.5C4.73478 7.5 4.48043 7.60536 4.29289 7.79289C4.10536 7.98043 4 8.23478 4 8.5V19.5C4 19.7652 4.10536 20.0196 4.29289 20.2071C4.48043 20.3946 4.73478 20.5 5 20.5H16C16.2652 20.5 16.5196 20.3946 16.7071 20.2071C16.8946 20.0196 17 19.7652 17 19.5V13.5C17 12.9477 17.4477 12.5 18 12.5C18.5523 12.5 19 12.9477 19 13.5V19.5C19 20.2957 18.6839 21.0587 18.1213 21.6213C17.5587 22.1839 16.7957 22.5 16 22.5H5C4.20435 22.5 3.44129 22.1839 2.87868 21.6213C2.31607 21.0587 2 20.2956 2 19.5V8.5C2 7.70435 2.31607 6.94129 2.87868 6.37868C3.44129 5.81607 4.20435 5.5 5 5.5H11C11.5523 5.5 12 5.94772 12 6.5C12 7.05228 11.5523 7.5 11 7.5H5Z" fill="#445F6F"/>
<path fill-rule="evenodd" clip-rule="evenodd" d="M14 3.5C14 2.94772 14.4477 2.5 15 2.5H21C21.5523 2.5 22 2.94772 22 3.5V9.5C22 10.0523 21.5523 10.5 21 10.5C20.4477 10.5 20 10.0523 20 9.5V4.5H15C14.4477 4.5 14 4.05228 14 3.5Z" fill="#445F6F"/>
<path fill-rule="evenodd" clip-rule="evenodd" d="M21.7071 2.79289C22.0976 3.18342 22.0976 3.81658 21.7071 4.20711L10.7071 15.2071C10.3166 15.5976 9.68342 15.5976 9.29289 15.2071C8.90237 14.8166 8.90237 14.1834 9.29289 13.7929L20.2929 2.79289C20.6834 2.40237 21.3166 2.40237 21.7071 2.79289Z" fill="#445F6F"/>
</svg>
