<svg width="30" height="30" viewBox="0 0 30 30" fill="none" xmlns="http://www.w3.org/2000/svg">
<path fill-rule="evenodd" clip-rule="evenodd" d="M15 3.75C8.7868 3.75 3.75 8.7868 3.75 15C3.75 21.2132 8.7868 26.25 15 26.25C21.2132 26.25 26.25 21.2132 26.25 15C26.25 8.7868 21.2132 3.75 15 3.75ZM1.25 15C1.25 7.40608 7.40608 1.25 15 1.25C22.5939 1.25 28.75 7.40608 28.75 15C28.75 22.5939 22.5939 28.75 15 28.75C7.40608 28.75 1.25 22.5939 1.25 15Z" fill="#FC4655"/>
<path fill-rule="evenodd" clip-rule="evenodd" d="M19.6339 10.3661C20.122 10.8543 20.122 11.6457 19.6339 12.1339L12.1339 19.6339C11.6457 20.122 10.8543 20.122 10.3661 19.6339C9.87796 19.1457 9.87796 18.3543 10.3661 17.8661L17.8661 10.3661C18.3543 9.87796 19.1457 9.87796 19.6339 10.3661Z" fill="#FC4655"/>
<path fill-rule="evenodd" clip-rule="evenodd" d="M10.3661 10.3661C10.8543 9.87796 11.6457 9.87796 12.1339 10.3661L19.6339 17.8661C20.122 18.3543 20.122 19.1457 19.6339 19.6339C19.1457 20.122 18.3543 20.122 17.8661 19.6339L10.3661 12.1339C9.87796 11.6457 9.87796 10.8543 10.3661 10.3661Z" fill="#FC4655"/>
</svg>
