<svg width="446" height="292" viewBox="0 0 446 292" fill="none" xmlns="http://www.w3.org/2000/svg">
<rect width="446" height="292" fill="white"/>
<path fill-rule="evenodd" clip-rule="evenodd" d="M159.212 69.961C161.509 67.6637 164.625 66.373 167.874 66.373H241.374C242.998 66.373 244.556 67.0184 245.705 68.167L288.58 111.042C289.729 112.191 290.374 113.749 290.374 115.373V213.373C290.374 216.622 289.083 219.738 286.786 222.035C284.489 224.332 281.373 225.623 278.124 225.623H167.874C164.625 225.623 161.509 224.332 159.212 222.035C156.915 219.738 155.624 216.622 155.624 213.373V78.623C155.624 75.3741 156.915 72.2583 159.212 69.961ZM238.837 78.623L167.874 78.623L167.874 213.373H278.124V117.91L238.837 78.623Z" fill="#FF4C2C"/>
<path fill-rule="evenodd" clip-rule="evenodd" d="M241.375 66.373C244.758 66.373 247.5 69.1153 247.5 72.498V109.248H284.25C287.633 109.248 290.375 111.99 290.375 115.373C290.375 118.756 287.633 121.498 284.25 121.498H241.375C237.992 121.498 235.25 118.756 235.25 115.373V72.498C235.25 69.1153 237.992 66.373 241.375 66.373Z" fill="#FF4C2C"/>
<path fill-rule="evenodd" clip-rule="evenodd" d="M230.767 172.138C233.159 169.746 237.037 169.746 239.429 172.138L251.679 184.388C254.071 186.78 254.071 190.658 251.679 193.05C249.287 195.442 245.409 195.442 243.017 193.05L230.767 180.8C228.375 178.408 228.375 174.53 230.767 172.138Z" fill="#FF4D30"/>
<path fill-rule="evenodd" clip-rule="evenodd" d="M219.938 145.998C211.481 145.998 204.625 152.854 204.625 161.311C204.625 169.767 211.481 176.623 219.938 176.623C228.394 176.623 235.25 169.767 235.25 161.311C235.25 152.854 228.394 145.998 219.938 145.998ZM192.375 161.311C192.375 146.088 204.715 133.748 219.938 133.748C235.16 133.748 247.5 146.088 247.5 161.311C247.5 176.533 235.16 188.873 219.938 188.873C204.715 188.873 192.375 176.533 192.375 161.311Z" fill="#FF4D30"/>
<path fill-rule="evenodd" clip-rule="evenodd" d="M280.501 65.6399C280.501 64.8281 281.159 64.1699 281.971 64.1699H315.119C315.931 64.1699 316.589 64.8281 316.589 65.6399C316.589 66.4518 315.931 67.1099 315.119 67.1099H281.971C281.159 67.1099 280.501 66.4518 280.501 65.6399Z" fill="#FF4C2C" stroke="#B71616" stroke-width="3.92" stroke-linecap="round" stroke-linejoin="round"/>
<path fill-rule="evenodd" clip-rule="evenodd" d="M306.562 53.9048C307.361 54.0501 307.891 54.8153 307.746 55.6141L301.866 87.9541C301.721 88.7528 300.955 89.2826 300.157 89.1374C299.358 88.9922 298.828 88.2269 298.973 87.4282L304.853 55.0882C304.998 54.2894 305.764 53.7596 306.562 53.9048Z" fill="#FF4C2C" stroke="#B71616" stroke-width="3.92" stroke-linecap="round" stroke-linejoin="round"/>
<path fill-rule="evenodd" clip-rule="evenodd" d="M294.803 53.9048C295.601 54.0501 296.131 54.8153 295.986 55.6141L290.106 87.9541C289.961 88.7528 289.196 89.2826 288.397 89.1374C287.598 88.9922 287.068 88.2269 287.213 87.4282L293.093 55.0882C293.239 54.2894 294.004 53.7596 294.803 53.9048Z" fill="#FF4C2C" stroke="#B71616" stroke-width="3.92" stroke-linecap="round" stroke-linejoin="round"/>
<path fill-rule="evenodd" clip-rule="evenodd" d="M278.37 77.3997C278.37 76.5878 279.028 75.9297 279.84 75.9297H312.989C313.8 75.9297 314.459 76.5878 314.459 77.3997C314.459 78.2115 313.8 78.8697 312.989 78.8697H279.84C279.028 78.8697 278.37 78.2115 278.37 77.3997Z" fill="#FF4C2C" stroke="#B71616" stroke-width="3.92" stroke-linecap="round" stroke-linejoin="round"/>
</svg>
