<svg width="34" height="34" viewBox="0 0 34 34" fill="none" xmlns="http://www.w3.org/2000/svg">
<path fill-rule="evenodd" clip-rule="evenodd" d="M16.9993 4.2474C9.95772 4.2474 4.24935 9.95576 4.24935 16.9974C4.24935 24.039 9.95772 29.7474 16.9993 29.7474C24.041 29.7474 29.7493 24.039 29.7493 16.9974C29.7493 9.95576 24.041 4.2474 16.9993 4.2474ZM1.41602 16.9974C1.41602 8.39096 8.39291 1.41406 16.9993 1.41406C25.6058 1.41406 32.5827 8.39096 32.5827 16.9974C32.5827 25.6038 25.6058 32.5807 16.9993 32.5807C8.39291 32.5807 1.41602 25.6038 1.41602 16.9974Z" fill="#445F6F"/>
<path fill-rule="evenodd" clip-rule="evenodd" d="M17.3662 11.3663C16.7067 11.2532 16.0284 11.3771 15.4516 11.7162C14.8747 12.0552 14.4364 12.5874 14.2144 13.2186C13.9547 13.9567 13.1459 14.3446 12.4079 14.0849C11.6698 13.8253 11.282 13.0165 11.5416 12.2784C11.9857 11.016 12.8622 9.95151 14.016 9.27345C15.1697 8.59539 16.5262 8.34753 17.8452 8.57376C19.1641 8.8 20.3605 9.48574 21.2223 10.5095C22.084 11.5331 22.5556 12.8285 22.5538 14.1665C22.5532 16.3345 20.9458 17.7662 19.798 18.5314C19.1808 18.9429 18.5738 19.2454 18.1266 19.4441C17.901 19.5444 17.711 19.6205 17.5741 19.6726C17.5055 19.6988 17.4499 19.719 17.4095 19.7334L17.3603 19.7506L17.3446 19.756L17.3391 19.7578L17.3369 19.7586C17.3365 19.7587 17.3351 19.7592 16.8872 18.4152L17.3351 19.7592C16.5929 20.0066 15.7906 19.6054 15.5432 18.8632C15.2959 18.1214 15.6964 17.3197 16.4377 17.0717L16.4359 17.0723C16.436 17.0723 16.4361 17.0723 16.4377 17.0717L16.4603 17.0638C16.4821 17.056 16.5178 17.0431 16.5654 17.0249C16.661 16.9885 16.803 16.9318 16.9759 16.855C17.3255 16.6996 17.781 16.4709 18.2263 16.174C19.2033 15.5227 19.7205 14.8298 19.7205 14.1652L19.7205 14.1631C19.7215 13.494 19.4856 12.8461 19.0547 12.3342C18.6238 11.8223 18.0256 11.4794 17.3662 11.3663Z" fill="#445F6F"/>
<path fill-rule="evenodd" clip-rule="evenodd" d="M15.584 24.0807C15.584 23.2983 16.2182 22.6641 17.0007 22.6641H17.0148C17.7972 22.6641 18.4315 23.2983 18.4315 24.0807C18.4315 24.8631 17.7972 25.4974 17.0148 25.4974H17.0007C16.2182 25.4974 15.584 24.8631 15.584 24.0807Z" fill="#445F6F"/>
</svg>
