<svg width="34" height="34" viewBox="0 0 34 34" fill="none" xmlns="http://www.w3.org/2000/svg">
<path fill-rule="evenodd" clip-rule="evenodd" d="M17 9.5625C17.5868 9.5625 18.0625 10.0382 18.0625 10.625V17C18.0625 17.5868 17.5868 18.0625 17 18.0625C16.4132 18.0625 15.9375 17.5868 15.9375 17V10.625C15.9375 10.0382 16.4132 9.5625 17 9.5625Z" fill="#FF4C2C"/>
<path fill-rule="evenodd" clip-rule="evenodd" d="M16.0799 16.4692C16.3731 15.9609 17.0229 15.7866 17.5311 16.0799L23.0561 19.2674C23.5644 19.5606 23.7387 20.2104 23.4455 20.7186C23.1523 21.2269 22.5025 21.4012 21.9942 21.108L16.4692 17.9205C15.9609 17.6273 15.7866 16.9775 16.0799 16.4692Z" fill="#FF4C2C"/>
<path fill-rule="evenodd" clip-rule="evenodd" d="M4.22266 6.86719C4.80946 6.86719 5.28516 7.34288 5.28516 7.92969V12.1797H9.53516C10.122 12.1797 10.5977 12.6554 10.5977 13.2422C10.5977 13.829 10.122 14.3047 9.53516 14.3047H4.22266C3.63585 14.3047 3.16016 13.829 3.16016 13.2422V7.92969C3.16016 7.34288 3.63585 6.86719 4.22266 6.86719Z" fill="#FF4C2C"/>
<path fill-rule="evenodd" clip-rule="evenodd" d="M14.5147 4.49576C16.9883 4.00295 19.5524 4.25484 21.8828 5.21955C24.2131 6.18426 26.205 7.81845 27.6065 9.9154C29.0079 12.0124 29.756 14.4778 29.756 17C29.756 19.5222 29.0079 21.9877 27.6065 24.0846C26.205 26.1816 24.2131 27.8158 21.8828 28.7805C19.5524 29.7452 16.9883 29.9971 14.5147 29.5043C12.0412 29.0114 9.76938 27.7961 7.98667 26.0119C7.57191 25.5968 7.57219 24.9241 7.98729 24.5093C8.40239 24.0946 9.07513 24.0948 9.48989 24.5099C10.9755 25.9967 12.8687 27.0095 14.9299 27.4202C16.9912 27.8309 19.128 27.621 21.07 26.8171C23.0119 26.0131 24.6719 24.6513 25.8397 22.9038C27.0076 21.1564 27.631 19.1018 27.631 17C27.631 14.8982 27.0076 12.8436 25.8397 11.0962C24.6719 9.34871 23.0119 7.98688 21.07 7.18296C19.128 6.37903 16.9912 6.16913 14.9299 6.5798C12.8687 6.99047 10.9755 8.00326 9.48989 9.49006L9.48848 9.49148L4.97285 13.9938C4.55731 14.4081 3.88457 14.4071 3.47025 13.9916C3.05593 13.5761 3.05692 12.9033 3.47246 12.489L7.98667 7.98807C7.98691 7.98783 7.98715 7.9876 7.98739 7.98736C9.76999 6.20359 12.0415 4.98849 14.5147 4.49576Z" fill="#FF4C2C"/>
</svg>
