<svg version="1.1" id="Layer_1" xmlns="http://www.w3.org/2000/svg" xmlns:xlink="http://www.w3.org/1999/xlink" x="0px" y="0px"
	 width="100%" viewBox="0 0 1024 1024" enable-background="new 0 0 1024 1024" xml:space="preserve">
<path fill="#000000" opacity="1.000000" stroke="none" 
	d="
M168.821899,795.945312 
	C147.948166,799.991516 127.399017,803.394958 106.477470,802.987549 
	C95.472664,802.773254 84.591011,801.312378 74.115799,797.481079 
	C50.009754,788.664307 38.698597,768.188599 44.308395,743.208435 
	C48.728085,723.527771 59.324036,707.018311 71.267487,691.273682 
	C93.437164,662.048279 119.803795,636.842041 147.251434,612.712219 
	C155.883484,605.123657 164.691574,597.727295 173.594498,590.457825 
	C178.770538,586.231445 184.774155,584.530945 191.385742,586.685181 
	C197.792542,588.772705 201.851730,593.217529 203.056549,599.821899 
	C204.476425,607.605103 201.488052,614.031311 195.517990,618.834229 
	C183.828781,628.238037 172.378815,637.919495 161.259521,647.977173 
	C135.147400,671.596130 109.750397,695.896240 90.433243,725.710388 
	C85.361992,733.537354 86.387871,737.843506 94.292999,743.098450 
	C102.489426,748.546997 111.742355,750.407043 121.339943,750.822449 
	C136.530869,751.480164 151.625687,749.871887 166.719131,748.492493 
	C206.237350,744.880920 243.338074,731.693359 280.711395,719.600464 
	C281.816589,719.242920 282.885498,718.755432 283.935669,718.253906 
	C284.368134,718.047302 284.706177,717.643005 285.067963,717.344543 
	C285.452087,715.473511 284.066711,714.557373 283.044739,713.562256 
	C255.398788,686.642761 236.493134,654.230347 223.153107,618.322021 
	C211.560272,587.116760 205.151413,554.854431 204.994507,521.579163 
	C204.746460,468.982819 217.473816,419.492523 244.063538,374.110321 
	C289.416656,296.703583 356.398743,247.820267 443.631256,227.592148 
	C515.835266,210.848953 585.385132,219.998596 651.410461,253.686020 
	C694.691711,275.768951 730.086487,307.126770 757.366577,347.409424 
	C767.209839,361.944366 762.548340,381.021515 747.613953,389.306763 
	C734.358948,396.660370 718.619385,392.858124 709.300842,379.564789 
	C696.783447,361.708191 682.390320,345.632751 665.463257,331.874908 
	C630.477600,303.439636 590.653870,285.956696 545.940918,280.192200 
	C481.631531,271.901337 422.278961,285.714294 368.794800,322.429626 
	C318.305267,357.089203 285.112549,404.375641 269.891815,463.796997 
	C262.458618,492.816101 261.289551,522.251892 265.788422,552.021912 
	C270.284058,581.770386 280.355225,609.314209 295.368378,635.270996 
	C302.073792,646.864197 311.494110,655.413574 322.481934,662.689148 
	C341.190460,675.077087 361.858551,679.061523 383.878571,677.718262 
	C388.273346,677.450195 392.350189,676.084778 396.301910,674.217468 
	C511.785156,619.647888 622.438416,556.671204 727.433960,483.864594 
	C768.950623,455.075897 809.268372,424.708893 847.385437,391.505096 
	C872.352600,369.756073 895.019165,345.851654 913.774780,318.473450 
	C919.791809,309.690247 925.317261,300.512482 927.158020,289.679504 
	C928.340088,282.723083 927.455444,276.071503 924.598633,269.684448 
	C922.235046,264.400513 918.340576,261.822937 912.288574,261.067047 
	C886.195129,257.807892 861.256470,263.707611 836.340820,269.922729 
	C807.057129,277.227386 779.804138,289.706268 752.967468,303.173370 
	C747.049255,306.143250 741.021362,307.399323 734.643127,305.188660 
	C722.394775,300.943451 718.375000,287.546509 726.231201,277.255066 
	C729.422668,273.074341 733.546204,269.997406 738.258850,267.698547 
	C770.353638,252.042419 802.992920,237.979584 837.949341,229.635803 
	C869.670898,222.064163 901.623352,218.571533 934.077271,221.847183 
	C965.853699,225.054443 982.968750,247.189102 982.872559,276.156708 
	C982.828247,289.505310 978.348206,302.156525 971.271973,313.883545 
	C945.747314,356.184296 910.557007,389.712006 873.597046,421.510773 
	C807.620911,478.273926 736.098633,527.377319 662.251038,573.235291 
	C594.674072,615.199463 525.013489,653.374390 453.778442,688.714478 
	C443.171387,693.976624 432.426270,698.908325 423.554321,707.030273 
	C419.637878,710.615540 416.951263,714.991150 415.014465,719.798096 
	C412.295349,726.546570 415.290863,732.348267 423.142609,735.401978 
	C435.742065,740.302246 448.817749,743.824768 462.164764,745.541077 
	C496.339020,749.935425 530.265259,748.513916 563.734680,739.591309 
	C600.717529,729.732117 634.313660,713.088806 662.902832,687.659607 
	C682.670166,670.077148 701.221924,651.193481 713.973450,627.300964 
	C723.335571,609.759094 743.528076,606.002014 758.113708,617.880310 
	C768.741150,626.535095 771.559082,641.475586 764.728455,654.101013 
	C752.194275,677.268677 736.645203,698.198669 717.747742,716.588928 
	C682.774963,750.622925 642.189331,775.473816 595.780273,790.621948 
	C561.931213,801.670471 527.198730,806.518677 491.529755,806.237610 
	C443.086914,805.855896 398.166138,793.006897 355.698486,770.427917 
	C353.200409,769.099792 350.657318,767.772644 348.399109,766.090698 
	C333.514404,755.004211 317.404968,753.241638 299.613617,757.877136 
	C279.411469,763.140869 260.049530,770.823303 240.161057,776.951904 
	C216.757538,784.163696 193.252670,790.961304 168.821899,795.945312 
z"/>
<path fill="#000000" opacity="1.000000" stroke="none" 
	d="
M951.526245,403.826324 
	C953.004944,409.828003 950.343079,414.201721 947.317139,418.508942 
	C937.474182,432.519592 924.928284,444.036133 912.657104,455.760284 
	C884.627502,482.540314 854.317871,506.397614 820.749451,525.936707 
	C815.288452,529.115417 809.627686,531.989746 803.898254,534.658997 
	C795.836975,538.414612 787.668945,535.786499 783.659546,528.480530 
	C779.759644,521.373840 782.383179,513.300720 790.005371,508.326538 
	C831.238342,481.418152 870.543823,452.097626 904.959534,416.626099 
	C910.657959,410.752930 915.795471,404.447876 921.000671,398.161713 
	C930.210632,387.039368 946.355408,389.932068 951.526245,403.826324 
z"/>
<path fill="#000000" opacity="1.000000" stroke="none" 
	d="
M963.041992,354.701050 
	C970.158813,353.418823 975.989502,355.795990 979.411987,361.119690 
	C982.910522,366.561493 982.755371,372.792328 978.728027,378.388794 
	C975.973999,382.215790 972.326172,385.176453 968.233887,387.451233 
	C962.140808,390.838165 954.852783,389.699371 950.346130,384.919067 
	C945.577209,379.860413 944.741272,372.442108 948.833435,366.566010 
	C952.359070,361.503357 956.514038,356.913635 963.041992,354.701050 
z"/>
</svg>