<svg version="1.1" id="Layer_1" xmlns="http://www.w3.org/2000/svg" xmlns:xlink="http://www.w3.org/1999/xlink" x="0px" y="0px"
	 width="100%" viewBox="0 0 1024 1024" enable-background="new 0 0 1024 1024" xml:space="preserve">
<path fill="#000000" opacity="1.000000" stroke="none" 
	d="
M1.000000,951.000000 
	C1.000000,757.974182 1.000000,564.948364 1.183523,371.695312 
	C2.018897,372.527100 2.288547,374.486603 4.049491,373.684784 
	C7.407996,372.155518 10.321148,373.754669 13.123800,374.857269 
	C17.914354,376.741943 21.154949,375.326447 23.699512,371.205353 
	C26.150393,367.236023 28.674644,363.312073 31.144424,359.354340 
	C33.116489,356.194092 35.732910,353.916290 39.640972,354.118378 
	C54.325069,354.877625 63.106140,344.503906 70.787987,335.116394 
	C78.095558,326.186279 83.429916,314.899261 86.964104,303.799103 
	C92.145927,287.524109 100.746323,273.167053 108.505585,258.296722 
	C117.377975,241.293182 129.225784,226.424423 143.541443,213.777512 
	C163.463898,196.177399 185.869827,182.113174 209.156540,169.354904 
	C224.634293,160.875000 239.697006,151.674698 254.613510,142.201385 
	C268.667664,133.275742 283.276917,125.000641 300.078888,122.219177 
	C314.537659,119.825615 329.021484,117.581535 343.569214,115.709061 
	C352.805237,114.520279 361.857056,112.091103 370.093201,107.299698 
	C378.080933,102.652824 386.677368,100.012711 395.866058,98.378822 
	C432.154053,91.926247 469.126801,91.609337 505.486145,85.554924 
	C519.941528,83.147881 534.830383,82.874985 549.739685,85.785278 
	C567.839966,89.318428 586.099121,92.363205 604.742065,92.282684 
	C612.842529,92.247696 621.132141,92.330475 629.104309,94.265167 
	C639.252319,96.727951 649.486938,97.436806 659.862366,96.955879 
	C664.227905,96.753510 668.272644,97.755730 672.492981,99.124596 
	C679.742493,101.476006 687.084839,103.738243 694.710449,104.865677 
	C721.056152,108.760864 746.910645,105.490532 772.149963,98.247772 
	C783.807495,94.902496 794.928772,94.920006 806.625977,96.296692 
	C817.161133,97.536621 828.041077,99.929550 838.423584,97.036606 
	C856.231812,92.074570 874.712463,90.555916 892.465271,85.527420 
	C898.058655,83.943077 903.900452,82.997231 908.082703,78.308624 
	C912.697083,73.135551 918.674194,71.765251 925.330078,72.329346 
	C929.142761,72.652481 933.016479,73.319946 936.779907,72.961899 
	C948.566772,71.840492 959.150330,74.775192 969.126099,80.971397 
	C974.904297,84.560371 981.321594,86.213379 988.259399,85.083641 
	C993.909058,84.163673 999.172241,85.959480 1003.130127,89.562317 
	C1007.583801,93.616447 1012.476562,93.461967 1017.569641,92.972496 
	C1020.089966,92.730286 1022.522766,92.645172 1025.000000,93.000000 
	C1025.000000,260.692505 1025.000000,428.385010 1024.647095,596.399658 
	C1019.122192,595.297302 1014.553955,598.216675 1009.652588,598.769104 
	C999.773743,599.882385 991.851379,605.931396 982.958923,609.539246 
	C966.302185,616.297058 953.989197,627.989075 945.298889,643.547668 
	C939.684998,653.598389 935.054810,664.021912 934.694214,675.859985 
	C934.640991,677.607910 933.551758,679.308777 933.042297,681.060669 
	C929.807739,692.181824 923.360718,701.821594 918.583801,712.230957 
	C914.014648,722.187500 909.564758,732.283081 902.716797,741.028687 
	C895.928284,749.698303 890.173767,759.036194 884.847412,768.666809 
	C881.790100,774.194702 878.825867,779.882690 874.975159,784.843018 
	C862.888489,800.412231 849.003967,814.323914 833.776062,826.818665 
	C825.521118,833.592041 815.944641,838.447815 806.709656,843.723816 
	C796.120422,849.773560 786.631836,857.364197 776.646423,864.258118 
	C763.514526,873.324280 750.273865,882.236877 737.265625,891.476929 
	C724.900940,900.259827 712.461304,908.913391 698.828796,915.620728 
	C693.169800,918.405029 686.742065,919.763489 681.357300,922.944092 
	C662.061829,934.341431 640.605774,939.092529 619.152405,943.722656 
	C604.189026,946.952087 589.497437,951.481262 574.237427,953.351074 
	C572.454346,953.569580 570.706116,954.329590 569.018982,955.025818 
	C563.736877,957.205566 558.204590,958.211060 552.588013,959.126221 
	C513.269165,965.532776 474.112640,959.550354 434.994598,957.046692 
	C416.313690,955.850952 397.853516,950.994812 378.936890,951.248962 
	C362.476562,951.470154 346.388092,949.059570 330.532593,944.896057 
	C322.732483,942.847778 314.822021,941.649536 306.801086,942.033569 
	C287.011322,942.981018 267.222351,944.028564 247.459427,945.412415 
	C239.120544,945.996277 230.842529,946.328552 222.525375,945.484924 
	C205.949692,943.803406 189.444061,942.568298 172.689911,944.163513 
	C148.587601,946.458435 124.736237,949.482056 101.581146,956.978394 
	C95.374252,958.987793 88.419212,959.263062 82.370567,956.727356 
	C70.051315,951.562683 57.761646,951.666931 45.172489,954.847839 
	C39.992420,956.156616 34.839951,956.123352 30.089912,953.540405 
	C21.778528,949.020935 12.450948,950.963257 3.736562,949.087402 
	C2.371658,948.793579 1.873239,950.293213 1.000000,951.000000 
M629.266907,775.740479 
	C657.476440,762.732361 683.074768,745.774292 706.208313,725.048340 
	C729.004517,704.624817 748.025146,681.220154 762.719543,654.320068 
	C769.821655,641.318787 767.246887,626.826111 756.106812,618.465820 
	C742.481873,608.240662 724.166138,611.823242 715.597656,627.853638 
	C702.912292,651.586121 684.868347,670.892578 664.930908,687.899963 
	C603.247253,740.518677 531.630798,758.757812 451.908722,745.103210 
	C441.811737,743.373901 431.704193,740.841248 422.188629,736.675659 
	C412.711578,732.526917 410.318787,725.640991 414.863892,716.411072 
	C417.960541,710.122375 422.452911,705.192932 428.077271,701.052246 
	C438.094849,693.677124 449.436310,688.743896 460.458099,683.270081 
	C535.890808,645.808105 609.298218,604.745483 680.471130,559.714905 
	C748.567932,516.630676 814.503784,470.544159 875.426514,417.625549 
	C903.643799,393.115479 930.908325,367.558655 953.244568,337.388580 
	C963.301331,323.804688 973.314392,310.134033 978.250427,293.353973 
	C987.476257,261.990204 972.988831,227.378876 934.136414,223.695831 
	C911.632202,221.562546 888.906555,222.116837 866.347717,225.715195 
	C821.248169,232.909042 779.300293,249.082214 738.740173,269.415009 
	C734.506348,271.537445 730.838501,274.391693 727.918823,278.121796 
	C719.965454,288.282440 725.348511,301.976990 738.078979,304.015442 
	C743.404602,304.868225 748.185547,303.358429 752.972778,301.034546 
	C779.366943,288.221985 805.907959,275.719818 834.543579,268.550507 
	C859.278381,262.357849 883.994202,256.096985 909.926636,258.764465 
	C920.006714,259.801331 924.508423,262.992828 927.588440,272.748810 
	C931.430359,284.917877 928.329041,296.047974 922.690796,306.882385 
	C914.774902,322.093536 903.847961,335.086853 892.912598,348.120605 
	C869.309937,376.252686 841.402100,399.733643 812.883850,422.552612 
	C747.967834,474.495514 678.878235,520.365906 607.730103,563.223083 
	C546.460876,600.129578 483.617218,634.145508 419.238800,665.303040 
	C409.380432,670.074219 399.967682,676.369507 389.033539,678.286743 
	C354.167664,684.400208 311.369110,667.902710 292.031189,632.955688 
	C268.779633,590.936096 258.264404,546.373718 262.544525,498.410339 
	C265.956207,460.178558 277.294159,424.421722 298.670471,392.628448 
	C352.549805,312.493073 428.435242,274.094940 524.830200,276.753662 
	C564.396667,277.844940 601.248169,289.418213 635.474915,309.158813 
	C665.989441,326.758392 690.904541,350.436890 711.126282,379.271698 
	C720.181091,392.183380 736.927063,394.884064 749.178711,386.239960 
	C761.570618,377.496918 764.485779,361.335266 755.902039,348.115295 
	C748.625122,336.907928 740.412659,326.374023 731.187073,316.730408 
	C656.883972,239.059937 565.748901,209.013870 460.511414,226.037170 
	C373.215698,240.158218 303.354156,285.042603 255.007172,359.575043 
	C202.334656,440.775848 192.259918,528.022949 225.361130,619.484680 
	C238.412140,655.545837 258.141815,687.530457 286.117401,714.119812 
	C287.155914,715.106873 288.541412,715.986206 288.259308,718.155151 
	C288.083557,718.279480 287.711823,718.639099 287.268188,718.839294 
	C285.599396,719.592346 283.953857,720.440369 282.216858,720.992371 
	C242.562012,733.595093 203.317047,747.914734 161.268967,750.734497 
	C144.355759,751.868774 127.441116,754.574524 110.473846,751.270081 
	C103.169701,749.847595 96.389008,747.182922 90.520477,742.533691 
	C85.158310,738.285645 84.015076,732.898010 87.531509,727.096130 
	C90.549034,722.117493 93.821953,717.265320 97.318169,712.609680 
	C118.767906,684.046814 144.805679,659.933838 171.544327,636.526001 
	C179.316727,629.721863 187.459824,623.339478 195.193237,616.492981 
	C200.375885,611.904663 203.040161,606.053406 200.969330,599.011963 
	C197.439133,587.008362 184.028671,583.763123 173.510590,592.569580 
	C142.182999,618.799194 111.534042,645.773010 84.972664,676.992615 
	C70.022614,694.564453 55.960365,712.835083 48.403488,735.005554 
	C43.159000,750.391907 42.273811,765.780090 52.451778,779.916382 
	C60.333023,790.862793 71.740639,796.053589 84.474693,798.623413 
	C104.864639,802.738159 125.292503,801.156799 145.639816,798.169617 
	C178.876999,793.290039 211.060120,784.087891 243.022812,774.022156 
	C262.394592,767.921509 281.474396,760.959961 301.233704,756.000305 
	C318.002319,751.791382 333.145111,753.746826 347.379486,763.619385 
	C351.604126,766.549438 356.208374,768.992249 360.820374,771.294250 
	C396.609253,789.158203 433.656799,802.268127 474.290039,803.524109 
	C496.478760,804.209900 518.575134,804.799255 540.606445,801.628906 
	C571.129456,797.236633 600.557678,789.049866 629.266907,775.740479 
M826.481079,485.032623 
	C814.684631,493.710419 803.048645,502.592224 790.459961,510.167419 
	C783.683838,514.244934 781.928101,521.641907 785.384583,527.892639 
	C788.821106,534.107056 795.963684,536.379456 803.085083,533.144348 
	C808.381165,530.738464 813.581360,528.066162 818.620972,525.159973 
	C861.968506,500.162476 899.580444,468.010559 934.193298,432.154999 
	C939.054749,427.119080 943.248596,421.499359 947.274414,415.777283 
	C949.530640,412.570465 950.922119,409.100525 950.101074,405.006104 
	C948.831909,398.676392 944.698608,395.210907 938.763550,393.738159 
	C932.426514,392.165649 926.837952,393.688507 922.533142,398.764130 
	C918.659912,403.330841 915.263733,408.339752 911.114319,412.628479 
	C885.358459,439.249176 857.919922,463.933411 826.481079,485.032623 
M975.368286,379.825500 
	C982.196167,373.756439 980.376404,363.514557 976.106384,359.640472 
	C970.137268,354.225006 962.060059,354.943054 955.278687,361.727753 
	C953.865784,363.141449 952.398132,364.521484 951.145874,366.070709 
	C947.094360,371.083282 947.074280,378.496735 951.000122,383.162109 
	C955.089905,388.022278 961.919861,389.243988 967.770020,385.823120 
	C970.328552,384.326965 972.509521,382.185089 975.368286,379.825500 
z"/>
</svg>