<svg version="1.1" id="Layer_1" xmlns="http://www.w3.org/2000/svg" xmlns:xlink="http://www.w3.org/1999/xlink" x="0px" y="0px"
	 width="100%" viewBox="0 0 1024 1024" enable-background="new 0 0 1024 1024" xml:space="preserve">
<path fill="#000000" opacity="1.000000" stroke="none" 
	d="
M168.826233,795.958374 
	C147.630798,800.108215 126.754898,803.527649 105.490715,803.006531 
	C94.301689,802.732361 83.253677,801.106628 72.705170,797.052856 
	C49.823105,788.259155 38.815678,767.736145 44.153618,743.759460 
	C48.648636,723.568848 59.496372,706.632935 71.826500,690.537537 
	C97.724007,656.731628 128.933350,628.176453 161.173019,600.661194 
	C165.101547,597.308350 169.016891,593.929016 173.098938,590.769470 
	C182.275208,583.666870 193.246262,584.267334 199.505997,592.068726 
	C205.910614,600.050659 204.359756,611.380371 195.681107,618.786987 
	C186.811295,626.356873 177.670807,633.614380 168.909210,641.305237 
	C141.950226,664.969604 115.870819,689.496765 94.948730,718.920227 
	C93.115494,721.498352 91.422775,724.179749 89.736351,726.858276 
	C85.795227,733.117554 86.563690,737.338318 92.533508,741.855774 
	C100.554329,747.925354 109.930962,750.587646 119.686966,750.668701 
	C153.442017,750.949158 186.881042,748.262573 219.422272,738.361938 
	C238.853775,732.449951 258.673035,727.811218 277.713684,720.619080 
	C280.296448,719.643433 283.210052,719.283508 285.177063,717.128052 
	C285.150940,715.238892 283.805664,714.356750 282.780182,713.338440 
	C244.004227,674.832947 222.123871,627.542542 210.817581,574.787476 
	C206.685760,555.508484 204.524765,535.968262 204.930389,516.255432 
	C206.159409,456.525970 223.320877,401.704803 257.533752,352.702698 
	C303.402283,287.006531 365.870056,245.142075 443.915558,227.495041 
	C521.122070,210.037689 594.613586,221.246994 663.495117,260.280151 
	C701.176697,281.633240 732.264832,310.534576 756.712280,346.366943 
	C770.134827,366.040314 759.533081,389.808350 735.970459,392.703278 
	C726.688293,393.843719 718.430481,390.469238 712.318237,383.296844 
	C706.924805,376.967896 702.361633,369.934906 697.019409,363.558380 
	C657.255615,316.095642 606.494812,288.157379 545.233459,280.225220 
	C474.289734,271.039398 410.208496,288.860596 354.221985,333.297791 
	C306.843811,370.902405 277.139740,419.927673 266.642181,479.654114 
	C256.991882,534.559753 266.997437,586.273621 294.961761,634.581299 
	C301.844147,646.470398 311.359772,655.336426 322.652588,662.792725 
	C341.389282,675.164062 362.061951,679.090454 384.077087,677.700745 
	C388.294891,677.434509 392.226562,676.114075 396.027802,674.335571 
	C458.546509,645.083679 519.404114,612.681152 579.105103,578.063354 
	C643.886475,540.499695 706.779175,500.029449 766.972168,455.470978 
	C805.011169,427.312225 842.737183,398.657593 875.699890,364.454102 
	C892.579102,346.939545 908.847961,328.797180 920.622742,307.202545 
	C926.020203,297.303833 929.417419,287.016449 926.651550,275.599945 
	C924.720093,267.628052 920.504944,261.838654 911.071228,260.871399 
	C888.203186,258.526672 866.294189,262.909271 844.349915,267.894653 
	C812.266479,275.183533 782.423401,288.331451 753.216858,303.085541 
	C748.793274,305.320221 744.247742,306.710419 739.281738,306.190430 
	C732.110046,305.439484 726.765869,301.910126 723.615295,295.344849 
	C720.615051,289.092651 722.146362,283.268372 725.796631,277.898193 
	C728.954285,273.252716 733.428589,270.055359 738.451416,267.596680 
	C770.680115,251.820862 803.526794,237.824921 838.644958,229.481812 
	C870.367737,221.945343 902.321228,218.611984 934.777405,221.870926 
	C973.602356,225.769318 988.947449,261.684418 980.775757,291.153656 
	C975.485901,310.229889 964.418457,325.661896 952.833740,340.844116 
	C926.183167,375.770844 893.809937,405.094635 860.155518,432.987427 
	C776.632080,502.211548 685.984558,561.007874 592.153687,615.087219 
	C543.202148,643.300293 493.092957,669.327209 442.467438,694.390137 
	C431.822937,699.659912 421.732880,705.890808 416.157806,717.223694 
	C412.053467,725.566895 414.114990,731.859924 422.852478,735.260864 
	C437.478210,740.953857 452.687897,744.958679 468.245697,746.445618 
	C485.126312,748.059021 502.119537,748.482483 519.142029,747.097595 
	C569.536011,742.997559 614.997253,725.847595 654.510437,694.487549 
	C678.172180,675.708191 699.286133,654.184326 713.971313,627.117371 
	C720.971252,614.215393 734.298035,608.581421 746.747620,612.043457 
	C765.747742,617.326965 773.968323,637.244385 764.541748,654.627197 
	C746.382690,688.112854 721.671692,715.922913 691.801758,739.333801 
	C646.117798,775.139160 594.340271,796.699219 536.891724,803.835510 
	C497.092133,808.779480 457.325592,807.129639 418.497467,796.160706 
	C393.745178,789.168091 369.875885,779.394409 348.091125,765.662903 
	C332.800964,756.025146 317.553314,753.203369 300.095001,757.768677 
	C284.418854,761.867859 269.264008,767.396118 253.936356,772.460266 
	C226.085190,781.661987 197.989014,789.935852 168.826233,795.958374 
z"/>
<path fill="#000000" opacity="1.000000" stroke="none" 
	d="
M951.334351,403.044647 
	C953.243896,409.199158 950.660339,413.784485 947.520447,418.259186 
	C936.713684,433.659515 922.827087,446.201080 909.276672,458.991699 
	C882.305237,484.450745 853.157715,507.121033 821.025085,525.786377 
	C815.560608,528.960632 809.906616,531.841431 804.191833,534.544128 
	C796.031921,538.403137 787.793457,535.953674 783.814758,528.786743 
	C779.713196,521.398499 782.300232,513.358093 790.146423,508.225891 
	C831.212097,481.364624 870.423584,452.179169 904.736572,416.833832 
	C910.436157,410.962769 915.633850,404.708099 920.801453,398.384766 
	C929.831543,387.334991 945.328064,389.598297 951.334351,403.044647 
z"/>
<path fill="#000000" opacity="1.000000" stroke="none" 
	d="
M969.376404,354.354309 
	C982.916382,358.825378 986.016479,371.696167 976.221313,381.404785 
	C973.492554,384.109589 970.575806,386.623871 966.976196,388.127075 
	C961.204041,390.537537 955.716919,389.800323 951.138794,385.621857 
	C946.774109,381.638214 945.180237,376.533051 946.871094,370.628204 
	C949.364807,361.919617 960.273865,353.813446 969.376404,354.354309 
z"/>
</svg>