<svg width="430" height="512" viewBox="0 0 430 512" fill="none" xmlns="http://www.w3.org/2000/svg">
<rect width="430" height="512" fill="white"/>
<path fill-rule="evenodd" clip-rule="evenodd" d="M330.5 186.5C330.5 253.05 276.55 307 210 307C166.333 307 128.091 283.773 106.955 249H270.5V240H101.998C99.603 235.174 97.5219 230.166 95.7814 225H270.5V216H93.1372C91.9071 211.112 90.9757 206.105 90.3635 201H270.5V192H89.6233C89.5414 190.177 89.5 188.343 89.5 186.5C89.5 183.303 89.6245 180.135 89.869 177H270.5V168H90.9113C91.6991 162.887 92.8084 157.88 94.2178 153H270.5V144H97.2088C99.1613 138.821 101.46 133.811 104.078 129H270.5V120H109.495C131.071 87.4572 168.03 66 210 66C276.55 66 330.5 119.95 330.5 186.5Z" fill="#F1F2F4"/>
<path fill-rule="evenodd" clip-rule="evenodd" d="M231.166 138.331C198.949 138.331 172.833 164.447 172.833 196.664C172.833 228.881 198.949 254.997 231.166 254.997C263.383 254.997 289.499 228.881 289.499 196.664C289.499 164.447 263.383 138.331 231.166 138.331ZM156.166 196.664C156.166 155.243 189.745 121.664 231.166 121.664C272.587 121.664 306.166 155.243 306.166 196.664C306.166 238.085 272.587 271.664 231.166 271.664C189.745 271.664 156.166 238.085 156.166 196.664Z" fill="#FF8560"/>
<path fill-rule="evenodd" clip-rule="evenodd" d="M272.361 237.847C275.615 234.593 280.891 234.593 284.146 237.847L320.396 274.097C323.65 277.351 323.65 282.628 320.396 285.882C317.141 289.137 311.865 289.137 308.611 285.882L272.361 249.632C269.106 246.378 269.106 241.101 272.361 237.847Z" fill="black"/>
<path fill-rule="evenodd" clip-rule="evenodd" d="M272.361 237.847C275.615 234.593 280.891 234.593 284.146 237.847L320.396 274.097C323.65 277.351 323.65 282.628 320.396 285.882C317.141 289.137 311.865 289.137 308.611 285.882L272.361 249.632C269.106 246.378 269.106 241.101 272.361 237.847Z" fill="#FF8560"/>
<path d="M261.773 177.273C264.409 174.637 264.409 170.363 261.773 167.727C259.137 165.091 254.863 165.091 252.227 167.727L201.227 218.727C198.591 221.363 198.591 225.637 201.227 228.273C203.863 230.909 208.137 230.909 210.773 228.273L261.773 177.273Z" fill="#FC4655" stroke="#FC4655" stroke-width="5" stroke-linecap="round" stroke-linejoin="round"/>
<path d="M210.773 167.727C208.137 165.091 203.863 165.091 201.227 167.727C198.591 170.363 198.591 174.637 201.227 177.273L252.227 228.273C254.863 230.909 259.137 230.909 261.773 228.273C264.409 225.637 264.409 221.363 261.773 218.727L210.773 167.727Z" fill="#FC4655" stroke="#FC4655" stroke-width="5" stroke-linecap="round" stroke-linejoin="round"/>
<path d="M72.455 346.876C73.237 346.876 73.9 346.78 74.444 346.587C74.9993 346.383 75.4527 346.105 75.804 345.754C76.1553 345.403 76.4103 344.995 76.569 344.53C76.7277 344.054 76.807 343.544 76.807 343C76.807 341.912 76.45 341.062 75.736 340.45C75.0333 339.838 73.9397 339.532 72.455 339.532H70.143V346.876H72.455ZM84.661 360H79.459C78.4957 360 77.8043 359.637 77.385 358.912L73.271 351.721C73.0783 351.415 72.863 351.194 72.625 351.058C72.387 350.911 72.047 350.837 71.605 350.837H70.143V360H64.397V335.231H72.455C74.2457 335.231 75.77 335.418 77.028 335.792C78.2973 336.155 79.3287 336.665 80.122 337.322C80.9267 337.979 81.5103 338.756 81.873 339.651C82.2357 340.546 82.417 341.521 82.417 342.575C82.417 343.38 82.3093 344.139 82.094 344.853C81.8787 345.567 81.5613 346.23 81.142 346.842C80.7227 347.443 80.2013 347.981 79.578 348.457C78.966 348.933 78.2577 349.324 77.453 349.63C77.827 349.823 78.1783 350.066 78.507 350.361C78.8357 350.644 79.1303 350.984 79.391 351.381L84.661 360ZM96.6136 349.069C96.6136 348.65 96.5569 348.242 96.4436 347.845C96.3416 347.448 96.1659 347.097 95.9166 346.791C95.6786 346.474 95.3613 346.219 94.9646 346.026C94.5679 345.833 94.0863 345.737 93.5196 345.737C92.5223 345.737 91.7403 346.026 91.1736 346.604C90.6069 347.171 90.2329 347.992 90.0516 349.069H96.6136ZM89.9836 352.129C90.1536 353.602 90.6013 354.673 91.3266 355.342C92.0519 355.999 92.9869 356.328 94.1316 356.328C94.7436 356.328 95.2706 356.254 95.7126 356.107C96.1546 355.96 96.5456 355.795 96.8856 355.614C97.2369 355.433 97.5543 355.268 97.8376 355.121C98.1323 354.974 98.4383 354.9 98.7556 354.9C99.1749 354.9 99.4923 355.053 99.7076 355.359L101.238 357.246C100.694 357.869 100.104 358.379 99.4696 358.776C98.8463 359.161 98.2003 359.467 97.5316 359.694C96.8743 359.909 96.2113 360.057 95.5426 360.136C94.8853 360.227 94.2563 360.272 93.6556 360.272C92.4203 360.272 91.2586 360.074 90.1706 359.677C89.0939 359.269 88.1476 358.668 87.3316 357.875C86.5269 357.082 85.8866 356.096 85.4106 354.917C84.9459 353.738 84.7136 352.367 84.7136 350.803C84.7136 349.624 84.9119 348.508 85.3086 347.454C85.7166 346.4 86.2946 345.476 87.0426 344.683C87.8019 343.89 88.7143 343.261 89.7796 342.796C90.8563 342.331 92.0689 342.099 93.4176 342.099C94.5849 342.099 95.6503 342.28 96.6136 342.643C97.5883 343.006 98.4213 343.533 99.1126 344.224C99.8153 344.915 100.359 345.765 100.745 346.774C101.141 347.771 101.34 348.905 101.34 350.174C101.34 350.571 101.323 350.894 101.289 351.143C101.255 351.392 101.192 351.591 101.102 351.738C101.011 351.885 100.886 351.987 100.728 352.044C100.58 352.101 100.388 352.129 100.15 352.129H89.9836ZM115.86 346.23C115.724 346.445 115.576 346.598 115.418 346.689C115.27 346.78 115.078 346.825 114.84 346.825C114.59 346.825 114.341 346.774 114.092 346.672C113.842 346.559 113.57 346.44 113.276 346.315C112.992 346.19 112.669 346.077 112.307 345.975C111.944 345.862 111.53 345.805 111.066 345.805C110.397 345.805 109.881 345.935 109.519 346.196C109.167 346.445 108.992 346.797 108.992 347.25C108.992 347.579 109.105 347.851 109.332 348.066C109.57 348.281 109.881 348.474 110.267 348.644C110.652 348.803 111.088 348.956 111.576 349.103C112.063 349.25 112.562 349.415 113.072 349.596C113.582 349.777 114.08 349.993 114.568 350.242C115.055 350.48 115.491 350.78 115.877 351.143C116.262 351.494 116.568 351.925 116.795 352.435C117.033 352.945 117.152 353.557 117.152 354.271C117.152 355.144 116.993 355.948 116.676 356.685C116.358 357.422 115.882 358.056 115.248 358.589C114.624 359.122 113.848 359.535 112.919 359.83C112.001 360.125 110.941 360.272 109.74 360.272C109.139 360.272 108.538 360.215 107.938 360.102C107.337 359.989 106.753 359.836 106.187 359.643C105.631 359.45 105.116 359.224 104.64 358.963C104.164 358.691 103.756 358.402 103.416 358.096L104.64 356.158C104.776 355.931 104.946 355.756 105.15 355.631C105.365 355.495 105.637 355.427 105.966 355.427C106.272 355.427 106.544 355.495 106.782 355.631C107.031 355.767 107.297 355.914 107.581 356.073C107.864 356.232 108.193 356.379 108.567 356.515C108.952 356.651 109.434 356.719 110.012 356.719C110.42 356.719 110.765 356.679 111.049 356.6C111.332 356.509 111.559 356.39 111.729 356.243C111.899 356.096 112.023 355.931 112.103 355.75C112.182 355.569 112.222 355.382 112.222 355.189C112.222 354.838 112.103 354.549 111.865 354.322C111.627 354.095 111.315 353.903 110.93 353.744C110.544 353.574 110.102 353.421 109.604 353.285C109.116 353.138 108.618 352.973 108.108 352.792C107.598 352.611 107.093 352.395 106.595 352.146C106.107 351.885 105.671 351.562 105.286 351.177C104.9 350.78 104.589 350.299 104.351 349.732C104.113 349.165 103.994 348.48 103.994 347.675C103.994 346.927 104.135 346.219 104.419 345.55C104.713 344.87 105.15 344.275 105.728 343.765C106.306 343.255 107.031 342.853 107.904 342.558C108.776 342.252 109.796 342.099 110.964 342.099C111.598 342.099 112.21 342.156 112.8 342.269C113.4 342.382 113.961 342.541 114.483 342.745C115.004 342.949 115.48 343.193 115.911 343.476C116.341 343.748 116.721 344.048 117.05 344.377L115.86 346.23ZM136.287 342.371V360H133.023C132.366 360 131.935 359.705 131.731 359.116L131.425 358.096C131.085 358.425 130.734 358.725 130.371 358.997C130.009 359.258 129.618 359.484 129.198 359.677C128.79 359.858 128.343 360 127.855 360.102C127.379 360.215 126.858 360.272 126.291 360.272C125.328 360.272 124.472 360.108 123.724 359.779C122.988 359.439 122.364 358.969 121.854 358.368C121.344 357.767 120.959 357.059 120.698 356.243C120.438 355.427 120.307 354.532 120.307 353.557V342.371H125.577V353.557C125.577 354.43 125.776 355.104 126.172 355.58C126.569 356.056 127.153 356.294 127.923 356.294C128.501 356.294 129.04 356.175 129.538 355.937C130.048 355.688 130.541 355.353 131.017 354.934V342.371H136.287ZM145.818 334.551V360H140.548V334.551H145.818ZM156.367 360.272C155.528 360.272 154.786 360.153 154.14 359.915C153.505 359.666 152.967 359.32 152.525 358.878C152.094 358.425 151.766 357.881 151.539 357.246C151.312 356.611 151.199 355.903 151.199 355.121V346.009H149.703C149.431 346.009 149.199 345.924 149.006 345.754C148.813 345.573 148.717 345.312 148.717 344.972V342.915L151.522 342.371L152.559 338.07C152.695 337.526 153.08 337.254 153.715 337.254H156.469V342.405H160.838V346.009H156.469V354.764C156.469 355.172 156.565 355.512 156.758 355.784C156.962 356.045 157.251 356.175 157.625 356.175C157.818 356.175 157.976 356.158 158.101 356.124C158.237 356.079 158.35 356.033 158.441 355.988C158.543 355.931 158.634 355.886 158.713 355.852C158.804 355.807 158.906 355.784 159.019 355.784C159.178 355.784 159.302 355.824 159.393 355.903C159.495 355.971 159.597 356.084 159.699 356.243L161.297 358.742C160.617 359.252 159.852 359.637 159.002 359.898C158.152 360.147 157.274 360.272 156.367 360.272ZM194.574 335.231V360H191.582C191.14 360 190.766 359.932 190.46 359.796C190.165 359.649 189.871 359.399 189.576 359.048L177.897 344.275C177.942 344.717 177.971 345.148 177.982 345.567C178.005 345.975 178.016 346.36 178.016 346.723V360H172.95V335.231H175.976C176.225 335.231 176.435 335.242 176.605 335.265C176.775 335.288 176.928 335.333 177.064 335.401C177.2 335.458 177.33 335.543 177.455 335.656C177.58 335.769 177.721 335.922 177.88 336.115L189.661 350.99C189.604 350.514 189.565 350.055 189.542 349.613C189.519 349.16 189.508 348.735 189.508 348.338V335.231H194.574ZM207.042 342.099C208.38 342.099 209.598 342.309 210.697 342.728C211.797 343.147 212.737 343.748 213.519 344.53C214.313 345.312 214.925 346.264 215.355 347.386C215.797 348.497 216.018 349.749 216.018 351.143C216.018 352.548 215.797 353.818 215.355 354.951C214.925 356.073 214.313 357.031 213.519 357.824C212.737 358.606 211.797 359.212 210.697 359.643C209.598 360.062 208.38 360.272 207.042 360.272C205.694 360.272 204.464 360.062 203.353 359.643C202.254 359.212 201.302 358.606 200.497 357.824C199.704 357.031 199.086 356.073 198.644 354.951C198.214 353.818 197.998 352.548 197.998 351.143C197.998 349.749 198.214 348.497 198.644 347.386C199.086 346.264 199.704 345.312 200.497 344.53C201.302 343.748 202.254 343.147 203.353 342.728C204.464 342.309 205.694 342.099 207.042 342.099ZM207.042 356.362C208.255 356.362 209.145 355.937 209.711 355.087C210.289 354.226 210.578 352.922 210.578 351.177C210.578 349.432 210.289 348.134 209.711 347.284C209.145 346.434 208.255 346.009 207.042 346.009C205.796 346.009 204.883 346.434 204.305 347.284C203.727 348.134 203.438 349.432 203.438 351.177C203.438 352.922 203.727 354.226 204.305 355.087C204.883 355.937 205.796 356.362 207.042 356.362ZM225.294 360.272C224.455 360.272 223.713 360.153 223.067 359.915C222.432 359.666 221.894 359.32 221.452 358.878C221.021 358.425 220.693 357.881 220.466 357.246C220.239 356.611 220.126 355.903 220.126 355.121V346.009H218.63C218.358 346.009 218.126 345.924 217.933 345.754C217.74 345.573 217.644 345.312 217.644 344.972V342.915L220.449 342.371L221.486 338.07C221.622 337.526 222.007 337.254 222.642 337.254H225.396V342.405H229.765V346.009H225.396V354.764C225.396 355.172 225.492 355.512 225.685 355.784C225.889 356.045 226.178 356.175 226.552 356.175C226.745 356.175 226.903 356.158 227.028 356.124C227.164 356.079 227.277 356.033 227.368 355.988C227.47 355.931 227.561 355.886 227.64 355.852C227.731 355.807 227.833 355.784 227.946 355.784C228.105 355.784 228.229 355.824 228.32 355.903C228.422 355.971 228.524 356.084 228.626 356.243L230.224 358.742C229.544 359.252 228.779 359.637 227.929 359.898C227.079 360.147 226.201 360.272 225.294 360.272ZM247.657 339.651V345.924H256.123V350.361H247.657V360H241.877V335.231H257.823V339.651H247.657ZM267.768 342.099C269.106 342.099 270.324 342.309 271.423 342.728C272.523 343.147 273.463 343.748 274.245 344.53C275.039 345.312 275.651 346.264 276.081 347.386C276.523 348.497 276.744 349.749 276.744 351.143C276.744 352.548 276.523 353.818 276.081 354.951C275.651 356.073 275.039 357.031 274.245 357.824C273.463 358.606 272.523 359.212 271.423 359.643C270.324 360.062 269.106 360.272 267.768 360.272C266.42 360.272 265.19 360.062 264.079 359.643C262.98 359.212 262.028 358.606 261.223 357.824C260.43 357.031 259.812 356.073 259.37 354.951C258.94 353.818 258.724 352.548 258.724 351.143C258.724 349.749 258.94 348.497 259.37 347.386C259.812 346.264 260.43 345.312 261.223 344.53C262.028 343.748 262.98 343.147 264.079 342.728C265.19 342.309 266.42 342.099 267.768 342.099ZM267.768 356.362C268.981 356.362 269.871 355.937 270.437 355.087C271.015 354.226 271.304 352.922 271.304 351.177C271.304 349.432 271.015 348.134 270.437 347.284C269.871 346.434 268.981 346.009 267.768 346.009C266.522 346.009 265.609 346.434 265.031 347.284C264.453 348.134 264.164 349.432 264.164 351.177C264.164 352.922 264.453 354.226 265.031 355.087C265.609 355.937 266.522 356.362 267.768 356.362ZM295.888 342.371V360H292.624C291.967 360 291.536 359.705 291.332 359.116L291.026 358.096C290.686 358.425 290.335 358.725 289.972 358.997C289.609 359.258 289.218 359.484 288.799 359.677C288.391 359.858 287.943 360 287.456 360.102C286.98 360.215 286.459 360.272 285.892 360.272C284.929 360.272 284.073 360.108 283.325 359.779C282.588 359.439 281.965 358.969 281.455 358.368C280.945 357.767 280.56 357.059 280.299 356.243C280.038 355.427 279.908 354.532 279.908 353.557V342.371H285.178V353.557C285.178 354.43 285.376 355.104 285.773 355.58C286.17 356.056 286.753 356.294 287.524 356.294C288.102 356.294 288.64 356.175 289.139 355.937C289.649 355.688 290.142 355.353 290.618 354.934V342.371H295.888ZM305.011 344.275C305.351 343.958 305.702 343.663 306.065 343.391C306.427 343.119 306.813 342.892 307.221 342.711C307.64 342.518 308.088 342.371 308.564 342.269C309.051 342.156 309.578 342.099 310.145 342.099C311.108 342.099 311.958 342.269 312.695 342.609C313.443 342.938 314.072 343.402 314.582 344.003C315.092 344.592 315.477 345.301 315.738 346.128C315.998 346.944 316.129 347.834 316.129 348.797V360H310.859V348.797C310.859 347.936 310.66 347.267 310.264 346.791C309.867 346.304 309.283 346.06 308.513 346.06C307.935 346.06 307.391 346.185 306.881 346.434C306.382 346.672 305.895 347.001 305.419 347.42V360H300.149V342.371H303.413C304.07 342.371 304.501 342.666 304.705 343.255L305.011 344.275ZM330.912 347.097C330.516 346.655 330.085 346.349 329.62 346.179C329.156 345.998 328.668 345.907 328.158 345.907C327.671 345.907 327.223 346.003 326.815 346.196C326.407 346.389 326.05 346.7 325.744 347.131C325.45 347.55 325.217 348.1 325.047 348.78C324.877 349.46 324.792 350.282 324.792 351.245C324.792 352.174 324.86 352.956 324.996 353.591C325.132 354.226 325.319 354.741 325.557 355.138C325.807 355.523 326.101 355.801 326.441 355.971C326.781 356.141 327.161 356.226 327.58 356.226C327.966 356.226 328.311 356.192 328.617 356.124C328.935 356.045 329.224 355.937 329.484 355.801C329.745 355.665 329.989 355.495 330.215 355.291C330.453 355.076 330.686 354.832 330.912 354.56V347.097ZM336.182 334.551V360H332.918C332.261 360 331.83 359.705 331.626 359.116L331.218 357.773C330.867 358.147 330.499 358.487 330.113 358.793C329.728 359.099 329.309 359.365 328.855 359.592C328.413 359.807 327.932 359.972 327.41 360.085C326.9 360.21 326.345 360.272 325.744 360.272C324.826 360.272 323.976 360.068 323.194 359.66C322.412 359.252 321.738 358.663 321.171 357.892C320.605 357.121 320.157 356.181 319.828 355.07C319.511 353.948 319.352 352.673 319.352 351.245C319.352 349.93 319.534 348.712 319.896 347.59C320.259 346.457 320.769 345.482 321.426 344.666C322.095 343.839 322.894 343.193 323.823 342.728C324.753 342.263 325.778 342.031 326.9 342.031C327.818 342.031 328.589 342.161 329.212 342.422C329.836 342.683 330.402 343.034 330.912 343.476V334.551H336.182ZM348.7 357.331C348.7 356.923 348.774 356.543 348.921 356.192C349.08 355.841 349.289 355.535 349.55 355.274C349.822 355.013 350.139 354.809 350.502 354.662C350.865 354.503 351.261 354.424 351.692 354.424C352.111 354.424 352.502 354.503 352.865 354.662C353.228 354.809 353.545 355.013 353.817 355.274C354.089 355.535 354.299 355.841 354.446 356.192C354.605 356.543 354.684 356.923 354.684 357.331C354.684 357.739 354.605 358.124 354.446 358.487C354.299 358.838 354.089 359.144 353.817 359.405C353.545 359.666 353.228 359.87 352.865 360.017C352.502 360.164 352.111 360.238 351.692 360.238C351.261 360.238 350.865 360.164 350.502 360.017C350.139 359.87 349.822 359.666 349.55 359.405C349.289 359.144 349.08 358.838 348.921 358.487C348.774 358.124 348.7 357.739 348.7 357.331ZM348.7 345.72C348.7 345.312 348.774 344.932 348.921 344.581C349.08 344.23 349.289 343.924 349.55 343.663C349.822 343.402 350.139 343.198 350.502 343.051C350.865 342.892 351.261 342.813 351.692 342.813C352.111 342.813 352.502 342.892 352.865 343.051C353.228 343.198 353.545 343.402 353.817 343.663C354.089 343.924 354.299 344.23 354.446 344.581C354.605 344.932 354.684 345.312 354.684 345.72C354.684 346.128 354.605 346.513 354.446 346.876C354.299 347.227 354.089 347.533 353.817 347.794C353.545 348.055 353.228 348.259 352.865 348.406C352.502 348.553 352.111 348.627 351.692 348.627C351.261 348.627 350.865 348.553 350.502 348.406C350.139 348.259 349.822 348.055 349.55 347.794C349.289 347.533 349.08 347.227 348.921 346.876C348.774 346.513 348.7 346.128 348.7 345.72ZM362.407 349.358C362.407 350.48 362.469 351.608 362.594 352.741C362.73 353.874 362.923 354.991 363.172 356.09C363.433 357.189 363.739 358.266 364.09 359.32C364.453 360.363 364.866 361.36 365.331 362.312C365.478 362.584 365.563 362.822 365.586 363.026C365.609 363.241 365.586 363.428 365.518 363.587C365.461 363.746 365.371 363.882 365.246 363.995C365.133 364.108 365.002 364.21 364.855 364.301L362.509 365.661C361.682 364.392 360.973 363.1 360.384 361.785C359.795 360.47 359.313 359.139 358.939 357.79C358.565 356.43 358.287 355.047 358.106 353.642C357.936 352.237 357.851 350.809 357.851 349.358C357.851 347.907 357.936 346.479 358.106 345.074C358.287 343.669 358.565 342.292 358.939 340.943C359.313 339.583 359.795 338.246 360.384 336.931C360.973 335.616 361.682 334.319 362.509 333.038L364.855 334.398C365.002 334.489 365.133 334.591 365.246 334.704C365.371 334.817 365.461 334.953 365.518 335.112C365.586 335.271 365.609 335.458 365.586 335.673C365.563 335.877 365.478 336.115 365.331 336.387C364.866 337.339 364.453 338.342 364.09 339.396C363.739 340.439 363.433 341.515 363.172 342.626C362.923 343.725 362.73 344.842 362.594 345.975C362.469 347.108 362.407 348.236 362.407 349.358Z" fill="#445F6F"/>
<path d="M72.7384 394.094H75.2244C75.4811 394.094 75.6938 394.156 75.8624 394.281C76.0384 394.398 76.1558 394.56 76.2144 394.765L78.9204 404.28C78.9864 404.515 79.0451 404.771 79.0964 405.05C79.1551 405.321 79.2101 405.611 79.2614 405.919C79.3201 405.611 79.3824 405.321 79.4484 405.05C79.5218 404.771 79.5988 404.515 79.6794 404.28L82.8034 394.765C82.8621 394.596 82.9758 394.442 83.1444 394.303C83.3204 394.164 83.5331 394.094 83.7824 394.094H84.6514C84.9081 394.094 85.1208 394.156 85.2894 394.281C85.4581 394.398 85.5754 394.56 85.6414 394.765L88.7434 404.28C88.9048 404.749 89.0441 405.27 89.1614 405.842C89.2128 405.556 89.2641 405.281 89.3154 405.017C89.3741 404.753 89.4328 404.507 89.4914 404.28L92.1974 394.765C92.2488 394.582 92.3624 394.424 92.5384 394.292C92.7144 394.16 92.9271 394.094 93.1764 394.094H95.4974L90.5584 410H87.8854L84.4094 399.132C84.3654 398.993 84.3178 398.842 84.2664 398.681C84.2224 398.52 84.1784 398.347 84.1344 398.164C84.0904 398.347 84.0428 398.52 83.9914 398.681C83.9474 398.842 83.9034 398.993 83.8594 399.132L80.3504 410H77.6774L72.7384 394.094ZM97.0897 410V393.654H99.8067V399.935C100.247 399.517 100.731 399.18 101.259 398.923C101.787 398.666 102.406 398.538 103.118 398.538C103.734 398.538 104.28 398.644 104.757 398.857C105.233 399.062 105.629 399.356 105.945 399.737C106.267 400.111 106.509 400.562 106.671 401.09C106.839 401.611 106.924 402.186 106.924 402.817V410H104.207V402.817C104.207 402.128 104.045 401.596 103.723 401.222C103.407 400.841 102.931 400.65 102.293 400.65C101.823 400.65 101.383 400.756 100.973 400.969C100.562 401.182 100.173 401.471 99.8067 401.838V410H97.0897ZM114.412 398.538C115.255 398.538 116.018 398.674 116.7 398.945C117.389 399.216 117.976 399.601 118.46 400.1C118.944 400.599 119.318 401.207 119.582 401.926C119.846 402.645 119.978 403.448 119.978 404.335C119.978 405.23 119.846 406.036 119.582 406.755C119.318 407.474 118.944 408.086 118.46 408.592C117.976 409.098 117.389 409.487 116.7 409.758C116.018 410.029 115.255 410.165 114.412 410.165C113.568 410.165 112.802 410.029 112.113 409.758C111.423 409.487 110.833 409.098 110.342 408.592C109.858 408.086 109.48 407.474 109.209 406.755C108.945 406.036 108.813 405.23 108.813 404.335C108.813 403.448 108.945 402.645 109.209 401.926C109.48 401.207 109.858 400.599 110.342 400.1C110.833 399.601 111.423 399.216 112.113 398.945C112.802 398.674 113.568 398.538 114.412 398.538ZM114.412 408.075C115.35 408.075 116.043 407.76 116.491 407.129C116.945 406.498 117.173 405.574 117.173 404.357C117.173 403.14 116.945 402.212 116.491 401.574C116.043 400.936 115.35 400.617 114.412 400.617C113.458 400.617 112.754 400.94 112.3 401.585C111.845 402.223 111.618 403.147 111.618 404.357C111.618 405.567 111.845 406.491 112.3 407.129C112.754 407.76 113.458 408.075 114.412 408.075ZM126.916 398.538C127.759 398.538 128.522 398.674 129.204 398.945C129.893 399.216 130.48 399.601 130.964 400.1C131.448 400.599 131.822 401.207 132.086 401.926C132.35 402.645 132.482 403.448 132.482 404.335C132.482 405.23 132.35 406.036 132.086 406.755C131.822 407.474 131.448 408.086 130.964 408.592C130.48 409.098 129.893 409.487 129.204 409.758C128.522 410.029 127.759 410.165 126.916 410.165C126.072 410.165 125.306 410.029 124.617 409.758C123.927 409.487 123.337 409.098 122.846 408.592C122.362 408.086 121.984 407.474 121.713 406.755C121.449 406.036 121.317 405.23 121.317 404.335C121.317 403.448 121.449 402.645 121.713 401.926C121.984 401.207 122.362 400.599 122.846 400.1C123.337 399.601 123.927 399.216 124.617 398.945C125.306 398.674 126.072 398.538 126.916 398.538ZM126.916 408.075C127.854 408.075 128.547 407.76 128.995 407.129C129.449 406.498 129.677 405.574 129.677 404.357C129.677 403.14 129.449 402.212 128.995 401.574C128.547 400.936 127.854 400.617 126.916 400.617C125.962 400.617 125.258 400.94 124.804 401.585C124.349 402.223 124.122 403.147 124.122 404.357C124.122 405.567 124.349 406.491 124.804 407.129C125.258 407.76 125.962 408.075 126.916 408.075ZM134.601 413.685V398.714H136.262C136.438 398.714 136.589 398.754 136.713 398.835C136.838 398.916 136.919 399.04 136.955 399.209L137.175 400.254C137.63 399.733 138.151 399.312 138.737 398.989C139.331 398.666 140.024 398.505 140.816 398.505C141.432 398.505 141.993 398.633 142.499 398.89C143.013 399.147 143.453 399.521 143.819 400.012C144.193 400.496 144.479 401.097 144.677 401.816C144.883 402.527 144.985 403.345 144.985 404.269C144.985 405.112 144.872 405.893 144.644 406.612C144.417 407.331 144.091 407.954 143.665 408.482C143.247 409.01 142.738 409.424 142.136 409.725C141.542 410.018 140.875 410.165 140.134 410.165C139.496 410.165 138.954 410.07 138.506 409.879C138.066 409.681 137.67 409.41 137.318 409.065V413.685H134.601ZM139.881 400.65C139.317 400.65 138.833 400.771 138.429 401.013C138.033 401.248 137.663 401.581 137.318 402.014V407.074C137.626 407.455 137.96 407.723 138.319 407.877C138.686 408.024 139.078 408.097 139.496 408.097C139.907 408.097 140.277 408.02 140.607 407.866C140.945 407.712 141.227 407.477 141.454 407.162C141.689 406.847 141.869 406.451 141.993 405.974C142.118 405.49 142.18 404.922 142.18 404.269C142.18 403.609 142.125 403.052 142.015 402.597C141.913 402.135 141.762 401.761 141.564 401.475C141.366 401.189 141.124 400.98 140.838 400.848C140.56 400.716 140.241 400.65 139.881 400.65ZM153.74 400.914C153.667 401.031 153.59 401.116 153.509 401.167C153.428 401.211 153.326 401.233 153.201 401.233C153.069 401.233 152.926 401.196 152.772 401.123C152.625 401.05 152.453 400.969 152.255 400.881C152.057 400.786 151.83 400.701 151.573 400.628C151.324 400.555 151.027 400.518 150.682 400.518C150.147 400.518 149.725 400.632 149.417 400.859C149.109 401.086 148.955 401.383 148.955 401.75C148.955 401.992 149.032 402.197 149.186 402.366C149.347 402.527 149.556 402.67 149.813 402.795C150.077 402.92 150.374 403.033 150.704 403.136C151.034 403.231 151.371 403.338 151.716 403.455C152.061 403.572 152.398 403.708 152.728 403.862C153.058 404.009 153.351 404.199 153.608 404.434C153.872 404.661 154.081 404.936 154.235 405.259C154.396 405.582 154.477 405.97 154.477 406.425C154.477 406.968 154.378 407.47 154.18 407.932C153.982 408.387 153.692 408.783 153.311 409.12C152.93 409.45 152.457 409.71 151.892 409.901C151.335 410.084 150.693 410.176 149.967 410.176C149.578 410.176 149.197 410.139 148.823 410.066C148.456 410 148.101 409.905 147.756 409.78C147.419 409.655 147.103 409.509 146.81 409.34C146.524 409.171 146.271 408.988 146.051 408.79L146.678 407.756C146.759 407.631 146.854 407.536 146.964 407.47C147.074 407.404 147.213 407.371 147.382 407.371C147.551 407.371 147.708 407.419 147.855 407.514C148.009 407.609 148.185 407.712 148.383 407.822C148.581 407.932 148.812 408.035 149.076 408.13C149.347 408.225 149.688 408.273 150.099 408.273C150.422 408.273 150.697 408.236 150.924 408.163C151.159 408.082 151.349 407.98 151.496 407.855C151.65 407.73 151.76 407.587 151.826 407.426C151.899 407.257 151.936 407.085 151.936 406.909C151.936 406.645 151.855 406.429 151.694 406.26C151.54 406.091 151.331 405.945 151.067 405.82C150.81 405.695 150.513 405.585 150.176 405.49C149.846 405.387 149.505 405.277 149.153 405.16C148.808 405.043 148.467 404.907 148.13 404.753C147.8 404.592 147.503 404.39 147.239 404.148C146.982 403.906 146.773 403.609 146.612 403.257C146.458 402.905 146.381 402.48 146.381 401.981C146.381 401.519 146.473 401.079 146.656 400.661C146.839 400.243 147.107 399.88 147.459 399.572C147.818 399.257 148.262 399.007 148.79 398.824C149.325 398.633 149.941 398.538 150.638 398.538C151.415 398.538 152.123 398.666 152.761 398.923C153.399 399.18 153.931 399.517 154.356 399.935L153.74 400.914ZM160.249 408.504C160.249 408.277 160.29 408.06 160.37 407.855C160.458 407.65 160.576 407.474 160.722 407.327C160.876 407.18 161.056 407.063 161.261 406.975C161.467 406.887 161.687 406.843 161.921 406.843C162.149 406.843 162.365 406.887 162.57 406.975C162.776 407.063 162.952 407.18 163.098 407.327C163.245 407.474 163.362 407.65 163.45 407.855C163.538 408.06 163.582 408.277 163.582 408.504C163.582 408.739 163.538 408.959 163.45 409.164C163.362 409.362 163.245 409.534 163.098 409.681C162.952 409.828 162.776 409.941 162.57 410.022C162.365 410.11 162.149 410.154 161.921 410.154C161.687 410.154 161.467 410.11 161.261 410.022C161.056 409.941 160.876 409.828 160.722 409.681C160.576 409.534 160.458 409.362 160.37 409.164C160.29 408.959 160.249 408.739 160.249 408.504ZM165.191 408.504C165.191 408.277 165.231 408.06 165.312 407.855C165.4 407.65 165.517 407.474 165.664 407.327C165.818 407.18 165.997 407.063 166.203 406.975C166.408 406.887 166.628 406.843 166.863 406.843C167.09 406.843 167.306 406.887 167.512 406.975C167.717 407.063 167.893 407.18 168.04 407.327C168.186 407.474 168.304 407.65 168.392 407.855C168.48 408.06 168.524 408.277 168.524 408.504C168.524 408.739 168.48 408.959 168.392 409.164C168.304 409.362 168.186 409.534 168.04 409.681C167.893 409.828 167.717 409.941 167.512 410.022C167.306 410.11 167.09 410.154 166.863 410.154C166.628 410.154 166.408 410.11 166.203 410.022C165.997 409.941 165.818 409.828 165.664 409.681C165.517 409.534 165.4 409.362 165.312 409.164C165.231 408.959 165.191 408.739 165.191 408.504ZM170.132 408.504C170.132 408.277 170.172 408.06 170.253 407.855C170.341 407.65 170.458 407.474 170.605 407.327C170.759 407.18 170.939 407.063 171.144 406.975C171.349 406.887 171.569 406.843 171.804 406.843C172.031 406.843 172.248 406.887 172.453 406.975C172.658 407.063 172.834 407.18 172.981 407.327C173.128 407.474 173.245 407.65 173.333 407.855C173.421 408.06 173.465 408.277 173.465 408.504C173.465 408.739 173.421 408.959 173.333 409.164C173.245 409.362 173.128 409.534 172.981 409.681C172.834 409.828 172.658 409.941 172.453 410.022C172.248 410.11 172.031 410.154 171.804 410.154C171.569 410.154 171.349 410.11 171.144 410.022C170.939 409.941 170.759 409.828 170.605 409.681C170.458 409.534 170.341 409.362 170.253 409.164C170.172 408.959 170.132 408.739 170.132 408.504ZM183.683 410.176C182.708 410.176 181.956 409.901 181.428 409.351C180.9 408.794 180.636 408.027 180.636 407.052V400.749H179.492C179.346 400.749 179.217 400.701 179.107 400.606C179.005 400.511 178.953 400.368 178.953 400.177V399.099L180.768 398.802L181.34 395.722C181.37 395.575 181.436 395.462 181.538 395.381C181.648 395.3 181.784 395.26 181.945 395.26H183.353V398.813H186.323V400.749H183.353V406.865C183.353 407.217 183.441 407.492 183.617 407.69C183.793 407.888 184.028 407.987 184.321 407.987C184.49 407.987 184.629 407.969 184.739 407.932C184.857 407.888 184.956 407.844 185.036 407.8C185.124 407.756 185.201 407.716 185.267 407.679C185.333 407.635 185.399 407.613 185.465 407.613C185.546 407.613 185.612 407.635 185.663 407.679C185.715 407.716 185.77 407.774 185.828 407.855L186.642 409.175C186.246 409.505 185.792 409.754 185.278 409.923C184.765 410.092 184.233 410.176 183.683 410.176ZM188.484 410V393.654H191.201V399.935C191.641 399.517 192.125 399.18 192.653 398.923C193.181 398.666 193.801 398.538 194.512 398.538C195.128 398.538 195.675 398.644 196.151 398.857C196.628 399.062 197.024 399.356 197.339 399.737C197.662 400.111 197.904 400.562 198.065 401.09C198.234 401.611 198.318 402.186 198.318 402.817V410H195.601V402.817C195.601 402.128 195.44 401.596 195.117 401.222C194.802 400.841 194.325 400.65 193.687 400.65C193.218 400.65 192.778 400.756 192.367 400.969C191.957 401.182 191.568 401.471 191.201 401.838V410H188.484ZM203.881 398.714V410H201.164V398.714H203.881ZM204.288 395.425C204.288 395.66 204.24 395.88 204.145 396.085C204.05 396.29 203.921 396.47 203.76 396.624C203.606 396.778 203.423 396.903 203.21 396.998C202.997 397.086 202.77 397.13 202.528 397.13C202.293 397.13 202.07 397.086 201.857 396.998C201.652 396.903 201.472 396.778 201.318 396.624C201.164 396.47 201.039 396.29 200.944 396.085C200.856 395.88 200.812 395.66 200.812 395.425C200.812 395.183 200.856 394.956 200.944 394.743C201.039 394.53 201.164 394.347 201.318 394.193C201.472 394.039 201.652 393.918 201.857 393.83C202.07 393.735 202.293 393.687 202.528 393.687C202.77 393.687 202.997 393.735 203.21 393.83C203.423 393.918 203.606 394.039 203.76 394.193C203.921 394.347 204.05 394.53 204.145 394.743C204.24 394.956 204.288 395.183 204.288 395.425ZM213.66 400.914C213.586 401.031 213.509 401.116 213.429 401.167C213.348 401.211 213.245 401.233 213.121 401.233C212.989 401.233 212.846 401.196 212.692 401.123C212.545 401.05 212.373 400.969 212.175 400.881C211.977 400.786 211.749 400.701 211.493 400.628C211.243 400.555 210.946 400.518 210.602 400.518C210.066 400.518 209.645 400.632 209.337 400.859C209.029 401.086 208.875 401.383 208.875 401.75C208.875 401.992 208.952 402.197 209.106 402.366C209.267 402.527 209.476 402.67 209.733 402.795C209.997 402.92 210.294 403.033 210.624 403.136C210.954 403.231 211.291 403.338 211.636 403.455C211.98 403.572 212.318 403.708 212.648 403.862C212.978 404.009 213.271 404.199 213.528 404.434C213.792 404.661 214.001 404.936 214.155 405.259C214.316 405.582 214.397 405.97 214.397 406.425C214.397 406.968 214.298 407.47 214.1 407.932C213.902 408.387 213.612 408.783 213.231 409.12C212.849 409.45 212.376 409.71 211.812 409.901C211.254 410.084 210.613 410.176 209.887 410.176C209.498 410.176 209.117 410.139 208.743 410.066C208.376 410 208.02 409.905 207.676 409.78C207.338 409.655 207.023 409.509 206.73 409.34C206.444 409.171 206.191 408.988 205.971 408.79L206.598 407.756C206.678 407.631 206.774 407.536 206.884 407.47C206.994 407.404 207.133 407.371 207.302 407.371C207.47 407.371 207.628 407.419 207.775 407.514C207.929 407.609 208.105 407.712 208.303 407.822C208.501 407.932 208.732 408.035 208.996 408.13C209.267 408.225 209.608 408.273 210.019 408.273C210.341 408.273 210.616 408.236 210.844 408.163C211.078 408.082 211.269 407.98 211.416 407.855C211.57 407.73 211.68 407.587 211.746 407.426C211.819 407.257 211.856 407.085 211.856 406.909C211.856 406.645 211.775 406.429 211.614 406.26C211.46 406.091 211.251 405.945 210.987 405.82C210.73 405.695 210.433 405.585 210.096 405.49C209.766 405.387 209.425 405.277 209.073 405.16C208.728 405.043 208.387 404.907 208.05 404.753C207.72 404.592 207.423 404.39 207.159 404.148C206.902 403.906 206.693 403.609 206.532 403.257C206.378 402.905 206.301 402.48 206.301 401.981C206.301 401.519 206.392 401.079 206.576 400.661C206.759 400.243 207.027 399.88 207.379 399.572C207.738 399.257 208.182 399.007 208.71 398.824C209.245 398.633 209.861 398.538 210.558 398.538C211.335 398.538 212.043 398.666 212.681 398.923C213.319 399.18 213.85 399.517 214.276 399.935L213.66 400.914ZM223.711 398.714V410H220.994V398.714H223.711ZM224.118 395.425C224.118 395.66 224.071 395.88 223.975 396.085C223.88 396.29 223.752 396.47 223.59 396.624C223.436 396.778 223.253 396.903 223.04 396.998C222.828 397.086 222.6 397.13 222.358 397.13C222.124 397.13 221.9 397.086 221.687 396.998C221.482 396.903 221.302 396.778 221.148 396.624C220.994 396.47 220.87 396.29 220.774 396.085C220.686 395.88 220.642 395.66 220.642 395.425C220.642 395.183 220.686 394.956 220.774 394.743C220.87 394.53 220.994 394.347 221.148 394.193C221.302 394.039 221.482 393.918 221.687 393.83C221.9 393.735 222.124 393.687 222.358 393.687C222.6 393.687 222.828 393.735 223.04 393.83C223.253 393.918 223.436 394.039 223.59 394.193C223.752 394.347 223.88 394.53 223.975 394.743C224.071 394.956 224.118 395.183 224.118 395.425ZM226.791 410V398.714H228.452C228.804 398.714 229.035 398.879 229.145 399.209L229.332 400.1C229.559 399.865 229.798 399.653 230.047 399.462C230.304 399.271 230.571 399.106 230.85 398.967C231.136 398.828 231.44 398.721 231.763 398.648C232.086 398.575 232.438 398.538 232.819 398.538C233.435 398.538 233.981 398.644 234.458 398.857C234.935 399.062 235.331 399.356 235.646 399.737C235.969 400.111 236.211 400.562 236.372 401.09C236.541 401.611 236.625 402.186 236.625 402.817V410H233.908V402.817C233.908 402.128 233.747 401.596 233.424 401.222C233.109 400.841 232.632 400.65 231.994 400.65C231.525 400.65 231.085 400.756 230.674 400.969C230.263 401.182 229.875 401.471 229.508 401.838V410H226.791ZM239.779 410V400.76L238.8 400.606C238.587 400.569 238.415 400.496 238.283 400.386C238.158 400.276 238.096 400.122 238.096 399.924V398.813H239.779V397.977C239.779 397.332 239.874 396.752 240.065 396.239C240.263 395.726 240.541 395.289 240.901 394.93C241.267 394.571 241.711 394.296 242.232 394.105C242.752 393.914 243.339 393.819 243.992 393.819C244.512 393.819 244.996 393.889 245.444 394.028L245.389 395.392C245.374 395.605 245.275 395.737 245.092 395.788C244.908 395.839 244.696 395.865 244.454 395.865C244.131 395.865 243.841 395.902 243.585 395.975C243.335 396.041 243.123 396.162 242.947 396.338C242.771 396.507 242.635 396.734 242.54 397.02C242.452 397.299 242.408 397.647 242.408 398.065V398.813H245.345V400.749H242.496V410H239.779ZM251.826 398.538C252.669 398.538 253.432 398.674 254.114 398.945C254.803 399.216 255.39 399.601 255.874 400.1C256.358 400.599 256.732 401.207 256.996 401.926C257.26 402.645 257.392 403.448 257.392 404.335C257.392 405.23 257.26 406.036 256.996 406.755C256.732 407.474 256.358 408.086 255.874 408.592C255.39 409.098 254.803 409.487 254.114 409.758C253.432 410.029 252.669 410.165 251.826 410.165C250.982 410.165 250.216 410.029 249.527 409.758C248.837 409.487 248.247 409.098 247.756 408.592C247.272 408.086 246.894 407.474 246.623 406.755C246.359 406.036 246.227 405.23 246.227 404.335C246.227 403.448 246.359 402.645 246.623 401.926C246.894 401.207 247.272 400.599 247.756 400.1C248.247 399.601 248.837 399.216 249.527 398.945C250.216 398.674 250.982 398.538 251.826 398.538ZM251.826 408.075C252.764 408.075 253.457 407.76 253.905 407.129C254.359 406.498 254.587 405.574 254.587 404.357C254.587 403.14 254.359 402.212 253.905 401.574C253.457 400.936 252.764 400.617 251.826 400.617C250.872 400.617 250.168 400.94 249.714 401.585C249.259 402.223 249.032 403.147 249.032 404.357C249.032 405.567 249.259 406.491 249.714 407.129C250.168 407.76 250.872 408.075 251.826 408.075ZM259.512 410V398.714H261.107C261.385 398.714 261.58 398.765 261.69 398.868C261.8 398.971 261.873 399.147 261.91 399.396L262.075 400.76C262.478 400.063 262.951 399.513 263.494 399.11C264.036 398.707 264.645 398.505 265.32 398.505C265.877 398.505 266.339 398.633 266.706 398.89L266.354 400.925C266.332 401.057 266.284 401.152 266.211 401.211C266.137 401.262 266.038 401.288 265.914 401.288C265.804 401.288 265.653 401.262 265.463 401.211C265.272 401.16 265.019 401.134 264.704 401.134C264.139 401.134 263.655 401.292 263.252 401.607C262.848 401.915 262.507 402.37 262.229 402.971V410H259.512ZM268.492 410V398.714H270.153C270.505 398.714 270.736 398.879 270.846 399.209L271.022 400.045C271.22 399.825 271.425 399.623 271.638 399.44C271.858 399.257 272.089 399.099 272.331 398.967C272.58 398.835 272.844 398.732 273.123 398.659C273.409 398.578 273.721 398.538 274.058 398.538C274.769 398.538 275.352 398.732 275.807 399.121C276.269 399.502 276.614 400.012 276.841 400.65C277.017 400.276 277.237 399.957 277.501 399.693C277.765 399.422 278.055 399.202 278.37 399.033C278.685 398.864 279.019 398.74 279.371 398.659C279.73 398.578 280.09 398.538 280.449 398.538C281.072 398.538 281.626 398.633 282.11 398.824C282.594 399.015 283.001 399.293 283.331 399.66C283.661 400.027 283.91 400.474 284.079 401.002C284.255 401.53 284.343 402.135 284.343 402.817V410H281.626V402.817C281.626 402.098 281.468 401.559 281.153 401.2C280.838 400.833 280.376 400.65 279.767 400.65C279.488 400.65 279.228 400.698 278.986 400.793C278.751 400.888 278.542 401.028 278.359 401.211C278.183 401.387 278.044 401.611 277.941 401.882C277.838 402.153 277.787 402.465 277.787 402.817V410H275.059V402.817C275.059 402.062 274.905 401.512 274.597 401.167C274.296 400.822 273.849 400.65 273.255 400.65C272.866 400.65 272.5 400.749 272.155 400.947C271.818 401.138 271.502 401.402 271.209 401.739V410H268.492ZM295.856 410H294.635C294.378 410 294.176 409.963 294.03 409.89C293.883 409.809 293.773 409.652 293.7 409.417L293.458 408.614C293.172 408.871 292.889 409.098 292.611 409.296C292.339 409.487 292.057 409.648 291.764 409.78C291.47 409.912 291.159 410.011 290.829 410.077C290.499 410.143 290.132 410.176 289.729 410.176C289.252 410.176 288.812 410.114 288.409 409.989C288.005 409.857 287.657 409.663 287.364 409.406C287.078 409.149 286.854 408.83 286.693 408.449C286.531 408.068 286.451 407.624 286.451 407.118C286.451 406.693 286.561 406.275 286.781 405.864C287.008 405.446 287.382 405.072 287.903 404.742C288.423 404.405 289.116 404.126 289.982 403.906C290.847 403.686 291.921 403.561 293.205 403.532V402.872C293.205 402.117 293.043 401.559 292.721 401.2C292.405 400.833 291.943 400.65 291.335 400.65C290.895 400.65 290.528 400.701 290.235 400.804C289.941 400.907 289.685 401.024 289.465 401.156C289.252 401.281 289.054 401.394 288.871 401.497C288.687 401.6 288.486 401.651 288.266 401.651C288.082 401.651 287.925 401.603 287.793 401.508C287.661 401.413 287.554 401.295 287.474 401.156L286.979 400.287C288.277 399.099 289.842 398.505 291.676 398.505C292.336 398.505 292.922 398.615 293.436 398.835C293.956 399.048 294.396 399.348 294.756 399.737C295.115 400.118 295.386 400.577 295.57 401.112C295.76 401.647 295.856 402.234 295.856 402.872V410ZM290.576 408.306C290.854 408.306 291.111 408.28 291.346 408.229C291.58 408.178 291.8 408.101 292.006 407.998C292.218 407.895 292.42 407.771 292.611 407.624C292.809 407.47 293.007 407.29 293.205 407.085V405.182C292.413 405.219 291.749 405.288 291.214 405.391C290.686 405.486 290.26 405.611 289.938 405.765C289.615 405.919 289.384 406.099 289.245 406.304C289.113 406.509 289.047 406.733 289.047 406.975C289.047 407.452 289.186 407.793 289.465 407.998C289.751 408.203 290.121 408.306 290.576 408.306ZM302.234 410.176C301.259 410.176 300.507 409.901 299.979 409.351C299.451 408.794 299.187 408.027 299.187 407.052V400.749H298.043C297.897 400.749 297.768 400.701 297.658 400.606C297.556 400.511 297.504 400.368 297.504 400.177V399.099L299.319 398.802L299.891 395.722C299.921 395.575 299.987 395.462 300.089 395.381C300.199 395.3 300.335 395.26 300.496 395.26H301.904V398.813H304.874V400.749H301.904V406.865C301.904 407.217 301.992 407.492 302.168 407.69C302.344 407.888 302.579 407.987 302.872 407.987C303.041 407.987 303.18 407.969 303.29 407.932C303.408 407.888 303.507 407.844 303.587 407.8C303.675 407.756 303.752 407.716 303.818 407.679C303.884 407.635 303.95 407.613 304.016 407.613C304.097 407.613 304.163 407.635 304.214 407.679C304.266 407.716 304.321 407.774 304.379 407.855L305.193 409.175C304.797 409.505 304.343 409.754 303.829 409.923C303.316 410.092 302.784 410.176 302.234 410.176ZM309.928 398.714V410H307.211V398.714H309.928ZM310.335 395.425C310.335 395.66 310.287 395.88 310.192 396.085C310.097 396.29 309.968 396.47 309.807 396.624C309.653 396.778 309.47 396.903 309.257 396.998C309.044 397.086 308.817 397.13 308.575 397.13C308.34 397.13 308.117 397.086 307.904 396.998C307.699 396.903 307.519 396.778 307.365 396.624C307.211 396.47 307.086 396.29 306.991 396.085C306.903 395.88 306.859 395.66 306.859 395.425C306.859 395.183 306.903 394.956 306.991 394.743C307.086 394.53 307.211 394.347 307.365 394.193C307.519 394.039 307.699 393.918 307.904 393.83C308.117 393.735 308.34 393.687 308.575 393.687C308.817 393.687 309.044 393.735 309.257 393.83C309.47 393.918 309.653 394.039 309.807 394.193C309.968 394.347 310.097 394.53 310.192 394.743C310.287 394.956 310.335 395.183 310.335 395.425ZM317.826 398.538C318.669 398.538 319.432 398.674 320.114 398.945C320.803 399.216 321.39 399.601 321.874 400.1C322.358 400.599 322.732 401.207 322.996 401.926C323.26 402.645 323.392 403.448 323.392 404.335C323.392 405.23 323.26 406.036 322.996 406.755C322.732 407.474 322.358 408.086 321.874 408.592C321.39 409.098 320.803 409.487 320.114 409.758C319.432 410.029 318.669 410.165 317.826 410.165C316.982 410.165 316.216 410.029 315.527 409.758C314.837 409.487 314.247 409.098 313.756 408.592C313.272 408.086 312.894 407.474 312.623 406.755C312.359 406.036 312.227 405.23 312.227 404.335C312.227 403.448 312.359 402.645 312.623 401.926C312.894 401.207 313.272 400.599 313.756 400.1C314.247 399.601 314.837 399.216 315.527 398.945C316.216 398.674 316.982 398.538 317.826 398.538ZM317.826 408.075C318.764 408.075 319.457 407.76 319.905 407.129C320.359 406.498 320.587 405.574 320.587 404.357C320.587 403.14 320.359 402.212 319.905 401.574C319.457 400.936 318.764 400.617 317.826 400.617C316.872 400.617 316.168 400.94 315.714 401.585C315.259 402.223 315.032 403.147 315.032 404.357C315.032 405.567 315.259 406.491 315.714 407.129C316.168 407.76 316.872 408.075 317.826 408.075ZM325.512 410V398.714H327.173C327.525 398.714 327.756 398.879 327.866 399.209L328.053 400.1C328.28 399.865 328.518 399.653 328.768 399.462C329.024 399.271 329.292 399.106 329.571 398.967C329.857 398.828 330.161 398.721 330.484 398.648C330.806 398.575 331.158 398.538 331.54 398.538C332.156 398.538 332.702 398.644 333.179 398.857C333.655 399.062 334.051 399.356 334.367 399.737C334.689 400.111 334.931 400.562 335.093 401.09C335.261 401.611 335.346 402.186 335.346 402.817V410H332.629V402.817C332.629 402.128 332.467 401.596 332.145 401.222C331.829 400.841 331.353 400.65 330.715 400.65C330.245 400.65 329.805 400.756 329.395 400.969C328.984 401.182 328.595 401.471 328.229 401.838V410H325.512ZM345.162 398.714V410H342.445V398.714H345.162ZM345.569 395.425C345.569 395.66 345.522 395.88 345.426 396.085C345.331 396.29 345.203 396.47 345.041 396.624C344.887 396.778 344.704 396.903 344.491 396.998C344.279 397.086 344.051 397.13 343.809 397.13C343.575 397.13 343.351 397.086 343.138 396.998C342.933 396.903 342.753 396.778 342.599 396.624C342.445 396.47 342.321 396.29 342.225 396.085C342.137 395.88 342.093 395.66 342.093 395.425C342.093 395.183 342.137 394.956 342.225 394.743C342.321 394.53 342.445 394.347 342.599 394.193C342.753 394.039 342.933 393.918 343.138 393.83C343.351 393.735 343.575 393.687 343.809 393.687C344.051 393.687 344.279 393.735 344.491 393.83C344.704 393.918 344.887 394.039 345.041 394.193C345.203 394.347 345.331 394.53 345.426 394.743C345.522 394.956 345.569 395.183 345.569 395.425ZM354.941 400.914C354.868 401.031 354.791 401.116 354.71 401.167C354.629 401.211 354.527 401.233 354.402 401.233C354.27 401.233 354.127 401.196 353.973 401.123C353.826 401.05 353.654 400.969 353.456 400.881C353.258 400.786 353.031 400.701 352.774 400.628C352.525 400.555 352.228 400.518 351.883 400.518C351.348 400.518 350.926 400.632 350.618 400.859C350.31 401.086 350.156 401.383 350.156 401.75C350.156 401.992 350.233 402.197 350.387 402.366C350.548 402.527 350.757 402.67 351.014 402.795C351.278 402.92 351.575 403.033 351.905 403.136C352.235 403.231 352.572 403.338 352.917 403.455C353.262 403.572 353.599 403.708 353.929 403.862C354.259 404.009 354.552 404.199 354.809 404.434C355.073 404.661 355.282 404.936 355.436 405.259C355.597 405.582 355.678 405.97 355.678 406.425C355.678 406.968 355.579 407.47 355.381 407.932C355.183 408.387 354.893 408.783 354.512 409.12C354.131 409.45 353.658 409.71 353.093 409.901C352.536 410.084 351.894 410.176 351.168 410.176C350.779 410.176 350.398 410.139 350.024 410.066C349.657 410 349.302 409.905 348.957 409.78C348.62 409.655 348.304 409.509 348.011 409.34C347.725 409.171 347.472 408.988 347.252 408.79L347.879 407.756C347.96 407.631 348.055 407.536 348.165 407.47C348.275 407.404 348.414 407.371 348.583 407.371C348.752 407.371 348.909 407.419 349.056 407.514C349.21 407.609 349.386 407.712 349.584 407.822C349.782 407.932 350.013 408.035 350.277 408.13C350.548 408.225 350.889 408.273 351.3 408.273C351.623 408.273 351.898 408.236 352.125 408.163C352.36 408.082 352.55 407.98 352.697 407.855C352.851 407.73 352.961 407.587 353.027 407.426C353.1 407.257 353.137 407.085 353.137 406.909C353.137 406.645 353.056 406.429 352.895 406.26C352.741 406.091 352.532 405.945 352.268 405.82C352.011 405.695 351.714 405.585 351.377 405.49C351.047 405.387 350.706 405.277 350.354 405.16C350.009 405.043 349.668 404.907 349.331 404.753C349.001 404.592 348.704 404.39 348.44 404.148C348.183 403.906 347.974 403.609 347.813 403.257C347.659 402.905 347.582 402.48 347.582 401.981C347.582 401.519 347.674 401.079 347.857 400.661C348.04 400.243 348.308 399.88 348.66 399.572C349.019 399.257 349.463 399.007 349.991 398.824C350.526 398.633 351.142 398.538 351.839 398.538C352.616 398.538 353.324 398.666 353.962 398.923C354.6 399.18 355.132 399.517 355.557 399.935L354.941 400.914ZM85.1229 440V428.714H86.7839C87.1359 428.714 87.3669 428.879 87.4769 429.209L87.6639 430.1C87.8912 429.865 88.1296 429.653 88.3789 429.462C88.6356 429.271 88.9032 429.106 89.1819 428.967C89.4679 428.828 89.7722 428.721 90.0949 428.648C90.4176 428.575 90.7696 428.538 91.1509 428.538C91.7669 428.538 92.3132 428.644 92.7899 428.857C93.2666 429.062 93.6626 429.356 93.9779 429.737C94.3006 430.111 94.5426 430.562 94.7039 431.09C94.8726 431.611 94.9569 432.186 94.9569 432.817V440H92.2399V432.817C92.2399 432.128 92.0786 431.596 91.7559 431.222C91.4406 430.841 90.9639 430.65 90.3259 430.65C89.8566 430.65 89.4166 430.756 89.0059 430.969C88.5952 431.182 88.2066 431.471 87.8399 431.838V440H85.1229ZM102.445 428.538C103.288 428.538 104.051 428.674 104.733 428.945C105.422 429.216 106.009 429.601 106.493 430.1C106.977 430.599 107.351 431.207 107.615 431.926C107.879 432.645 108.011 433.448 108.011 434.335C108.011 435.23 107.879 436.036 107.615 436.755C107.351 437.474 106.977 438.086 106.493 438.592C106.009 439.098 105.422 439.487 104.733 439.758C104.051 440.029 103.288 440.165 102.445 440.165C101.601 440.165 100.835 440.029 100.146 439.758C99.4565 439.487 98.8661 439.098 98.3748 438.592C97.8908 438.086 97.5131 437.474 97.2418 436.755C96.9778 436.036 96.8458 435.23 96.8458 434.335C96.8458 433.448 96.9778 432.645 97.2418 431.926C97.5131 431.207 97.8908 430.599 98.3748 430.1C98.8661 429.601 99.4565 429.216 100.146 428.945C100.835 428.674 101.601 428.538 102.445 428.538ZM102.445 438.075C103.383 438.075 104.076 437.76 104.524 437.129C104.978 436.498 105.206 435.574 105.206 434.357C105.206 433.14 104.978 432.212 104.524 431.574C104.076 430.936 103.383 430.617 102.445 430.617C101.491 430.617 100.787 430.94 100.333 431.585C99.8781 432.223 99.6508 433.147 99.6508 434.357C99.6508 435.567 99.8781 436.491 100.333 437.129C100.787 437.76 101.491 438.075 102.445 438.075ZM113.838 440.176C112.862 440.176 112.111 439.901 111.583 439.351C111.055 438.794 110.791 438.027 110.791 437.052V430.749H109.647C109.5 430.749 109.372 430.701 109.262 430.606C109.159 430.511 109.108 430.368 109.108 430.177V429.099L110.923 428.802L111.495 425.722C111.524 425.575 111.59 425.462 111.693 425.381C111.803 425.3 111.938 425.26 112.1 425.26H113.508V428.813H116.478V430.749H113.508V436.865C113.508 437.217 113.596 437.492 113.772 437.69C113.948 437.888 114.182 437.987 114.476 437.987C114.644 437.987 114.784 437.969 114.894 437.932C115.011 437.888 115.11 437.844 115.191 437.8C115.279 437.756 115.356 437.716 115.422 437.679C115.488 437.635 115.554 437.613 115.62 437.613C115.7 437.613 115.766 437.635 115.818 437.679C115.869 437.716 115.924 437.774 115.983 437.855L116.797 439.175C116.401 439.505 115.946 439.754 115.433 439.923C114.919 440.092 114.388 440.176 113.838 440.176ZM131.736 440H130.515C130.259 440 130.057 439.963 129.91 439.89C129.764 439.809 129.654 439.652 129.58 439.417L129.338 438.614C129.052 438.871 128.77 439.098 128.491 439.296C128.22 439.487 127.938 439.648 127.644 439.78C127.351 439.912 127.039 440.011 126.709 440.077C126.379 440.143 126.013 440.176 125.609 440.176C125.133 440.176 124.693 440.114 124.289 439.989C123.886 439.857 123.538 439.663 123.244 439.406C122.958 439.149 122.735 438.83 122.573 438.449C122.412 438.068 122.331 437.624 122.331 437.118C122.331 436.693 122.441 436.275 122.661 435.864C122.889 435.446 123.263 435.072 123.783 434.742C124.304 434.405 124.997 434.126 125.862 433.906C126.728 433.686 127.802 433.561 129.085 433.532V432.872C129.085 432.117 128.924 431.559 128.601 431.2C128.286 430.833 127.824 430.65 127.215 430.65C126.775 430.65 126.409 430.701 126.115 430.804C125.822 430.907 125.565 431.024 125.345 431.156C125.133 431.281 124.935 431.394 124.751 431.497C124.568 431.6 124.366 431.651 124.146 431.651C123.963 431.651 123.805 431.603 123.673 431.508C123.541 431.413 123.435 431.295 123.354 431.156L122.859 430.287C124.157 429.099 125.723 428.505 127.556 428.505C128.216 428.505 128.803 428.615 129.316 428.835C129.837 429.048 130.277 429.348 130.636 429.737C130.996 430.118 131.267 430.577 131.45 431.112C131.641 431.647 131.736 432.234 131.736 432.872V440ZM126.456 438.306C126.735 438.306 126.992 438.28 127.226 438.229C127.461 438.178 127.681 438.101 127.886 437.998C128.099 437.895 128.301 437.771 128.491 437.624C128.689 437.47 128.887 437.29 129.085 437.085V435.182C128.293 435.219 127.63 435.288 127.094 435.391C126.566 435.486 126.141 435.611 125.818 435.765C125.496 435.919 125.265 436.099 125.125 436.304C124.993 436.509 124.927 436.733 124.927 436.975C124.927 437.452 125.067 437.793 125.345 437.998C125.631 438.203 126.002 438.306 126.456 438.306ZM139.675 440H137.211L132.723 428.714H134.978C135.176 428.714 135.341 428.762 135.473 428.857C135.613 428.952 135.708 429.073 135.759 429.22L137.937 435.248C138.062 435.6 138.165 435.945 138.245 436.282C138.333 436.619 138.41 436.957 138.476 437.294C138.542 436.957 138.616 436.619 138.696 436.282C138.784 435.945 138.894 435.6 139.026 435.248L141.259 429.22C141.311 429.073 141.402 428.952 141.534 428.857C141.666 428.762 141.824 428.714 142.007 428.714H144.152L139.675 440ZM154.596 440H153.375C153.118 440 152.916 439.963 152.77 439.89C152.623 439.809 152.513 439.652 152.44 439.417L152.198 438.614C151.912 438.871 151.629 439.098 151.351 439.296C151.079 439.487 150.797 439.648 150.504 439.78C150.21 439.912 149.899 440.011 149.569 440.077C149.239 440.143 148.872 440.176 148.469 440.176C147.992 440.176 147.552 440.114 147.149 439.989C146.745 439.857 146.397 439.663 146.104 439.406C145.818 439.149 145.594 438.83 145.433 438.449C145.271 438.068 145.191 437.624 145.191 437.118C145.191 436.693 145.301 436.275 145.521 435.864C145.748 435.446 146.122 435.072 146.643 434.742C147.163 434.405 147.856 434.126 148.722 433.906C149.587 433.686 150.661 433.561 151.945 433.532V432.872C151.945 432.117 151.783 431.559 151.461 431.2C151.145 430.833 150.683 430.65 150.075 430.65C149.635 430.65 149.268 430.701 148.975 430.804C148.681 430.907 148.425 431.024 148.205 431.156C147.992 431.281 147.794 431.394 147.611 431.497C147.427 431.6 147.226 431.651 147.006 431.651C146.822 431.651 146.665 431.603 146.533 431.508C146.401 431.413 146.294 431.295 146.214 431.156L145.719 430.287C147.017 429.099 148.582 428.505 150.416 428.505C151.076 428.505 151.662 428.615 152.176 428.835C152.696 429.048 153.136 429.348 153.496 429.737C153.855 430.118 154.126 430.577 154.31 431.112C154.5 431.647 154.596 432.234 154.596 432.872V440ZM149.316 438.306C149.594 438.306 149.851 438.28 150.086 438.229C150.32 438.178 150.54 438.101 150.746 437.998C150.958 437.895 151.16 437.771 151.351 437.624C151.549 437.47 151.747 437.29 151.945 437.085V435.182C151.153 435.219 150.489 435.288 149.954 435.391C149.426 435.486 149 435.611 148.678 435.765C148.355 435.919 148.124 436.099 147.985 436.304C147.853 436.509 147.787 436.733 147.787 436.975C147.787 437.452 147.926 437.793 148.205 437.998C148.491 438.203 148.861 438.306 149.316 438.306ZM160.16 428.714V440H157.443V428.714H160.16ZM160.567 425.425C160.567 425.66 160.52 425.88 160.424 426.085C160.329 426.29 160.201 426.47 160.039 426.624C159.885 426.778 159.702 426.903 159.489 426.998C159.277 427.086 159.049 427.13 158.807 427.13C158.573 427.13 158.349 427.086 158.136 426.998C157.931 426.903 157.751 426.778 157.597 426.624C157.443 426.47 157.319 426.29 157.223 426.085C157.135 425.88 157.091 425.66 157.091 425.425C157.091 425.183 157.135 424.956 157.223 424.743C157.319 424.53 157.443 424.347 157.597 424.193C157.751 424.039 157.931 423.918 158.136 423.83C158.349 423.735 158.573 423.687 158.807 423.687C159.049 423.687 159.277 423.735 159.489 423.83C159.702 423.918 159.885 424.039 160.039 424.193C160.201 424.347 160.329 424.53 160.424 424.743C160.52 424.956 160.567 425.183 160.567 425.425ZM166.133 423.654V440H163.416V423.654H166.133ZM178.057 440H176.836C176.579 440 176.377 439.963 176.231 439.89C176.084 439.809 175.974 439.652 175.901 439.417L175.659 438.614C175.373 438.871 175.09 439.098 174.812 439.296C174.54 439.487 174.258 439.648 173.965 439.78C173.671 439.912 173.36 440.011 173.03 440.077C172.7 440.143 172.333 440.176 171.93 440.176C171.453 440.176 171.013 440.114 170.61 439.989C170.206 439.857 169.858 439.663 169.565 439.406C169.279 439.149 169.055 438.83 168.894 438.449C168.732 438.068 168.652 437.624 168.652 437.118C168.652 436.693 168.762 436.275 168.982 435.864C169.209 435.446 169.583 435.072 170.104 434.742C170.624 434.405 171.317 434.126 172.183 433.906C173.048 433.686 174.122 433.561 175.406 433.532V432.872C175.406 432.117 175.244 431.559 174.922 431.2C174.606 430.833 174.144 430.65 173.536 430.65C173.096 430.65 172.729 430.701 172.436 430.804C172.142 430.907 171.886 431.024 171.666 431.156C171.453 431.281 171.255 431.394 171.072 431.497C170.888 431.6 170.687 431.651 170.467 431.651C170.283 431.651 170.126 431.603 169.994 431.508C169.862 431.413 169.755 431.295 169.675 431.156L169.18 430.287C170.478 429.099 172.043 428.505 173.877 428.505C174.537 428.505 175.123 428.615 175.637 428.835C176.157 429.048 176.597 429.348 176.957 429.737C177.316 430.118 177.587 430.577 177.771 431.112C177.961 431.647 178.057 432.234 178.057 432.872V440ZM172.777 438.306C173.055 438.306 173.312 438.28 173.547 438.229C173.781 438.178 174.001 438.101 174.207 437.998C174.419 437.895 174.621 437.771 174.812 437.624C175.01 437.47 175.208 437.29 175.406 437.085V435.182C174.614 435.219 173.95 435.288 173.415 435.391C172.887 435.486 172.461 435.611 172.139 435.765C171.816 435.919 171.585 436.099 171.446 436.304C171.314 436.509 171.248 436.733 171.248 436.975C171.248 437.452 171.387 437.793 171.666 437.998C171.952 438.203 172.322 438.306 172.777 438.306ZM180.761 440V423.654H183.478V430.1C183.926 429.623 184.432 429.246 184.996 428.967C185.561 428.681 186.221 428.538 186.976 428.538C187.592 428.538 188.153 428.666 188.659 428.923C189.173 429.172 189.613 429.539 189.979 430.023C190.353 430.507 190.639 431.105 190.837 431.816C191.043 432.527 191.145 433.345 191.145 434.269C191.145 435.112 191.032 435.893 190.804 436.612C190.577 437.331 190.251 437.954 189.825 438.482C189.407 439.01 188.898 439.424 188.296 439.725C187.702 440.018 187.035 440.165 186.294 440.165C185.95 440.165 185.634 440.128 185.348 440.055C185.062 439.989 184.802 439.894 184.567 439.769C184.333 439.644 184.113 439.494 183.907 439.318C183.709 439.135 183.519 438.933 183.335 438.713L183.214 439.472C183.17 439.663 183.093 439.798 182.983 439.879C182.881 439.96 182.738 440 182.554 440H180.761ZM186.041 430.65C185.477 430.65 184.993 430.771 184.589 431.013C184.193 431.248 183.823 431.581 183.478 432.014V437.074C183.786 437.455 184.12 437.723 184.479 437.877C184.846 438.024 185.242 438.097 185.667 438.097C186.078 438.097 186.448 438.02 186.778 437.866C187.108 437.712 187.387 437.477 187.614 437.162C187.849 436.847 188.029 436.451 188.153 435.974C188.278 435.49 188.34 434.922 188.34 434.269C188.34 433.609 188.285 433.052 188.175 432.597C188.073 432.135 187.922 431.761 187.724 431.475C187.526 431.189 187.284 430.98 186.998 430.848C186.72 430.716 186.401 430.65 186.041 430.65ZM196.168 423.654V440H193.451V423.654H196.168ZM203.912 428.538C204.623 428.538 205.276 428.652 205.87 428.879C206.471 429.106 206.988 429.44 207.421 429.88C207.854 430.313 208.191 430.848 208.433 431.486C208.675 432.117 208.796 432.839 208.796 433.653C208.796 433.858 208.785 434.031 208.763 434.17C208.748 434.302 208.715 434.408 208.664 434.489C208.62 434.562 208.558 434.617 208.477 434.654C208.396 434.683 208.294 434.698 208.169 434.698H201.195C201.276 435.857 201.587 436.707 202.13 437.25C202.673 437.793 203.391 438.064 204.286 438.064C204.726 438.064 205.104 438.013 205.419 437.91C205.742 437.807 206.02 437.694 206.255 437.569C206.497 437.444 206.706 437.331 206.882 437.228C207.065 437.125 207.241 437.074 207.41 437.074C207.52 437.074 207.615 437.096 207.696 437.14C207.777 437.184 207.846 437.246 207.905 437.327L208.697 438.317C208.396 438.669 208.059 438.966 207.685 439.208C207.311 439.443 206.919 439.633 206.508 439.78C206.105 439.919 205.69 440.018 205.265 440.077C204.847 440.136 204.44 440.165 204.044 440.165C203.259 440.165 202.53 440.037 201.855 439.78C201.18 439.516 200.594 439.131 200.095 438.625C199.596 438.112 199.204 437.481 198.918 436.733C198.632 435.978 198.489 435.105 198.489 434.115C198.489 433.345 198.614 432.623 198.863 431.948C199.112 431.266 199.468 430.676 199.93 430.177C200.399 429.671 200.968 429.271 201.635 428.978C202.31 428.685 203.069 428.538 203.912 428.538ZM203.967 430.485C203.175 430.485 202.555 430.709 202.108 431.156C201.661 431.603 201.375 432.238 201.25 433.059H206.354C206.354 432.707 206.306 432.377 206.211 432.069C206.116 431.754 205.969 431.479 205.771 431.244C205.573 431.009 205.324 430.826 205.023 430.694C204.722 430.555 204.37 430.485 203.967 430.485ZM215.738 440V430.76L214.759 430.606C214.546 430.569 214.374 430.496 214.242 430.386C214.117 430.276 214.055 430.122 214.055 429.924V428.813H215.738V427.977C215.738 427.332 215.833 426.752 216.024 426.239C216.222 425.726 216.5 425.289 216.86 424.93C217.226 424.571 217.67 424.296 218.191 424.105C218.711 423.914 219.298 423.819 219.951 423.819C220.471 423.819 220.955 423.889 221.403 424.028L221.348 425.392C221.333 425.605 221.234 425.737 221.051 425.788C220.867 425.839 220.655 425.865 220.413 425.865C220.09 425.865 219.8 425.902 219.544 425.975C219.294 426.041 219.082 426.162 218.906 426.338C218.73 426.507 218.594 426.734 218.499 427.02C218.411 427.299 218.367 427.647 218.367 428.065V428.813H221.304V430.749H218.455V440H215.738ZM227.785 428.538C228.628 428.538 229.391 428.674 230.073 428.945C230.762 429.216 231.349 429.601 231.833 430.1C232.317 430.599 232.691 431.207 232.955 431.926C233.219 432.645 233.351 433.448 233.351 434.335C233.351 435.23 233.219 436.036 232.955 436.755C232.691 437.474 232.317 438.086 231.833 438.592C231.349 439.098 230.762 439.487 230.073 439.758C229.391 440.029 228.628 440.165 227.785 440.165C226.941 440.165 226.175 440.029 225.486 439.758C224.796 439.487 224.206 439.098 223.715 438.592C223.231 438.086 222.853 437.474 222.582 436.755C222.318 436.036 222.186 435.23 222.186 434.335C222.186 433.448 222.318 432.645 222.582 431.926C222.853 431.207 223.231 430.599 223.715 430.1C224.206 429.601 224.796 429.216 225.486 428.945C226.175 428.674 226.941 428.538 227.785 428.538ZM227.785 438.075C228.723 438.075 229.416 437.76 229.864 437.129C230.318 436.498 230.546 435.574 230.546 434.357C230.546 433.14 230.318 432.212 229.864 431.574C229.416 430.936 228.723 430.617 227.785 430.617C226.831 430.617 226.127 430.94 225.673 431.585C225.218 432.223 224.991 433.147 224.991 434.357C224.991 435.567 225.218 436.491 225.673 437.129C226.127 437.76 226.831 438.075 227.785 438.075ZM235.471 440V428.714H237.066C237.344 428.714 237.539 428.765 237.649 428.868C237.759 428.971 237.832 429.147 237.869 429.396L238.034 430.76C238.437 430.063 238.91 429.513 239.453 429.11C239.995 428.707 240.604 428.505 241.279 428.505C241.836 428.505 242.298 428.633 242.665 428.89L242.313 430.925C242.291 431.057 242.243 431.152 242.17 431.211C242.096 431.262 241.997 431.288 241.873 431.288C241.763 431.288 241.612 431.262 241.422 431.211C241.231 431.16 240.978 431.134 240.663 431.134C240.098 431.134 239.614 431.292 239.211 431.607C238.807 431.915 238.466 432.37 238.188 432.971V440H235.471ZM257.549 440H256.328C256.071 440 255.87 439.963 255.723 439.89C255.576 439.809 255.466 439.652 255.393 439.417L255.151 438.614C254.865 438.871 254.583 439.098 254.304 439.296C254.033 439.487 253.75 439.648 253.457 439.78C253.164 439.912 252.852 440.011 252.522 440.077C252.192 440.143 251.825 440.176 251.422 440.176C250.945 440.176 250.505 440.114 250.102 439.989C249.699 439.857 249.35 439.663 249.057 439.406C248.771 439.149 248.547 438.83 248.386 438.449C248.225 438.068 248.144 437.624 248.144 437.118C248.144 436.693 248.254 436.275 248.474 435.864C248.701 435.446 249.075 435.072 249.596 434.742C250.117 434.405 250.81 434.126 251.675 433.906C252.54 433.686 253.615 433.561 254.898 433.532V432.872C254.898 432.117 254.737 431.559 254.414 431.2C254.099 430.833 253.637 430.65 253.028 430.65C252.588 430.65 252.221 430.701 251.928 430.804C251.635 430.907 251.378 431.024 251.158 431.156C250.945 431.281 250.747 431.394 250.564 431.497C250.381 431.6 250.179 431.651 249.959 431.651C249.776 431.651 249.618 431.603 249.486 431.508C249.354 431.413 249.248 431.295 249.167 431.156L248.672 430.287C249.97 429.099 251.536 428.505 253.369 428.505C254.029 428.505 254.616 428.615 255.129 428.835C255.65 429.048 256.09 429.348 256.449 429.737C256.808 430.118 257.08 430.577 257.263 431.112C257.454 431.647 257.549 432.234 257.549 432.872V440ZM252.269 438.306C252.548 438.306 252.804 438.28 253.039 438.229C253.274 438.178 253.494 438.101 253.699 437.998C253.912 437.895 254.113 437.771 254.304 437.624C254.502 437.47 254.7 437.29 254.898 437.085V435.182C254.106 435.219 253.442 435.288 252.907 435.391C252.379 435.486 251.954 435.611 251.631 435.765C251.308 435.919 251.077 436.099 250.938 436.304C250.806 436.509 250.74 436.733 250.74 436.975C250.74 437.452 250.879 437.793 251.158 437.998C251.444 438.203 251.814 438.306 252.269 438.306ZM264.474 440V428.714H266.135C266.487 428.714 266.718 428.879 266.828 429.209L267.004 430.045C267.202 429.825 267.408 429.623 267.62 429.44C267.84 429.257 268.071 429.099 268.313 428.967C268.563 428.835 268.827 428.732 269.105 428.659C269.391 428.578 269.703 428.538 270.04 428.538C270.752 428.538 271.335 428.732 271.789 429.121C272.251 429.502 272.596 430.012 272.823 430.65C272.999 430.276 273.219 429.957 273.483 429.693C273.747 429.422 274.037 429.202 274.352 429.033C274.668 428.864 275.001 428.74 275.353 428.659C275.713 428.578 276.072 428.538 276.431 428.538C277.055 428.538 277.608 428.633 278.092 428.824C278.576 429.015 278.983 429.293 279.313 429.66C279.643 430.027 279.893 430.474 280.061 431.002C280.237 431.53 280.325 432.135 280.325 432.817V440H277.608V432.817C277.608 432.098 277.451 431.559 277.135 431.2C276.82 430.833 276.358 430.65 275.749 430.65C275.471 430.65 275.21 430.698 274.968 430.793C274.734 430.888 274.525 431.028 274.341 431.211C274.165 431.387 274.026 431.611 273.923 431.882C273.821 432.153 273.769 432.465 273.769 432.817V440H271.041V432.817C271.041 432.062 270.887 431.512 270.579 431.167C270.279 430.822 269.831 430.65 269.237 430.65C268.849 430.65 268.482 430.749 268.137 430.947C267.8 431.138 267.485 431.402 267.191 431.739V440H264.474ZM287.812 428.538C288.655 428.538 289.418 428.674 290.1 428.945C290.789 429.216 291.376 429.601 291.86 430.1C292.344 430.599 292.718 431.207 292.982 431.926C293.246 432.645 293.378 433.448 293.378 434.335C293.378 435.23 293.246 436.036 292.982 436.755C292.718 437.474 292.344 438.086 291.86 438.592C291.376 439.098 290.789 439.487 290.1 439.758C289.418 440.029 288.655 440.165 287.812 440.165C286.969 440.165 286.202 440.029 285.513 439.758C284.824 439.487 284.233 439.098 283.742 438.592C283.258 438.086 282.88 437.474 282.609 436.755C282.345 436.036 282.213 435.23 282.213 434.335C282.213 433.448 282.345 432.645 282.609 431.926C282.88 431.207 283.258 430.599 283.742 430.1C284.233 429.601 284.824 429.216 285.513 428.945C286.202 428.674 286.969 428.538 287.812 428.538ZM287.812 438.075C288.751 438.075 289.444 437.76 289.891 437.129C290.346 436.498 290.573 435.574 290.573 434.357C290.573 433.14 290.346 432.212 289.891 431.574C289.444 430.936 288.751 430.617 287.812 430.617C286.859 430.617 286.155 430.94 285.7 431.585C285.245 432.223 285.018 433.147 285.018 434.357C285.018 435.567 285.245 436.491 285.7 437.129C286.155 437.76 286.859 438.075 287.812 438.075ZM295.498 440V428.714H297.159C297.511 428.714 297.742 428.879 297.852 429.209L298.028 430.045C298.226 429.825 298.431 429.623 298.644 429.44C298.864 429.257 299.095 429.099 299.337 428.967C299.586 428.835 299.85 428.732 300.129 428.659C300.415 428.578 300.727 428.538 301.064 428.538C301.775 428.538 302.358 428.732 302.813 429.121C303.275 429.502 303.62 430.012 303.847 430.65C304.023 430.276 304.243 429.957 304.507 429.693C304.771 429.422 305.061 429.202 305.376 429.033C305.691 428.864 306.025 428.74 306.377 428.659C306.736 428.578 307.096 428.538 307.455 428.538C308.078 428.538 308.632 428.633 309.116 428.824C309.6 429.015 310.007 429.293 310.337 429.66C310.667 430.027 310.916 430.474 311.085 431.002C311.261 431.53 311.349 432.135 311.349 432.817V440H308.632V432.817C308.632 432.098 308.474 431.559 308.159 431.2C307.844 430.833 307.382 430.65 306.773 430.65C306.494 430.65 306.234 430.698 305.992 430.793C305.757 430.888 305.548 431.028 305.365 431.211C305.189 431.387 305.05 431.611 304.947 431.882C304.844 432.153 304.793 432.465 304.793 432.817V440H302.065V432.817C302.065 432.062 301.911 431.512 301.603 431.167C301.302 430.822 300.855 430.65 300.261 430.65C299.872 430.65 299.506 430.749 299.161 430.947C298.824 431.138 298.508 431.402 298.215 431.739V440H295.498ZM318.681 428.538C319.393 428.538 320.045 428.652 320.639 428.879C321.241 429.106 321.758 429.44 322.19 429.88C322.623 430.313 322.96 430.848 323.202 431.486C323.444 432.117 323.565 432.839 323.565 433.653C323.565 433.858 323.554 434.031 323.532 434.17C323.518 434.302 323.485 434.408 323.433 434.489C323.389 434.562 323.327 434.617 323.246 434.654C323.166 434.683 323.063 434.698 322.938 434.698H315.964C316.045 435.857 316.357 436.707 316.899 437.25C317.442 437.793 318.161 438.064 319.055 438.064C319.495 438.064 319.873 438.013 320.188 437.91C320.511 437.807 320.79 437.694 321.024 437.569C321.266 437.444 321.475 437.331 321.651 437.228C321.835 437.125 322.011 437.074 322.179 437.074C322.289 437.074 322.385 437.096 322.465 437.14C322.546 437.184 322.616 437.246 322.674 437.327L323.466 438.317C323.166 438.669 322.828 438.966 322.454 439.208C322.08 439.443 321.688 439.633 321.277 439.78C320.874 439.919 320.46 440.018 320.034 440.077C319.616 440.136 319.209 440.165 318.813 440.165C318.029 440.165 317.299 440.037 316.624 439.78C315.95 439.516 315.363 439.131 314.864 438.625C314.366 438.112 313.973 437.481 313.687 436.733C313.401 435.978 313.258 435.105 313.258 434.115C313.258 433.345 313.383 432.623 313.632 431.948C313.882 431.266 314.237 430.676 314.699 430.177C315.169 429.671 315.737 429.271 316.404 428.978C317.079 428.685 317.838 428.538 318.681 428.538ZM318.736 430.485C317.944 430.485 317.325 430.709 316.877 431.156C316.43 431.603 316.144 432.238 316.019 433.059H321.123C321.123 432.707 321.076 432.377 320.98 432.069C320.885 431.754 320.738 431.479 320.54 431.244C320.342 431.009 320.093 430.826 319.792 430.694C319.492 430.555 319.14 430.485 318.736 430.485ZM325.769 440V428.714H327.43C327.782 428.714 328.013 428.879 328.123 429.209L328.31 430.1C328.538 429.865 328.776 429.653 329.025 429.462C329.282 429.271 329.55 429.106 329.828 428.967C330.114 428.828 330.419 428.721 330.741 428.648C331.064 428.575 331.416 428.538 331.797 428.538C332.413 428.538 332.96 428.644 333.436 428.857C333.913 429.062 334.309 429.356 334.624 429.737C334.947 430.111 335.189 430.562 335.35 431.09C335.519 431.611 335.603 432.186 335.603 432.817V440H332.886V432.817C332.886 432.128 332.725 431.596 332.402 431.222C332.087 430.841 331.61 430.65 330.972 430.65C330.503 430.65 330.063 430.756 329.652 430.969C329.242 431.182 328.853 431.471 328.486 431.838V440H325.769ZM341.98 440.176C341.005 440.176 340.253 439.901 339.725 439.351C339.197 438.794 338.933 438.027 338.933 437.052V430.749H337.789C337.643 430.749 337.514 430.701 337.404 430.606C337.302 430.511 337.25 430.368 337.25 430.177V429.099L339.065 428.802L339.637 425.722C339.667 425.575 339.733 425.462 339.835 425.381C339.945 425.3 340.081 425.26 340.242 425.26H341.65V428.813H344.62V430.749H341.65V436.865C341.65 437.217 341.738 437.492 341.914 437.69C342.09 437.888 342.325 437.987 342.618 437.987C342.787 437.987 342.926 437.969 343.036 437.932C343.154 437.888 343.253 437.844 343.333 437.8C343.421 437.756 343.498 437.716 343.564 437.679C343.63 437.635 343.696 437.613 343.762 437.613C343.843 437.613 343.909 437.635 343.96 437.679C344.012 437.716 344.067 437.774 344.125 437.855L344.939 439.175C344.543 439.505 344.089 439.754 343.575 439.923C343.062 440.092 342.53 440.176 341.98 440.176Z" fill="#7697AB"/>
</svg>
