<svg width="45" height="45" viewBox="0 0 45 45" fill="none" xmlns="http://www.w3.org/2000/svg">
<path fill-rule="evenodd" clip-rule="evenodd" d="M34.1619 6.03688C34.7111 5.48771 35.6014 5.48771 36.1506 6.03688L40.3694 10.2556C40.9185 10.8048 40.9185 11.6952 40.3694 12.2444L36.1506 16.4631C35.6014 17.0123 34.7111 17.0123 34.1619 16.4631C33.6127 15.9139 33.6127 15.0236 34.1619 14.4744L37.3863 11.25L34.1619 8.02562C33.6127 7.47644 33.6127 6.58606 34.1619 6.03688Z" fill="#FF4C2C"/>
<path fill-rule="evenodd" clip-rule="evenodd" d="M16.8728 9.84375L16.875 9.84375L39.375 9.84375C40.1516 9.84375 40.7812 10.4734 40.7812 11.25C40.7812 12.0267 40.1516 12.6563 39.375 12.6563H16.8762C14.2665 12.6606 11.7649 13.6992 9.91955 15.5446C8.07396 17.3901 7.03532 19.8921 7.03125 22.5022C7.03004 23.2788 6.39946 23.9075 5.62281 23.9062C4.84616 23.905 4.21754 23.2745 4.21875 22.4978C4.22398 19.1434 5.55885 15.9278 7.93081 13.5558C10.3028 11.1839 13.5184 9.84898 16.8728 9.84375Z" fill="#FF4C2C"/>
<path fill-rule="evenodd" clip-rule="evenodd" d="M10.8381 28.5369C11.3873 29.0861 11.3873 29.9764 10.8381 30.5256L7.61374 33.75L10.8381 36.9744C11.3873 37.5236 11.3873 38.4139 10.8381 38.9631C10.2889 39.5123 9.39856 39.5123 8.84938 38.9631L4.63063 34.7444C4.08146 34.1952 4.08146 33.3048 4.63063 32.7556L8.84938 28.5369C9.39856 27.9877 10.2889 27.9877 10.8381 28.5369Z" fill="#FF4C2C"/>
<path fill-rule="evenodd" clip-rule="evenodd" d="M39.3772 21.0938C40.1538 21.095 40.7825 21.7255 40.7812 22.5022C40.776 25.8567 39.4411 29.0722 37.0692 31.4442C34.6972 33.8161 31.4817 35.151 28.1272 35.1562L5.625 35.1562C4.84835 35.1562 4.21875 34.5267 4.21875 33.75C4.21875 32.9733 4.84835 32.3438 5.625 32.3438H28.124C30.7337 32.3394 33.2351 31.3007 35.0804 29.4554C36.926 27.6099 37.9647 25.1079 37.9688 22.4978C37.97 21.7212 38.6005 21.0925 39.3772 21.0938Z" fill="#FF4C2C"/>
</svg>
