<svg width="30" height="30" viewBox="0 0 30 30" fill="none" xmlns="http://www.w3.org/2000/svg">
<path fill-rule="evenodd" clip-rule="evenodd" d="M20.8346 11.5404C21.192 11.915 21.178 12.5084 20.8034 12.8658L13.9245 19.4283C13.562 19.7741 12.9918 19.7739 12.6296 19.4278L9.19605 16.1465C8.82172 15.7888 8.80826 15.1954 9.16597 14.821C9.52369 14.4467 10.1171 14.4333 10.4915 14.791L13.2779 17.4538L19.5091 11.5092C19.8838 11.1518 20.4772 11.1657 20.8346 11.5404Z" fill="#0FD884"/>
<path fill-rule="evenodd" clip-rule="evenodd" d="M15 4.6875C9.30456 4.6875 4.6875 9.30456 4.6875 15C4.6875 20.6954 9.30456 25.3125 15 25.3125C20.6954 25.3125 25.3125 20.6954 25.3125 15C25.3125 9.30456 20.6954 4.6875 15 4.6875ZM2.8125 15C2.8125 8.26903 8.26903 2.8125 15 2.8125C21.731 2.8125 27.1875 8.26903 27.1875 15C27.1875 21.731 21.731 27.1875 15 27.1875C8.26903 27.1875 2.8125 21.731 2.8125 15Z" fill="#0FD884"/>
</svg>
