<svg width="30" height="30" viewBox="0 0 30 30" fill="none" xmlns="http://www.w3.org/2000/svg">
<path fill-rule="evenodd" clip-rule="evenodd" d="M15 11.25C15.5178 11.25 15.9375 11.6697 15.9375 12.1875V16.875C15.9375 17.3928 15.5178 17.8125 15 17.8125C14.4822 17.8125 14.0625 17.3928 14.0625 16.875V12.1875C14.0625 11.6697 14.4822 11.25 15 11.25Z" fill="#FFDB28"/>
<path fill-rule="evenodd" clip-rule="evenodd" d="M13.5942 3.19041C14.0211 2.94287 14.5058 2.8125 14.9993 2.8125C15.4927 2.8125 15.9774 2.94287 16.4043 3.19041C16.8304 3.43753 17.1838 3.79266 17.4289 4.21997C17.4293 4.22069 17.4297 4.22142 17.4301 4.22214L27.7408 22.0315C27.9873 22.4584 28.1172 22.9425 28.1177 23.4353C28.1181 23.9282 27.989 24.4125 27.7433 24.8398C27.4976 25.267 27.144 25.6222 26.7178 25.8698C26.2917 26.1173 25.8079 26.2486 25.3151 26.2503L25.3118 26.2503H4.68676L4.68345 26.2503C4.1906 26.2486 3.70685 26.1173 3.28068 25.8698C2.8545 25.6222 2.50086 25.267 2.25519 24.8398C2.00951 24.4125 1.88042 23.9282 1.88086 23.4353C1.8813 22.9425 2.01124 22.4584 2.25767 22.0315L12.5684 4.22214C12.5688 4.22142 12.5692 4.22069 12.5696 4.21997C12.8147 3.79266 13.1681 3.43753 13.5942 3.19041ZM13.3821 4.6878L14.1934 5.15752L3.88146 22.9691C3.88139 22.9692 3.88153 22.9689 3.88146 22.9691C3.79945 23.1112 3.756 23.2728 3.75586 23.437C3.75571 23.6013 3.79874 23.7627 3.88063 23.9051C3.96253 24.0475 4.08041 24.1659 4.22247 24.2485C4.36416 24.3308 4.52494 24.3745 4.68878 24.3753H25.3097C25.4736 24.3745 25.6344 24.3308 25.776 24.2485C25.9181 24.1659 26.036 24.0475 26.1179 23.9051C26.1998 23.7627 26.2428 23.6013 26.2427 23.437C26.2425 23.2729 26.1993 23.1117 26.1174 22.9696C26.1173 22.9694 26.1175 22.9698 26.1174 22.9696L15.8028 5.15346C15.7217 5.01189 15.6048 4.89424 15.4637 4.81241C15.3226 4.73059 15.1624 4.6875 14.9993 4.6875C14.8361 4.6875 14.6759 4.73059 14.5348 4.81241C14.3937 4.89424 14.2768 5.01189 14.1957 5.15345L13.3821 4.6878Z" fill="#FFDB28"/>
<path d="M15 22.5C15.7767 22.5 16.4062 21.8704 16.4062 21.0938C16.4062 20.3171 15.7767 19.6875 15 19.6875C14.2233 19.6875 13.5938 20.3171 13.5938 21.0938C13.5938 21.8704 14.2233 22.5 15 22.5Z" fill="#FFDB28"/>
</svg>
