<svg width="335" height="312" viewBox="0 0 335 312" fill="none" xmlns="http://www.w3.org/2000/svg">
<rect width="335" height="312" rx="12" fill="white"/>
<rect width="335" height="82" transform="translate(0 24.5664)" fill="white"/>
<path d="M166.694 44.7978C166.694 46.5041 166.511 47.9825 166.145 49.2332C165.778 50.4839 165.269 51.5201 164.617 52.342C163.974 53.1639 163.205 53.7758 162.312 54.1778C161.428 54.5798 160.467 54.7808 159.431 54.7808C158.395 54.7808 157.435 54.5798 156.55 54.1778C155.675 53.7758 154.915 53.1639 154.272 52.342C153.629 51.5201 153.124 50.4839 152.758 49.2332C152.401 47.9825 152.222 46.5041 152.222 44.7978C152.222 43.0915 152.401 41.6131 152.758 40.3624C153.124 39.1117 153.629 38.0755 154.272 37.2536C154.915 36.4317 155.675 35.8243 156.55 35.4312C157.435 35.0292 158.395 34.8282 159.431 34.8282C160.467 34.8282 161.428 35.0292 162.312 35.4312C163.205 35.8243 163.974 36.4317 164.617 37.2536C165.269 38.0755 165.778 39.1117 166.145 40.3624C166.511 41.6131 166.694 43.0915 166.694 44.7978ZM162.406 44.7978C162.406 43.4489 162.321 42.3456 162.151 41.488C161.982 40.6215 161.754 39.9425 161.468 39.4512C161.191 38.9599 160.874 38.6249 160.517 38.4462C160.159 38.2586 159.797 38.1648 159.431 38.1648C159.065 38.1648 158.703 38.2586 158.346 38.4462C157.997 38.6249 157.685 38.9599 157.408 39.4512C157.14 39.9425 156.921 40.6215 156.751 41.488C156.59 42.3456 156.51 43.4489 156.51 44.7978C156.51 46.1557 156.59 47.2634 156.751 48.121C156.921 48.9786 157.14 49.6575 157.408 50.1578C157.685 50.6491 157.997 50.9886 158.346 51.1762C158.703 51.3549 159.065 51.4442 159.431 51.4442C159.797 51.4442 160.159 51.3549 160.517 51.1762C160.874 50.9886 161.191 50.6491 161.468 50.1578C161.754 49.6575 161.982 48.9786 162.151 48.121C162.321 47.2634 162.406 46.1557 162.406 44.7978ZM168.947 40.617C169.09 39.6433 169.363 38.7946 169.765 38.071C170.176 37.3474 170.68 36.7444 171.279 36.262C171.886 35.7796 172.579 35.4223 173.356 35.19C174.133 34.9488 174.968 34.8282 175.862 34.8282C176.826 34.8282 177.684 34.9667 178.434 35.2436C179.185 35.5116 179.819 35.8779 180.337 36.3424C180.855 36.8069 181.248 37.3474 181.516 37.9638C181.784 38.5713 181.918 39.2145 181.918 39.8934C181.918 40.5098 181.856 41.0547 181.731 41.5282C181.606 41.9927 181.418 42.3992 181.168 42.7476C180.927 43.0871 180.623 43.3774 180.257 43.6186C179.899 43.8509 179.489 44.0474 179.024 44.2082C181.186 44.9675 182.267 46.4415 182.267 48.6302C182.267 49.6665 182.079 50.5687 181.704 51.337C181.329 52.1053 180.824 52.744 180.19 53.2532C179.564 53.7624 178.836 54.1465 178.006 54.4056C177.175 54.6557 176.308 54.7808 175.406 54.7808C174.477 54.7808 173.651 54.6825 172.927 54.486C172.203 54.2805 171.56 53.9679 170.997 53.548C170.435 53.1192 169.939 52.5743 169.51 51.9132C169.09 51.2521 168.724 50.466 168.411 49.5548L170.26 48.8044C170.743 48.6168 171.189 48.5677 171.6 48.657C172.011 48.7463 172.306 48.9518 172.485 49.2734C172.887 50.0149 173.311 50.5553 173.758 50.8948C174.213 51.2253 174.745 51.3906 175.352 51.3906C175.817 51.3906 176.219 51.3147 176.558 51.1628C176.907 51.002 177.193 50.801 177.416 50.5598C177.648 50.3097 177.822 50.0283 177.939 49.7156C178.055 49.4029 178.113 49.0858 178.113 48.7642C178.113 48.3443 178.082 47.9691 178.019 47.6386C177.965 47.2991 177.805 47.0088 177.537 46.7676C177.269 46.5264 176.862 46.3433 176.317 46.2182C175.781 46.0842 175.031 46.0172 174.066 46.0172V43.1496C174.879 43.1496 175.536 43.0871 176.036 42.962C176.536 42.8369 176.92 42.6672 177.188 42.4528C177.465 42.2295 177.648 41.9615 177.738 41.6488C177.827 41.3361 177.872 40.9922 177.872 40.617C177.872 39.8487 177.684 39.2591 177.309 38.8482C176.943 38.4283 176.38 38.2184 175.62 38.2184C175.004 38.2184 174.481 38.3837 174.053 38.7142C173.633 39.0358 173.342 39.4378 173.182 39.9202C172.994 40.4115 172.748 40.7376 172.445 40.8984C172.141 41.0592 171.708 41.0949 171.145 41.0056L168.947 40.617Z" fill="#FF4C2C"/>
<path d="M68.7941 88.1026L66.9851 82.756C66.8511 82.4165 66.7082 82.019 66.5563 81.5634C66.4045 81.0989 66.2526 80.5986 66.1007 80.0626C65.9667 80.6075 65.8238 81.1123 65.6719 81.5768C65.5201 82.0413 65.3771 82.4433 65.2431 82.7828L63.4475 88.1026H68.7941ZM75.9899 95.5664H72.4791C72.0861 95.5664 71.7689 95.4771 71.5277 95.2984C71.2865 95.1108 71.1034 94.8741 70.9783 94.5882L69.8259 91.1846H62.4023L61.2499 94.5882C61.1517 94.8383 60.973 95.0661 60.7139 95.2716C60.4638 95.4681 60.1511 95.5664 59.7759 95.5664H56.2383L63.7959 76.0426H68.4323L75.9899 95.5664ZM84.9529 85.6236C86.1321 85.6236 86.9807 85.3422 87.4989 84.7794C88.017 84.2166 88.2761 83.4305 88.2761 82.421C88.2761 81.9743 88.2091 81.5679 88.0751 81.2016C87.9411 80.8353 87.7356 80.5227 87.4587 80.2636C87.1907 79.9956 86.8467 79.7901 86.4269 79.6472C86.0159 79.5043 85.5246 79.4328 84.9529 79.4328H82.5945V85.6236H84.9529ZM84.9529 76.0426C86.3286 76.0426 87.5078 76.2079 88.4905 76.5384C89.4821 76.86 90.295 77.3067 90.9293 77.8784C91.5725 78.4501 92.0459 79.1246 92.3497 79.9018C92.6534 80.679 92.8053 81.5187 92.8053 82.421C92.8053 83.3947 92.6489 84.2881 92.3363 85.101C92.0236 85.9139 91.5457 86.6107 90.9025 87.1914C90.2593 87.7721 89.4419 88.2277 88.4503 88.5582C87.4676 88.8798 86.3018 89.0406 84.9529 89.0406H82.5945V95.5664H78.0653V76.0426H84.9529ZM102.527 85.6236C103.706 85.6236 104.555 85.3422 105.073 84.7794C105.591 84.2166 105.85 83.4305 105.85 82.421C105.85 81.9743 105.783 81.5679 105.649 81.2016C105.515 80.8353 105.309 80.5227 105.033 80.2636C104.765 79.9956 104.421 79.7901 104.001 79.6472C103.59 79.5043 103.098 79.4328 102.527 79.4328H100.168V85.6236H102.527ZM102.527 76.0426C103.902 76.0426 105.082 76.2079 106.064 76.5384C107.056 76.86 107.869 77.3067 108.503 77.8784C109.146 78.4501 109.62 79.1246 109.924 79.9018C110.227 80.679 110.379 81.5187 110.379 82.421C110.379 83.3947 110.223 84.2881 109.91 85.101C109.597 85.9139 109.12 86.6107 108.476 87.1914C107.833 87.7721 107.016 88.2277 106.024 88.5582C105.041 88.8798 103.876 89.0406 102.527 89.0406H100.168V95.5664H95.6391V76.0426H102.527ZM124.978 91.9484V95.5664H113.213V76.0426H117.742V91.9484H124.978ZM134.618 88.1428V95.5664H130.089V88.1428L123.013 76.0426H127.007C127.4 76.0426 127.708 76.1364 127.931 76.324C128.164 76.5027 128.356 76.7349 128.507 77.0208L131.268 82.7024C131.5 83.1491 131.71 83.5689 131.898 83.962C132.085 84.3461 132.251 84.7258 132.393 85.101C132.527 84.7169 132.679 84.3327 132.849 83.9486C133.028 83.5555 133.233 83.1401 133.465 82.7024L136.199 77.0208C136.262 76.9047 136.338 76.7885 136.427 76.6724C136.516 76.5563 136.619 76.4535 136.735 76.3642C136.86 76.2659 136.999 76.19 137.15 76.1364C137.311 76.0739 137.485 76.0426 137.673 76.0426H141.693L134.618 88.1428ZM166.387 76.0426V95.5664H161.831V87.312H153.898V95.5664H149.342V76.0426H153.898V84.2032H161.831V76.0426H166.387ZM181.029 88.1026L179.22 82.756C179.086 82.4165 178.943 82.019 178.791 81.5634C178.639 81.0989 178.487 80.5986 178.335 80.0626C178.201 80.6075 178.058 81.1123 177.906 81.5768C177.754 82.0413 177.612 82.4433 177.478 82.7828L175.682 88.1026H181.029ZM188.224 95.5664H184.714C184.32 95.5664 184.003 95.4771 183.762 95.2984C183.521 95.1108 183.338 94.8741 183.213 94.5882L182.06 91.1846H174.637L173.484 94.5882C173.386 94.8383 173.207 95.0661 172.948 95.2716C172.698 95.4681 172.386 95.5664 172.01 95.5664H168.473L176.03 76.0426H180.667L188.224 95.5664ZM201.087 80.009C200.953 80.2234 200.81 80.3842 200.658 80.4914C200.515 80.5986 200.327 80.6522 200.095 80.6522C199.89 80.6522 199.666 80.5897 199.425 80.4646C199.193 80.3306 198.925 80.1832 198.621 80.0224C198.326 79.8616 197.987 79.7187 197.603 79.5936C197.219 79.4596 196.781 79.3926 196.289 79.3926C195.441 79.3926 194.807 79.5757 194.387 79.942C193.976 80.2993 193.77 80.7862 193.77 81.4026C193.77 81.7957 193.895 82.1217 194.145 82.3808C194.396 82.6399 194.722 82.8632 195.124 83.0508C195.535 83.2384 195.999 83.4126 196.517 83.5734C197.044 83.7253 197.58 83.8995 198.125 84.096C198.67 84.2836 199.202 84.5069 199.72 84.766C200.247 85.0251 200.711 85.3556 201.113 85.7576C201.524 86.1596 201.855 86.6509 202.105 87.2316C202.355 87.8033 202.48 88.4957 202.48 89.3086C202.48 90.2109 202.324 91.0551 202.011 91.8412C201.699 92.6273 201.243 93.3152 200.644 93.9048C200.055 94.4855 199.322 94.9455 198.447 95.285C197.58 95.6155 196.593 95.7808 195.485 95.7808C194.878 95.7808 194.257 95.7183 193.623 95.5932C192.998 95.4681 192.39 95.2939 191.8 95.0706C191.211 94.8383 190.657 94.5659 190.139 94.2532C189.621 93.9405 189.17 93.5921 188.785 93.208L190.125 91.0908C190.233 90.9389 190.371 90.8139 190.541 90.7156C190.72 90.6084 190.912 90.5548 191.117 90.5548C191.385 90.5548 191.653 90.6397 191.921 90.8094C192.198 90.9791 192.506 91.1667 192.846 91.3722C193.194 91.5777 193.592 91.7653 194.038 91.935C194.485 92.1047 195.012 92.1896 195.619 92.1896C196.441 92.1896 197.08 92.0109 197.536 91.6536C197.991 91.2873 198.219 90.7111 198.219 89.925C198.219 89.4694 198.094 89.0987 197.844 88.8128C197.594 88.5269 197.263 88.2902 196.852 88.1026C196.45 87.915 195.99 87.7497 195.472 87.6068C194.954 87.4639 194.422 87.3075 193.877 87.1378C193.333 86.9591 192.801 86.7447 192.283 86.4946C191.765 86.2355 191.3 85.9005 190.889 85.4896C190.487 85.0697 190.161 84.5516 189.911 83.9352C189.661 83.3099 189.536 82.5416 189.536 81.6304C189.536 80.8979 189.683 80.1832 189.978 79.4864C190.273 78.7896 190.706 78.1687 191.278 77.6238C191.85 77.0789 192.551 76.6456 193.382 76.324C194.212 75.9935 195.164 75.8282 196.236 75.8282C196.834 75.8282 197.415 75.8773 197.978 75.9756C198.55 76.0649 199.09 76.2034 199.599 76.391C200.108 76.5697 200.582 76.7885 201.02 77.0476C201.466 77.2977 201.864 77.5836 202.212 77.9052L201.087 80.009ZM222.72 76.0426V95.5664H218.164V87.312H210.231V95.5664H205.675V76.0426H210.231V84.2032H218.164V76.0426H222.72ZM241.074 79.6338H235.58V95.5664H231.051V79.6338H225.557V76.0426H241.074V79.6338ZM252.319 88.1026L250.51 82.756C250.376 82.4165 250.233 82.019 250.081 81.5634C249.929 81.0989 249.777 80.5986 249.625 80.0626C249.491 80.6075 249.348 81.1123 249.196 81.5768C249.045 82.0413 248.902 82.4433 248.768 82.7828L246.972 88.1026H252.319ZM259.514 95.5664H256.004C255.611 95.5664 255.293 95.4771 255.052 95.2984C254.811 95.1108 254.628 94.8741 254.503 94.5882L253.35 91.1846H245.927L244.774 94.5882C244.676 94.8383 244.498 95.0661 244.238 95.2716C243.988 95.4681 243.676 95.5664 243.3 95.5664H239.763L247.32 76.0426H251.957L259.514 95.5664ZM270.315 85.4494H277.257V93.6904C276.256 94.4229 275.189 94.9545 274.054 95.285C272.928 95.6155 271.749 95.7808 270.516 95.7808C268.908 95.7808 267.443 95.5307 266.121 95.0304C264.808 94.5212 263.682 93.8244 262.744 92.94C261.806 92.0467 261.083 90.9925 260.574 89.7776C260.064 88.5537 259.81 87.2271 259.81 85.7978C259.81 84.3417 260.051 83.0061 260.533 81.7912C261.016 80.5673 261.704 79.5132 262.597 78.6288C263.499 77.7444 264.585 77.0565 265.853 76.5652C267.131 76.0739 268.556 75.8282 270.128 75.8282C270.941 75.8282 271.705 75.8952 272.419 76.0292C273.134 76.1632 273.791 76.3463 274.389 76.5786C274.997 76.8109 275.55 77.0878 276.051 77.4094C276.551 77.731 276.998 78.0794 277.391 78.4546L276.077 80.4512C275.872 80.7639 275.604 80.9559 275.273 81.0274C274.952 81.0989 274.603 81.0185 274.228 80.7862C273.871 80.5718 273.531 80.3887 273.21 80.2368C272.897 80.076 272.576 79.9465 272.245 79.8482C271.915 79.7499 271.566 79.6785 271.2 79.6338C270.834 79.5891 270.423 79.5668 269.967 79.5668C269.118 79.5668 268.355 79.7187 267.676 80.0224C266.997 80.3172 266.416 80.7371 265.934 81.282C265.46 81.8269 265.094 82.4835 264.835 83.2518C264.576 84.0111 264.446 84.8598 264.446 85.7978C264.446 86.8341 264.589 87.7542 264.875 88.5582C265.161 89.3622 265.563 90.0411 266.081 90.595C266.608 91.1489 267.233 91.5732 267.957 91.868C268.69 92.1539 269.498 92.2968 270.382 92.2968C270.927 92.2968 271.419 92.2432 271.856 92.136C272.303 92.0288 272.736 91.8859 273.156 91.7072V88.7458H271.227C270.941 88.7458 270.717 88.6699 270.557 88.518C270.396 88.3661 270.315 88.1741 270.315 87.9418V85.4494Z" fill="#FF4C2C"/>
<rect width="335" height="154.864" transform="translate(0 132.566)" fill="white"/>
<path fill-rule="evenodd" clip-rule="evenodd" d="M222.806 223.783C223.026 223.288 223.517 222.969 224.058 222.969C225.512 222.969 226.906 223.546 227.935 224.574C228.963 225.602 229.54 226.997 229.54 228.451V232.562H235.92C236.513 232.557 237.1 232.679 237.641 232.922C238.185 233.166 238.669 233.526 239.06 233.975C239.451 234.425 239.74 234.955 239.906 235.527C240.072 236.099 240.112 236.701 240.022 237.29L238.131 249.624C238.131 249.625 238.131 249.624 238.131 249.624C237.982 250.604 237.484 251.499 236.729 252.141C235.976 252.781 235.017 253.128 234.028 253.119H214.465C213.375 253.119 212.329 252.686 211.558 251.915C210.787 251.144 210.354 250.098 210.354 249.008V239.414C210.354 238.324 210.787 237.278 211.558 236.507C212.329 235.736 213.375 235.303 214.465 235.303H217.686L222.806 223.783ZM219.947 236.964L224.891 225.839C225.304 225.971 225.684 226.2 225.996 226.513C226.51 227.027 226.799 227.724 226.799 228.451V233.933C226.799 234.689 227.413 235.303 228.17 235.303H235.927L235.942 235.303C236.141 235.301 236.337 235.342 236.519 235.423C236.7 235.504 236.861 235.624 236.992 235.774C237.122 235.924 237.218 236.1 237.274 236.291C237.329 236.482 237.342 236.682 237.313 236.878C237.313 236.879 237.313 236.878 237.313 236.878L235.421 249.213C235.372 249.54 235.206 249.838 234.954 250.052C234.702 250.266 234.381 250.382 234.051 250.378L219.947 250.378V236.964ZM217.206 250.378V238.044H214.465C214.101 238.044 213.753 238.188 213.496 238.445C213.239 238.702 213.094 239.051 213.094 239.414V249.008C213.094 249.371 213.239 249.72 213.496 249.977C213.753 250.234 214.101 250.378 214.465 250.378H217.206Z" fill="#FF4C2C"/>
<path fill-rule="evenodd" clip-rule="evenodd" d="M207.728 185.412C207.948 184.917 208.439 184.598 208.98 184.598C210.434 184.598 211.828 185.175 212.856 186.203C213.884 187.231 214.462 188.626 214.462 190.08V194.191H220.841C221.434 194.185 222.022 194.308 222.563 194.551C223.107 194.795 223.591 195.155 223.982 195.604C224.373 196.054 224.662 196.584 224.828 197.156C224.994 197.728 225.034 198.33 224.944 198.919L223.053 211.253C223.053 211.254 223.053 211.253 223.053 211.253C222.904 212.233 222.406 213.128 221.651 213.769C220.898 214.41 219.939 214.757 218.95 214.748H199.387C198.296 214.748 197.251 214.315 196.48 213.544C195.709 212.773 195.275 211.727 195.275 210.637V201.043C195.275 199.953 195.709 198.907 196.48 198.136C197.251 197.365 198.296 196.932 199.387 196.932H202.608L207.728 185.412ZM204.869 198.593L209.813 187.468C210.226 187.6 210.606 187.829 210.918 188.141C211.432 188.655 211.721 189.353 211.721 190.08V195.561C211.721 196.318 212.335 196.932 213.092 196.932H220.848L220.864 196.932C221.063 196.93 221.259 196.971 221.441 197.052C221.622 197.133 221.783 197.253 221.914 197.403C222.044 197.553 222.14 197.729 222.196 197.92C222.251 198.111 222.264 198.311 222.235 198.507C222.234 198.508 222.235 198.507 222.235 198.507L220.343 210.842C220.294 211.169 220.128 211.467 219.876 211.681C219.624 211.895 219.303 212.011 218.973 212.007L204.869 212.007V198.593ZM202.128 212.007V199.673H199.387C199.023 199.673 198.675 199.817 198.418 200.074C198.161 200.331 198.016 200.68 198.016 201.043V210.637C198.016 211 198.161 211.349 198.418 211.606C198.675 211.863 199.023 212.007 199.387 212.007H202.128Z" fill="#FF4C2C"/>
<path fill-rule="evenodd" clip-rule="evenodd" d="M247.476 149.779C247.696 149.284 248.187 148.965 248.728 148.965C250.182 148.965 251.576 149.542 252.604 150.57C253.633 151.599 254.21 152.993 254.21 154.447V158.558H260.589C261.183 158.553 261.77 158.676 262.311 158.918C262.855 159.162 263.339 159.522 263.73 159.972C264.121 160.421 264.41 160.951 264.576 161.523C264.742 162.095 264.782 162.697 264.692 163.286L262.801 175.62C262.801 175.621 262.801 175.62 262.801 175.62C262.652 176.6 262.154 177.495 261.399 178.137C260.646 178.777 259.687 179.124 258.698 179.115H239.135C238.044 179.115 236.999 178.682 236.228 177.911C235.457 177.14 235.023 176.094 235.023 175.004V165.411C235.023 164.32 235.457 163.274 236.228 162.503C236.999 161.732 238.044 161.299 239.135 161.299H242.356L247.476 149.779ZM244.617 162.96L249.561 151.835C249.974 151.967 250.354 152.196 250.666 152.509C251.18 153.023 251.469 153.72 251.469 154.447V159.929C251.469 160.686 252.083 161.299 252.84 161.299H260.596L260.612 161.299C260.811 161.297 261.007 161.338 261.189 161.419C261.37 161.5 261.531 161.62 261.662 161.77C261.792 161.92 261.888 162.097 261.944 162.287C261.999 162.478 262.012 162.678 261.983 162.875C261.983 162.875 261.983 162.874 261.983 162.875L260.091 175.209C260.042 175.536 259.876 175.834 259.624 176.048C259.372 176.262 259.051 176.378 258.721 176.374L244.617 176.374V162.96ZM241.876 176.374V164.04H239.135C238.771 164.04 238.423 164.184 238.166 164.441C237.909 164.698 237.764 165.047 237.764 165.411V175.004C237.764 175.367 237.909 175.716 238.166 175.973C238.423 176.23 238.771 176.374 239.135 176.374H241.876Z" fill="#FF4C2C"/>
<path fill-rule="evenodd" clip-rule="evenodd" d="M269.402 185.412C269.622 184.917 270.112 184.598 270.654 184.598C272.108 184.598 273.502 185.175 274.53 186.203C275.558 187.231 276.136 188.626 276.136 190.08V194.191H282.515C283.108 194.185 283.696 194.308 284.237 194.551C284.781 194.795 285.265 195.155 285.656 195.604C286.047 196.054 286.336 196.584 286.502 197.156C286.668 197.728 286.708 198.33 286.618 198.919L284.727 211.253C284.727 211.254 284.727 211.253 284.727 211.253C284.578 212.233 284.08 213.128 283.325 213.769C282.571 214.41 281.612 214.757 280.624 214.748H261.061C259.97 214.748 258.924 214.315 258.153 213.544C257.382 212.773 256.949 211.727 256.949 210.637V201.043C256.949 199.953 257.382 198.907 258.153 198.136C258.924 197.365 259.97 196.932 261.061 196.932H264.281L269.402 185.412ZM266.543 198.593L271.487 187.468C271.9 187.6 272.28 187.829 272.592 188.141C273.106 188.655 273.395 189.353 273.395 190.08V195.561C273.395 196.318 274.008 196.932 274.765 196.932H282.522L282.538 196.932C282.736 196.93 282.933 196.971 283.114 197.052C283.296 197.133 283.457 197.253 283.587 197.403C283.718 197.553 283.814 197.729 283.869 197.92C283.925 198.111 283.938 198.311 283.908 198.507C283.908 198.508 283.908 198.507 283.908 198.507L282.017 210.842C281.967 211.169 281.801 211.467 281.55 211.681C281.298 211.895 280.977 212.011 280.646 212.007L266.543 212.007V198.593ZM263.802 212.007V199.673H261.061C260.697 199.673 260.349 199.817 260.092 200.074C259.835 200.331 259.69 200.68 259.69 201.043V210.637C259.69 211 259.835 211.349 260.092 211.606C260.349 211.863 260.697 212.007 261.061 212.007H263.802Z" fill="#FF4C2C"/>
<path fill-rule="evenodd" clip-rule="evenodd" d="M268.031 240.228C268.25 239.733 268.741 239.414 269.283 239.414C270.737 239.414 272.131 239.992 273.159 241.02C274.187 242.048 274.765 243.442 274.765 244.896V249.007H281.144C281.737 249.002 282.325 249.125 282.866 249.368C283.409 249.612 283.894 249.971 284.285 250.421C284.676 250.871 284.964 251.4 285.131 251.972C285.297 252.545 285.337 253.146 285.247 253.736L283.356 266.07C283.356 266.07 283.356 266.069 283.356 266.07C283.207 267.05 282.709 267.944 281.954 268.586C281.2 269.226 280.241 269.574 279.253 269.564H259.69C258.599 269.564 257.553 269.131 256.782 268.36C256.011 267.589 255.578 266.543 255.578 265.453V255.86C255.578 254.769 256.011 253.724 256.782 252.953C257.553 252.181 258.599 251.748 259.69 251.748H262.91L268.031 240.228ZM265.171 253.41L270.116 242.285C270.529 242.416 270.909 242.646 271.221 242.958C271.735 243.472 272.024 244.169 272.024 244.896V250.378C272.024 251.135 272.637 251.748 273.394 251.748H281.151L281.167 251.748C281.365 251.746 281.562 251.787 281.743 251.868C281.925 251.95 282.086 252.069 282.216 252.219C282.347 252.369 282.443 252.546 282.498 252.737C282.554 252.927 282.567 253.127 282.537 253.324C282.537 253.324 282.537 253.324 282.537 253.324L280.646 265.659C280.596 265.986 280.43 266.283 280.178 266.497C279.927 266.712 279.606 266.827 279.275 266.824L265.171 266.824V253.41ZM262.43 266.824V254.489H259.69C259.326 254.489 258.977 254.634 258.72 254.891C258.463 255.148 258.319 255.496 258.319 255.86V265.453C258.319 265.817 258.463 266.165 258.72 266.422C258.977 266.679 259.326 266.824 259.69 266.824H262.43Z" fill="#FF4C2C"/>
<rect x="45.854" y="192.663" width="79.5766" height="35.4953" rx="7.19499" fill="#FDFCFB"/>
<rect x="45.854" y="192.663" width="79.5766" height="35.4953" rx="7.19499" stroke="#FF4C2C" stroke-width="2.87799"/>
<path d="M70.6271 213.422C70.6987 213.422 70.7614 213.452 70.8151 213.51L71.3322 214.067C70.9382 214.524 70.4592 214.88 69.8951 215.135C69.3355 215.39 68.6573 215.518 67.8604 215.518C67.1709 215.518 66.5442 215.399 65.9801 215.162C65.416 214.92 64.9347 214.584 64.5363 214.154C64.1379 213.72 63.829 213.201 63.6096 212.596C63.3902 211.992 63.2805 211.327 63.2805 210.602C63.2805 209.877 63.3947 209.212 63.623 208.608C63.8513 208.003 64.1714 207.484 64.5833 207.05C64.9997 206.615 65.4966 206.28 66.0741 206.042C66.6516 205.801 67.2896 205.68 67.988 205.68C68.6729 205.68 69.2773 205.789 69.8011 206.009C70.3249 206.228 70.786 206.526 71.1845 206.902L70.7547 207.5C70.7278 207.544 70.692 207.582 70.6472 207.614C70.6069 207.641 70.551 207.654 70.4794 207.654C70.3988 207.654 70.3003 207.611 70.1839 207.526C70.0675 207.437 69.9153 207.338 69.7272 207.231C69.5392 207.123 69.3042 207.027 69.0221 206.942C68.7401 206.853 68.3931 206.808 67.9813 206.808C67.4843 206.808 67.0299 206.895 66.618 207.07C66.2062 207.24 65.8503 207.488 65.5503 207.815C65.2548 208.142 65.0243 208.54 64.8586 209.01C64.693 209.481 64.6102 210.011 64.6102 210.602C64.6102 211.202 64.6952 211.737 64.8653 212.207C65.0399 212.677 65.275 213.075 65.5705 213.402C65.8704 213.725 66.2218 213.971 66.6248 214.141C67.0322 214.311 67.4709 214.396 67.941 214.396C68.2275 214.396 68.4849 214.38 68.7132 214.349C68.946 214.313 69.1587 214.26 69.3512 214.188C69.5482 214.116 69.7295 214.027 69.8951 213.919C70.0652 213.807 70.2331 213.675 70.3988 213.523C70.4749 213.456 70.551 213.422 70.6271 213.422ZM75.3641 208.5C75.8611 208.5 76.3087 208.583 76.7072 208.749C77.1056 208.914 77.4459 209.149 77.7279 209.454C78.01 209.758 78.2248 210.127 78.3726 210.562C78.5248 210.991 78.6009 211.473 78.6009 212.005C78.6009 212.543 78.5248 213.026 78.3726 213.456C78.2248 213.886 78.01 214.253 77.7279 214.557C77.4459 214.862 77.1056 215.097 76.7072 215.262C76.3087 215.424 75.8611 215.504 75.3641 215.504C74.8627 215.504 74.4105 215.424 74.0076 215.262C73.6092 215.097 73.2689 214.862 72.9869 214.557C72.7049 214.253 72.4877 213.886 72.3355 213.456C72.1878 213.026 72.1139 212.543 72.1139 212.005C72.1139 211.473 72.1878 210.991 72.3355 210.562C72.4877 210.127 72.7049 209.758 72.9869 209.454C73.2689 209.149 73.6092 208.914 74.0076 208.749C74.4105 208.583 74.8627 208.5 75.3641 208.5ZM75.3641 214.571C76.0357 214.571 76.5371 214.347 76.8684 213.899C77.1996 213.447 77.3653 212.818 77.3653 212.012C77.3653 211.202 77.1996 210.571 76.8684 210.118C76.5371 209.666 76.0357 209.44 75.3641 209.44C75.0239 209.44 74.7262 209.498 74.471 209.615C74.2203 209.731 74.0099 209.899 73.8397 210.118C73.6741 210.338 73.5487 210.609 73.4637 210.931C73.3831 211.249 73.3428 211.609 73.3428 212.012C73.3428 212.818 73.5085 213.447 73.8397 213.899C74.1755 214.347 74.6836 214.571 75.3641 214.571ZM81.3862 213.772C81.6056 214.067 81.8451 214.275 82.1047 214.396C82.3644 214.517 82.6554 214.577 82.9777 214.577C83.6134 214.577 84.1014 214.351 84.4417 213.899C84.7819 213.447 84.952 212.802 84.952 211.965C84.952 211.522 84.9117 211.141 84.8311 210.824C84.755 210.506 84.6431 210.246 84.4954 210.045C84.3476 209.839 84.1663 209.689 83.9514 209.595C83.7365 209.501 83.4926 209.454 83.2195 209.454C82.83 209.454 82.4875 209.543 82.192 209.722C81.901 209.901 81.6324 210.154 81.3862 210.481V213.772ZM81.3258 209.662C81.6123 209.308 81.9436 209.024 82.3196 208.809C82.6957 208.594 83.1255 208.487 83.609 208.487C84.0029 208.487 84.3588 208.563 84.6767 208.715C84.9946 208.863 85.2654 209.084 85.4892 209.38C85.7131 209.671 85.8855 210.033 86.0063 210.468C86.1272 210.902 86.1876 211.401 86.1876 211.965C86.1876 212.467 86.1205 212.934 85.9862 213.369C85.8519 213.798 85.6571 214.172 85.4019 214.49C85.1512 214.804 84.8423 215.052 84.4752 215.236C84.1126 215.415 83.703 215.504 83.2463 215.504C82.83 215.504 82.4718 215.435 82.1719 215.296C81.8764 215.153 81.6145 214.956 81.3862 214.705V217.714H80.1841V208.608H80.9027C81.0728 208.608 81.178 208.69 81.2183 208.856L81.3258 209.662ZM89.0423 208.608V215.41H87.847V208.608H89.0423ZM89.2975 206.472C89.2975 206.588 89.2728 206.698 89.2236 206.801C89.1788 206.9 89.1161 206.989 89.0356 207.07C88.9595 207.146 88.8677 207.206 88.7602 207.251C88.6573 207.296 88.5476 207.318 88.4312 207.318C88.3148 207.318 88.2051 207.296 88.1021 207.251C88.0036 207.206 87.9163 207.146 87.8402 207.07C87.7641 206.989 87.7037 206.9 87.6589 206.801C87.6142 206.698 87.5918 206.588 87.5918 206.472C87.5918 206.356 87.6142 206.246 87.6589 206.143C87.7037 206.036 87.7641 205.944 87.8402 205.868C87.9163 205.787 88.0036 205.724 88.1021 205.68C88.2051 205.635 88.3148 205.613 88.4312 205.613C88.5476 205.613 88.6573 205.635 88.7602 205.68C88.8677 205.724 88.9595 205.787 89.0356 205.868C89.1161 205.944 89.1788 206.036 89.2236 206.143C89.2728 206.246 89.2975 206.356 89.2975 206.472ZM95.6264 211.267C95.6264 210.989 95.5861 210.736 95.5056 210.508C95.4295 210.275 95.3153 210.076 95.1631 209.91C95.0153 209.74 94.834 209.61 94.6191 209.521C94.4043 209.427 94.1603 209.38 93.8872 209.38C93.3141 209.38 92.8597 209.548 92.524 209.883C92.1927 210.215 91.9867 210.676 91.9062 211.267H95.6264ZM96.5934 214.457C96.4457 214.636 96.2689 214.792 96.0629 214.927C95.857 215.056 95.6354 215.164 95.3981 215.249C95.1653 215.334 94.9236 215.397 94.6729 215.437C94.4222 215.482 94.1737 215.504 93.9275 215.504C93.4574 215.504 93.0231 215.426 92.6247 215.269C92.2307 215.108 91.8882 214.875 91.5972 214.571C91.3107 214.262 91.0869 213.881 90.9257 213.429C90.7645 212.977 90.684 212.458 90.684 211.871C90.684 211.397 90.7556 210.953 90.8989 210.542C91.0466 210.13 91.257 209.774 91.5301 209.474C91.8032 209.169 92.1367 208.932 92.5307 208.762C92.9246 208.587 93.3679 208.5 93.8603 208.5C94.2677 208.5 94.6438 208.569 94.9885 208.708C95.3377 208.843 95.6376 209.04 95.8883 209.299C96.1435 209.554 96.3427 209.872 96.486 210.253C96.6293 210.629 96.7009 211.059 96.7009 211.542C96.7009 211.73 96.6807 211.856 96.6405 211.918C96.6002 211.981 96.5241 212.012 96.4121 212.012H91.8659C91.8793 212.442 91.9375 212.816 92.0405 213.134C92.1479 213.452 92.2956 213.718 92.4837 213.933C92.6717 214.143 92.8955 214.302 93.1552 214.41C93.4149 214.513 93.7059 214.564 94.0282 214.564C94.3281 214.564 94.5856 214.53 94.8005 214.463C95.0198 214.392 95.2079 214.316 95.3645 214.235C95.5212 214.154 95.6511 214.081 95.754 214.013C95.8615 213.942 95.9533 213.906 96.0294 213.906C96.1279 213.906 96.204 213.944 96.2577 214.02L96.5934 214.457ZM102.668 210.226C102.445 209.926 102.203 209.718 101.943 209.601C101.683 209.481 101.392 209.42 101.07 209.42C100.439 209.42 99.9532 209.646 99.6129 210.098C99.2727 210.551 99.1026 211.195 99.1026 212.032C99.1026 212.476 99.1406 212.856 99.2167 213.174C99.2928 213.487 99.4048 213.747 99.5525 213.953C99.7002 214.154 99.8815 214.302 100.096 214.396C100.311 214.49 100.555 214.537 100.828 214.537C101.222 214.537 101.565 214.448 101.856 214.269C102.151 214.089 102.422 213.837 102.668 213.51V210.226ZM103.864 205.518V215.41H103.152C102.982 215.41 102.874 215.327 102.83 215.162L102.722 214.336C102.431 214.685 102.1 214.967 101.728 215.182C101.357 215.397 100.927 215.504 100.439 215.504C100.049 215.504 99.6958 215.43 99.3779 215.283C99.06 215.13 98.7892 214.909 98.5653 214.618C98.3415 214.327 98.1691 213.964 98.0483 213.53C97.9274 213.096 97.8669 212.596 97.8669 212.032C97.8669 211.531 97.9341 211.065 98.0684 210.636C98.2027 210.201 98.3952 209.825 98.6459 209.507C98.8966 209.19 99.2033 208.941 99.5659 208.762C99.933 208.578 100.345 208.487 100.802 208.487C101.218 208.487 101.574 208.558 101.869 208.702C102.169 208.84 102.436 209.035 102.668 209.286V205.518H103.864ZM107.256 205.787V209.628C107.256 209.83 107.251 210.027 107.242 210.219C107.234 210.412 107.222 210.606 107.209 210.803C107.195 210.996 107.178 211.195 107.155 211.401C107.137 211.603 107.115 211.82 107.088 212.052H106.282C106.255 211.82 106.231 211.603 106.208 211.401C106.19 211.195 106.175 210.996 106.161 210.803C106.148 210.606 106.137 210.412 106.128 210.219C106.119 210.027 106.114 209.83 106.114 209.628V205.787H107.256ZM105.826 214.671C105.826 214.555 105.846 214.445 105.886 214.342C105.931 214.239 105.991 214.15 106.067 214.074C106.143 213.998 106.231 213.937 106.329 213.892C106.432 213.848 106.544 213.825 106.665 213.825C106.781 213.825 106.889 213.848 106.987 213.892C107.09 213.937 107.18 213.998 107.256 214.074C107.332 214.15 107.392 214.239 107.437 214.342C107.482 214.445 107.504 214.555 107.504 214.671C107.504 214.792 107.482 214.904 107.437 215.007C107.392 215.106 107.332 215.193 107.256 215.269C107.18 215.345 107.09 215.403 106.987 215.444C106.889 215.489 106.781 215.511 106.665 215.511C106.544 215.511 106.432 215.489 106.329 215.444C106.231 215.403 106.143 215.345 106.067 215.269C105.991 215.193 105.931 215.106 105.886 215.007C105.846 214.904 105.826 214.792 105.826 214.671Z" fill="#FF4C2C"/>
<path fill-rule="evenodd" clip-rule="evenodd" d="M146.781 209.317C146.781 208.749 147.241 208.289 147.809 208.289H170.422C170.99 208.289 171.45 208.749 171.45 209.317C171.45 209.885 170.99 210.345 170.422 210.345H147.809C147.241 210.345 146.781 209.885 146.781 209.317Z" fill="#FF4C2C"/>
<path fill-rule="evenodd" clip-rule="evenodd" d="M160.444 199.34C160.845 198.939 161.496 198.939 161.897 199.34L171.148 208.591C171.549 208.992 171.549 209.643 171.148 210.044L161.897 219.295C161.496 219.697 160.845 219.697 160.444 219.295C160.042 218.894 160.042 218.243 160.444 217.842L168.968 209.318L160.444 200.794C160.042 200.392 160.042 199.742 160.444 199.34Z" fill="#FF4C2C"/>
</svg>
