<svg width="335" height="312" viewBox="0 0 335 312" fill="none" xmlns="http://www.w3.org/2000/svg">
<rect width="335" height="312" rx="12" fill="white"/>
<rect width="335" height="82" transform="translate(0 24.5664)" fill="white"/>
<path d="M166.694 44.7978C166.694 46.5041 166.511 47.9825 166.145 49.2332C165.778 50.4839 165.269 51.5201 164.617 52.342C163.974 53.1639 163.205 53.7758 162.312 54.1778C161.428 54.5798 160.467 54.7808 159.431 54.7808C158.395 54.7808 157.435 54.5798 156.55 54.1778C155.675 53.7758 154.915 53.1639 154.272 52.342C153.629 51.5201 153.124 50.4839 152.758 49.2332C152.401 47.9825 152.222 46.5041 152.222 44.7978C152.222 43.0915 152.401 41.6131 152.758 40.3624C153.124 39.1117 153.629 38.0755 154.272 37.2536C154.915 36.4317 155.675 35.8243 156.55 35.4312C157.435 35.0292 158.395 34.8282 159.431 34.8282C160.467 34.8282 161.428 35.0292 162.312 35.4312C163.205 35.8243 163.974 36.4317 164.617 37.2536C165.269 38.0755 165.778 39.1117 166.145 40.3624C166.511 41.6131 166.694 43.0915 166.694 44.7978ZM162.406 44.7978C162.406 43.4489 162.321 42.3456 162.151 41.488C161.982 40.6215 161.754 39.9425 161.468 39.4512C161.191 38.9599 160.874 38.6249 160.517 38.4462C160.159 38.2586 159.797 38.1648 159.431 38.1648C159.065 38.1648 158.703 38.2586 158.346 38.4462C157.997 38.6249 157.685 38.9599 157.408 39.4512C157.14 39.9425 156.921 40.6215 156.751 41.488C156.59 42.3456 156.51 43.4489 156.51 44.7978C156.51 46.1557 156.59 47.2634 156.751 48.121C156.921 48.9786 157.14 49.6575 157.408 50.1578C157.685 50.6491 157.997 50.9886 158.346 51.1762C158.703 51.3549 159.065 51.4442 159.431 51.4442C159.797 51.4442 160.159 51.3549 160.517 51.1762C160.874 50.9886 161.191 50.6491 161.468 50.1578C161.754 49.6575 161.982 48.9786 162.151 48.121C162.321 47.2634 162.406 46.1557 162.406 44.7978ZM180.846 50.8144C181.293 50.8144 181.646 50.9395 181.905 51.1896C182.164 51.4308 182.294 51.7524 182.294 52.1544V54.5664H168.572V53.2264C168.572 52.9673 168.626 52.6904 168.733 52.3956C168.84 52.1008 169.028 51.8328 169.296 51.5916L174.924 45.9234C175.406 45.441 175.826 44.9809 176.183 44.5432C176.541 44.1055 176.835 43.6767 177.068 43.2568C177.3 42.828 177.474 42.4037 177.59 41.9838C177.706 41.555 177.764 41.1039 177.764 40.6304C177.764 39.8532 177.577 39.2591 177.202 38.8482C176.835 38.4283 176.273 38.2184 175.513 38.2184C174.897 38.2184 174.374 38.3837 173.945 38.7142C173.526 39.0358 173.235 39.4378 173.074 39.9202C172.887 40.4115 172.641 40.7376 172.337 40.8984C172.034 41.0592 171.6 41.0949 171.038 41.0056L168.84 40.617C168.983 39.6433 169.255 38.7946 169.657 38.071C170.068 37.3474 170.573 36.7444 171.172 36.262C171.779 35.7796 172.471 35.4223 173.249 35.19C174.026 34.9488 174.861 34.8282 175.754 34.8282C176.719 34.8282 177.586 34.9711 178.354 35.257C179.131 35.5339 179.792 35.9225 180.337 36.4228C180.882 36.9231 181.298 37.5216 181.583 38.2184C181.878 38.9063 182.026 39.6656 182.026 40.4964C182.026 41.2111 181.923 41.8721 181.717 42.4796C181.521 43.0871 181.248 43.6677 180.9 44.2216C180.552 44.7665 180.145 45.2981 179.681 45.8162C179.225 46.3254 178.738 46.8435 178.22 47.3706L174.401 51.2834C174.892 51.1315 175.379 51.0154 175.862 50.935C176.344 50.8546 176.791 50.8144 177.202 50.8144H180.846Z" fill="#FF4C2C"/>
<path d="M35.7962 77.0824V94.5664H31.7161V87.1744H24.6121V94.5664H20.5321V77.0824H24.6121V84.3904H31.7161V77.0824H35.7962ZM48.9084 87.8824L47.2884 83.0944C47.1684 82.7904 47.0404 82.4344 46.9044 82.0264C46.7684 81.6104 46.6324 81.1624 46.4964 80.6824C46.3764 81.1704 46.2484 81.6224 46.1124 82.0384C45.9764 82.4544 45.8484 82.8144 45.7284 83.1184L44.1204 87.8824H48.9084ZM55.3524 94.5664H52.2084C51.8564 94.5664 51.5724 94.4864 51.3564 94.3264C51.1404 94.1584 50.9764 93.9464 50.8644 93.6904L49.8324 90.6424H43.1844L42.1524 93.6904C42.0644 93.9144 41.9044 94.1184 41.6724 94.3024C41.4484 94.4784 41.1684 94.5664 40.8324 94.5664H37.6644L44.4324 77.0824H48.5844L55.3524 94.5664ZM66.8709 80.6344C66.7509 80.8264 66.6229 80.9704 66.4869 81.0664C66.3589 81.1624 66.1909 81.2104 65.9829 81.2104C65.7989 81.2104 65.5989 81.1544 65.3829 81.0424C65.1749 80.9224 64.9349 80.7904 64.6629 80.6464C64.3989 80.5024 64.0949 80.3744 63.7509 80.2624C63.4069 80.1424 63.0149 80.0824 62.5749 80.0824C61.8149 80.0824 61.2469 80.2464 60.8709 80.5744C60.5029 80.8944 60.3189 81.3304 60.3189 81.8824C60.3189 82.2344 60.4309 82.5264 60.6549 82.7584C60.8789 82.9904 61.1709 83.1904 61.5309 83.3584C61.8989 83.5264 62.3149 83.6824 62.7789 83.8264C63.2509 83.9624 63.7309 84.1184 64.2189 84.2944C64.7069 84.4624 65.1829 84.6624 65.6469 84.8944C66.1189 85.1264 66.5349 85.4224 66.8949 85.7824C67.2629 86.1424 67.5589 86.5824 67.7829 87.1024C68.0069 87.6144 68.1189 88.2344 68.1189 88.9624C68.1189 89.7704 67.9789 90.5264 67.6989 91.2304C67.4189 91.9344 67.0109 92.5504 66.4749 93.0784C65.9469 93.5984 65.2909 94.0104 64.5069 94.3144C63.7309 94.6104 62.8469 94.7584 61.8549 94.7584C61.3109 94.7584 60.7549 94.7024 60.1869 94.5904C59.6269 94.4784 59.0829 94.3224 58.5549 94.1224C58.0269 93.9144 57.5309 93.6704 57.0669 93.3904C56.6029 93.1104 56.1989 92.7984 55.8549 92.4544L57.0549 90.5584C57.1509 90.4224 57.2749 90.3104 57.4269 90.2224C57.5869 90.1264 57.7589 90.0784 57.9429 90.0784C58.1829 90.0784 58.4229 90.1544 58.6629 90.3064C58.9109 90.4584 59.1869 90.6264 59.4909 90.8104C59.8029 90.9944 60.1589 91.1624 60.5589 91.3144C60.9589 91.4664 61.4309 91.5424 61.9749 91.5424C62.7109 91.5424 63.2829 91.3824 63.6909 91.0624C64.0989 90.7344 64.3029 90.2184 64.3029 89.5144C64.3029 89.1064 64.1909 88.7744 63.9669 88.5184C63.7429 88.2624 63.4469 88.0504 63.0789 87.8824C62.7189 87.7144 62.3069 87.5664 61.8429 87.4384C61.3789 87.3104 60.9029 87.1704 60.4149 87.0184C59.9269 86.8584 59.4509 86.6664 58.9869 86.4424C58.5229 86.2104 58.1069 85.9104 57.7389 85.5424C57.3789 85.1664 57.0869 84.7024 56.8629 84.1504C56.6389 83.5904 56.5269 82.9024 56.5269 82.0864C56.5269 81.4304 56.6589 80.7904 56.9229 80.1664C57.1869 79.5424 57.5749 78.9864 58.0869 78.4984C58.5989 78.0104 59.2269 77.6224 59.9709 77.3344C60.7149 77.0384 61.5669 76.8904 62.5269 76.8904C63.0629 76.8904 63.5829 76.9344 64.0869 77.0224C64.5989 77.1024 65.0829 77.2264 65.5389 77.3944C65.9949 77.5544 66.4189 77.7504 66.8109 77.9824C67.2109 78.2064 67.5669 78.4624 67.8789 78.7504L66.8709 80.6344ZM86.244 77.0824V94.5664H82.164V87.1744H75.06V94.5664H70.98V77.0824H75.06V84.3904H82.164V77.0824H86.244ZM102.68 80.2984H97.7602V94.5664H93.7042V80.2984H88.7842V77.0824H102.68V80.2984ZM112.75 87.8824L111.13 83.0944C111.01 82.7904 110.882 82.4344 110.746 82.0264C110.61 81.6104 110.474 81.1624 110.338 80.6824C110.218 81.1704 110.09 81.6224 109.954 82.0384C109.818 82.4544 109.69 82.8144 109.57 83.1184L107.962 87.8824H112.75ZM119.194 94.5664H116.05C115.698 94.5664 115.414 94.4864 115.198 94.3264C114.982 94.1584 114.818 93.9464 114.706 93.6904L113.674 90.6424H107.026L105.994 93.6904C105.906 93.9144 105.746 94.1184 105.514 94.3024C105.29 94.4784 105.01 94.5664 104.674 94.5664H101.506L108.274 77.0824H112.426L119.194 94.5664ZM128.867 85.5064H135.083V92.8864C134.187 93.5424 133.231 94.0184 132.215 94.3144C131.207 94.6104 130.151 94.7584 129.047 94.7584C127.607 94.7584 126.295 94.5344 125.111 94.0864C123.935 93.6304 122.927 93.0064 122.087 92.2144C121.247 91.4144 120.599 90.4704 120.143 89.3824C119.687 88.2864 119.459 87.0984 119.459 85.8184C119.459 84.5144 119.675 83.3184 120.107 82.2304C120.539 81.1344 121.155 80.1904 121.955 79.3984C122.763 78.6064 123.735 77.9904 124.871 77.5504C126.015 77.1104 127.291 76.8904 128.699 76.8904C129.427 76.8904 130.111 76.9504 130.751 77.0704C131.391 77.1904 131.979 77.3544 132.515 77.5624C133.059 77.7704 133.555 78.0184 134.003 78.3064C134.451 78.5944 134.851 78.9064 135.203 79.2424L134.027 81.0304C133.843 81.3104 133.603 81.4824 133.307 81.5464C133.019 81.6104 132.707 81.5384 132.371 81.3304C132.051 81.1384 131.747 80.9744 131.459 80.8384C131.179 80.6944 130.891 80.5784 130.595 80.4904C130.299 80.4024 129.987 80.3384 129.659 80.2984C129.331 80.2584 128.963 80.2384 128.555 80.2384C127.795 80.2384 127.111 80.3744 126.503 80.6464C125.895 80.9104 125.375 81.2864 124.943 81.7744C124.519 82.2624 124.191 82.8504 123.959 83.5384C123.727 84.2184 123.611 84.9784 123.611 85.8184C123.611 86.7464 123.739 87.5704 123.995 88.2904C124.251 89.0104 124.611 89.6184 125.075 90.1144C125.547 90.6104 126.107 90.9904 126.755 91.2544C127.411 91.5104 128.135 91.6384 128.927 91.6384C129.415 91.6384 129.855 91.5904 130.247 91.4944C130.647 91.3984 131.035 91.2704 131.411 91.1104V88.4584H129.683C129.427 88.4584 129.227 88.3904 129.083 88.2544C128.939 88.1184 128.867 87.9464 128.867 87.7384V85.5064ZM148.405 80.2024V84.2824H153.901V87.2824H148.405V91.4464H155.581V94.5664H144.325V77.0824H155.581V80.2024H148.405ZM173.563 94.5664H169.507C169.243 94.5664 169.027 94.5024 168.859 94.3744C168.699 94.2464 168.571 94.0944 168.475 93.9184L164.971 87.7984C164.907 87.9744 164.835 88.1264 164.755 88.2544L161.491 93.9184C161.379 94.0784 161.247 94.2264 161.095 94.3624C160.943 94.4984 160.747 94.5664 160.507 94.5664H156.715L162.343 85.5664L156.931 77.0824H160.987C161.251 77.0824 161.443 77.1184 161.563 77.1904C161.691 77.2544 161.803 77.3664 161.899 77.5264L165.379 83.4184C165.419 83.3144 165.463 83.2144 165.511 83.1184C165.567 83.0224 165.627 82.9224 165.691 82.8184L168.739 77.5864C168.851 77.4104 168.967 77.2824 169.087 77.2024C169.215 77.1224 169.371 77.0824 169.555 77.0824H173.443L167.959 85.3984L173.563 94.5664ZM181.781 85.6624C182.837 85.6624 183.597 85.4104 184.061 84.9064C184.525 84.4024 184.757 83.6984 184.757 82.7944C184.757 82.3944 184.697 82.0304 184.577 81.7024C184.457 81.3744 184.273 81.0944 184.025 80.8624C183.785 80.6224 183.477 80.4384 183.101 80.3104C182.733 80.1824 182.293 80.1184 181.781 80.1184H179.669V85.6624H181.781ZM181.781 77.0824C183.013 77.0824 184.069 77.2304 184.949 77.5264C185.837 77.8144 186.565 78.2144 187.133 78.7264C187.709 79.2384 188.133 79.8424 188.405 80.5384C188.677 81.2344 188.813 81.9864 188.813 82.7944C188.813 83.6664 188.673 84.4664 188.393 85.1944C188.113 85.9224 187.685 86.5464 187.109 87.0664C186.533 87.5864 185.801 87.9944 184.913 88.2904C184.033 88.5784 182.989 88.7224 181.781 88.7224H179.669V94.5664H175.613V77.0824H181.781ZM201.887 91.3264V94.5664H191.351V77.0824H195.407V91.3264H201.887ZM221.179 85.8184C221.179 87.0824 220.959 88.2584 220.519 89.3464C220.087 90.4344 219.475 91.3824 218.683 92.1904C217.891 92.9904 216.935 93.6184 215.815 94.0744C214.703 94.5304 213.467 94.7584 212.107 94.7584C210.747 94.7584 209.507 94.5304 208.387 94.0744C207.267 93.6184 206.307 92.9904 205.507 92.1904C204.715 91.3824 204.099 90.4344 203.659 89.3464C203.227 88.2584 203.011 87.0824 203.011 85.8184C203.011 84.5544 203.227 83.3784 203.659 82.2904C204.099 81.2024 204.715 80.2584 205.507 79.4584C206.307 78.6584 207.267 78.0304 208.387 77.5744C209.507 77.1184 210.747 76.8904 212.107 76.8904C213.467 76.8904 214.703 77.1224 215.815 77.5864C216.935 78.0424 217.891 78.6704 218.683 79.4704C219.475 80.2704 220.087 81.2144 220.519 82.3024C220.959 83.3904 221.179 84.5624 221.179 85.8184ZM217.027 85.8184C217.027 84.9544 216.915 84.1784 216.691 83.4904C216.467 82.7944 216.143 82.2064 215.719 81.7264C215.303 81.2464 214.791 80.8784 214.183 80.6224C213.575 80.3664 212.883 80.2384 212.107 80.2384C211.323 80.2384 210.623 80.3664 210.007 80.6224C209.399 80.8784 208.883 81.2464 208.459 81.7264C208.043 82.2064 207.723 82.7944 207.499 83.4904C207.275 84.1784 207.163 84.9544 207.163 85.8184C207.163 86.6904 207.275 87.4744 207.499 88.1704C207.723 88.8584 208.043 89.4424 208.459 89.9224C208.883 90.4024 209.399 90.7704 210.007 91.0264C210.623 91.2744 211.323 91.3984 212.107 91.3984C212.883 91.3984 213.575 91.2744 214.183 91.0264C214.791 90.7704 215.303 90.4024 215.719 89.9224C216.143 89.4424 216.467 88.8584 216.691 88.1704C216.915 87.4744 217.027 86.6904 217.027 85.8184ZM229.734 85.3024C230.286 85.3024 230.754 85.2344 231.138 85.0984C231.53 84.9544 231.85 84.7584 232.098 84.5104C232.346 84.2624 232.526 83.9744 232.638 83.6464C232.75 83.3104 232.806 82.9504 232.806 82.5664C232.806 81.7984 232.554 81.1984 232.05 80.7664C231.554 80.3344 230.782 80.1184 229.734 80.1184H228.102V85.3024H229.734ZM238.35 94.5664H234.678C233.998 94.5664 233.51 94.3104 233.214 93.7984L230.31 88.7224C230.174 88.5064 230.022 88.3504 229.854 88.2544C229.686 88.1504 229.446 88.0984 229.134 88.0984H228.102V94.5664H224.046V77.0824H229.734C230.998 77.0824 232.074 77.2144 232.962 77.4784C233.858 77.7344 234.586 78.0944 235.146 78.5584C235.714 79.0224 236.126 79.5704 236.382 80.2024C236.638 80.8344 236.766 81.5224 236.766 82.2664C236.766 82.8344 236.69 83.3704 236.538 83.8744C236.386 84.3784 236.162 84.8464 235.866 85.2784C235.57 85.7024 235.202 86.0824 234.762 86.4184C234.33 86.7544 233.83 87.0304 233.262 87.2464C233.526 87.3824 233.774 87.5544 234.006 87.7624C234.238 87.9624 234.446 88.2024 234.63 88.4824L238.35 94.5664ZM249.539 87.8824L247.919 83.0944C247.799 82.7904 247.671 82.4344 247.535 82.0264C247.399 81.6104 247.263 81.1624 247.127 80.6824C247.007 81.1704 246.879 81.6224 246.743 82.0384C246.607 82.4544 246.479 82.8144 246.359 83.1184L244.751 87.8824H249.539ZM255.983 94.5664H252.839C252.487 94.5664 252.203 94.4864 251.987 94.3264C251.771 94.1584 251.607 93.9464 251.495 93.6904L250.463 90.6424H243.815L242.783 93.6904C242.695 93.9144 242.535 94.1184 242.303 94.3024C242.079 94.4784 241.799 94.5664 241.463 94.5664H238.295L245.063 77.0824H249.215L255.983 94.5664ZM268.695 80.2984H263.775V94.5664H259.719V80.2984H254.799V77.0824H268.695V80.2984ZM275.316 94.5664H271.236V77.0824H275.316V94.5664ZM296.329 85.8184C296.329 87.0824 296.109 88.2584 295.669 89.3464C295.237 90.4344 294.625 91.3824 293.833 92.1904C293.041 92.9904 292.085 93.6184 290.965 94.0744C289.853 94.5304 288.617 94.7584 287.257 94.7584C285.897 94.7584 284.657 94.5304 283.537 94.0744C282.417 93.6184 281.457 92.9904 280.657 92.1904C279.865 91.3824 279.249 90.4344 278.809 89.3464C278.377 88.2584 278.161 87.0824 278.161 85.8184C278.161 84.5544 278.377 83.3784 278.809 82.2904C279.249 81.2024 279.865 80.2584 280.657 79.4584C281.457 78.6584 282.417 78.0304 283.537 77.5744C284.657 77.1184 285.897 76.8904 287.257 76.8904C288.617 76.8904 289.853 77.1224 290.965 77.5864C292.085 78.0424 293.041 78.6704 293.833 79.4704C294.625 80.2704 295.237 81.2144 295.669 82.3024C296.109 83.3904 296.329 84.5624 296.329 85.8184ZM292.177 85.8184C292.177 84.9544 292.065 84.1784 291.841 83.4904C291.617 82.7944 291.293 82.2064 290.869 81.7264C290.453 81.2464 289.941 80.8784 289.333 80.6224C288.725 80.3664 288.033 80.2384 287.257 80.2384C286.473 80.2384 285.773 80.3664 285.157 80.6224C284.549 80.8784 284.033 81.2464 283.609 81.7264C283.193 82.2064 282.873 82.7944 282.649 83.4904C282.425 84.1784 282.313 84.9544 282.313 85.8184C282.313 86.6904 282.425 87.4744 282.649 88.1704C282.873 88.8584 283.193 89.4424 283.609 89.9224C284.033 90.4024 284.549 90.7704 285.157 91.0264C285.773 91.2744 286.473 91.3984 287.257 91.3984C288.033 91.3984 288.725 91.2744 289.333 91.0264C289.941 90.7704 290.453 90.4024 290.869 89.9224C291.293 89.4424 291.617 88.8584 291.841 88.1704C292.065 87.4744 292.177 86.6904 292.177 85.8184ZM314.46 77.0824V94.5664H312.348C312.036 94.5664 311.772 94.5184 311.556 94.4224C311.348 94.3184 311.14 94.1424 310.932 93.8944L302.688 83.4664C302.72 83.7784 302.74 84.0824 302.748 84.3784C302.764 84.6664 302.772 84.9384 302.772 85.1944V94.5664H299.196V77.0824H301.332C301.508 77.0824 301.656 77.0904 301.776 77.1064C301.896 77.1224 302.004 77.1544 302.1 77.2024C302.196 77.2424 302.288 77.3024 302.376 77.3824C302.464 77.4624 302.564 77.5704 302.676 77.7064L310.992 88.2064C310.952 87.8704 310.924 87.5464 310.908 87.2344C310.892 86.9144 310.884 86.6144 310.884 86.3344V77.0824H314.46Z" fill="#FF4C2C"/>
<rect width="335" height="154.864" transform="translate(0 132.566)" fill="white"/>
<path fill-rule="evenodd" clip-rule="evenodd" d="M124.067 156.821C125.616 155.272 127.717 154.402 129.907 154.402H179.459C180.554 154.402 181.604 154.837 182.379 155.612L211.284 184.517C212.058 185.291 212.493 186.342 212.493 187.437V253.506C212.493 255.696 211.623 257.797 210.075 259.346C208.526 260.895 206.425 261.765 204.235 261.765H129.907C127.717 261.765 125.616 260.895 124.067 259.346C122.519 257.797 121.648 255.696 121.648 253.506V162.661C121.648 160.471 122.519 158.37 124.067 156.821ZM177.748 162.661L129.907 162.661L129.907 253.506H204.235V189.147L177.748 162.661Z" fill="#FF4C2C"/>
<path fill-rule="evenodd" clip-rule="evenodd" d="M179.457 154.402C181.738 154.402 183.587 156.251 183.587 158.532V183.308H208.363C210.643 183.308 212.492 185.156 212.492 187.437C212.492 189.717 210.643 191.566 208.363 191.566H179.457C177.177 191.566 175.328 189.717 175.328 187.437V158.532C175.328 156.251 177.177 154.402 179.457 154.402Z" fill="#FF4C2C"/>
<path fill-rule="evenodd" clip-rule="evenodd" d="M172.303 225.698C173.916 224.085 176.53 224.085 178.143 225.698L186.402 233.956C188.014 235.569 188.014 238.184 186.402 239.796C184.789 241.409 182.174 241.409 180.562 239.796L172.303 231.537C170.691 229.925 170.691 227.31 172.303 225.698Z" fill="#FF4D30"/>
<path fill-rule="evenodd" clip-rule="evenodd" d="M165.004 208.083C159.302 208.083 154.681 212.705 154.681 218.406C154.681 224.108 159.302 228.729 165.004 228.729C170.705 228.729 175.327 224.108 175.327 218.406C175.327 212.705 170.705 208.083 165.004 208.083ZM146.422 218.406C146.422 208.144 154.741 199.824 165.004 199.824C175.266 199.824 183.586 208.144 183.586 218.406C183.586 228.669 175.266 236.988 165.004 236.988C154.741 236.988 146.422 228.669 146.422 218.406Z" fill="#FF4D30"/>
<path fill-rule="evenodd" clip-rule="evenodd" d="M205.836 153.893C205.836 153.346 206.28 152.902 206.827 152.902H229.175C229.722 152.902 230.166 153.346 230.166 153.893C230.166 154.441 229.722 154.884 229.175 154.884H206.827C206.28 154.884 205.836 154.441 205.836 153.893Z" fill="#FF4C2C" stroke="#B71616" stroke-width="2.64276" stroke-linecap="round" stroke-linejoin="round"/>
<path fill-rule="evenodd" clip-rule="evenodd" d="M223.406 145.981C223.945 146.079 224.302 146.595 224.204 147.133L220.24 168.936C220.142 169.475 219.626 169.832 219.087 169.734C218.549 169.636 218.192 169.12 218.29 168.582L222.254 146.779C222.352 146.24 222.868 145.883 223.406 145.981Z" fill="#FF4C2C" stroke="#B71616" stroke-width="2.64276" stroke-linecap="round" stroke-linejoin="round"/>
<path fill-rule="evenodd" clip-rule="evenodd" d="M215.478 145.981C216.017 146.079 216.374 146.595 216.276 147.133L212.312 168.936C212.214 169.475 211.698 169.832 211.16 169.734C210.621 169.636 210.264 169.12 210.362 168.582L214.326 146.779C214.424 146.24 214.94 145.883 215.478 145.981Z" fill="#FF4C2C" stroke="#B71616" stroke-width="2.64276" stroke-linecap="round" stroke-linejoin="round"/>
<path fill-rule="evenodd" clip-rule="evenodd" d="M204.398 161.819C204.398 161.272 204.842 160.828 205.389 160.828H227.737C228.285 160.828 228.728 161.272 228.728 161.819C228.728 162.366 228.285 162.81 227.737 162.81H205.389C204.842 162.81 204.398 162.366 204.398 161.819Z" fill="#FF4C2C" stroke="#B71616" stroke-width="2.64276" stroke-linecap="round" stroke-linejoin="round"/>
</svg>
